<svg width="339" height="633" viewBox="0 0 339 633" fill="none" xmlns="http://www.w3.org/2000/svg">
<mask id="mask0_11_75" style="mask-type:alpha" maskUnits="userSpaceOnUse" x="0" y="0" width="339" height="633">
<path d="M0 15C0 6.71572 6.71573 0 15 0H339V633H15C6.71574 633 0 626.284 0 618V15Z" fill="#D9D9D9"/>
</mask>
<g mask="url(#mask0_11_75)">
<mask id="mask1_11_75" style="mask-type:alpha" maskUnits="userSpaceOnUse" x="0" y="0" width="339" height="633">
<path d="M0 16C0 7.1635 7.1634 0 16 0H339V633H16C7.1634 633 0 625.837 0 617V16Z" fill="#5E3D78"/>
</mask>
<g mask="url(#mask1_11_75)">
<g style="mix-blend-mode:soft-light" opacity="0.2">
<path d="M728.428 -97.5696H-418.999V763H728.428V-97.5696Z" fill="white"/>
<path d="M183.4 246.658C230.928 246.658 269.457 208.129 269.457 160.601C269.457 113.073 230.928 74.5444 183.4 74.5444C135.872 74.5444 97.343 113.073 97.343 160.601C97.343 208.129 135.872 246.658 183.4 246.658Z" fill="#FF8B61"/>
<path d="M183.828 211.551C211.73 211.551 234.349 188.932 234.349 161.03C234.349 133.128 211.73 110.509 183.828 110.509C155.926 110.509 133.307 133.128 133.307 161.03C133.307 188.932 155.926 211.551 183.828 211.551Z" fill="#2D374C"/>
<path d="M183.828 187.575C198.488 187.575 210.373 175.69 210.373 161.03C210.373 146.37 198.488 134.485 183.828 134.485C169.167 134.485 157.283 146.37 157.283 161.03C157.283 175.69 169.167 187.575 183.828 187.575Z" fill="#F1E3CF"/>
<path d="M269.668 204.158C269.668 215.374 274.123 226.13 282.054 234.06C289.985 241.991 300.741 246.446 311.956 246.446C323.172 246.446 333.928 241.991 341.859 234.06C349.789 226.13 354.245 215.374 354.245 204.158C354.245 192.942 349.789 182.186 341.859 174.256C333.928 166.325 323.172 161.87 311.956 161.87C300.741 161.87 289.985 166.325 282.054 174.256C274.123 182.186 269.668 192.942 269.668 204.158Z" fill="#FF8B61"/>
<path d="M269.456 74.5443V117.678C269.485 129.146 274.068 140.132 282.197 148.221C290.325 156.31 301.334 160.839 312.802 160.812C324.269 160.839 335.278 156.31 343.406 148.221C351.535 140.132 356.118 129.146 356.147 117.678C356.118 106.211 351.535 95.224 343.406 87.135C335.278 79.046 324.269 74.5173 312.802 74.5443H269.456Z" fill="#36868E"/>
<path d="M355.513 74.5442C378.337 74.5442 400.226 65.4775 416.365 49.3387C432.504 33.1999 441.57 11.3109 441.57 -11.5128C441.57 -34.3365 432.504 -56.2255 416.365 -72.3643C400.226 -88.5031 378.337 -97.5698 355.513 -97.5698H269.456V-11.5128C269.456 11.3109 278.523 33.1999 294.662 49.3387C310.801 65.4775 332.69 74.5442 355.513 74.5442Z" fill="#F1E3CF"/>
<path d="M320.918 5.353C334.566 5.353 347.656 -0.0687962 357.307 -9.7197C366.958 -19.3705 372.379 -32.4599 372.379 -46.1083C372.379 -59.7567 366.958 -72.8461 357.307 -82.497C347.656 -92.1479 334.566 -97.5697 320.918 -97.5697H269.457V-46.1083C269.457 -32.4599 274.878 -19.3705 284.529 -9.7197C294.18 -0.0687962 307.27 5.353 320.918 5.353Z" fill="#2D374C"/>
<path d="M355.514 41.894C369.449 41.894 382.813 36.3584 392.667 26.5048C402.52 16.6513 408.056 3.28697 408.056 -10.6481C408.056 -24.5831 402.52 -37.9474 392.667 -47.8009C382.813 -57.6545 369.449 -63.1901 355.514 -63.1901C341.579 -63.1901 328.215 -57.6545 318.361 -47.8009C308.508 -37.9474 302.972 -24.5831 302.972 -10.6481C302.972 3.28697 308.508 16.6513 318.361 26.5048C328.215 36.3584 341.579 41.894 355.514 41.894Z" fill="#36868E"/>
<path d="M355.514 20.1094C359.553 20.1095 363.553 19.314 367.284 17.7683C371.016 16.2226 374.407 13.9571 377.263 11.101C380.119 8.24489 382.385 4.85419 383.931 1.12239C385.476 -2.60931 386.272 -6.60891 386.272 -10.6481C386.272 -14.6874 385.477 -18.6871 383.931 -22.4189C382.385 -26.1507 380.119 -29.5415 377.263 -32.3977C374.407 -35.2538 371.016 -37.5195 367.285 -39.0652C363.553 -40.6109 359.553 -41.4064 355.514 -41.4063C351.475 -41.4063 347.475 -40.6107 343.743 -39.065C340.012 -37.5192 336.621 -35.2536 333.765 -32.3974C330.909 -29.5412 328.643 -26.1505 327.097 -22.4187C325.552 -18.687 324.756 -14.6873 324.756 -10.6481C324.756 -2.49071 327.997 5.33259 333.765 11.1007C339.533 16.8689 347.356 20.1094 355.514 20.1094Z" fill="#2D374C"/>
<path d="M355.539 404.623C395.476 404.623 427.852 372.247 427.852 332.31C427.852 292.372 395.476 259.997 355.539 259.997C315.602 259.997 283.226 292.372 283.226 332.31C283.226 372.247 315.602 404.623 355.539 404.623Z" fill="#F1E3CF"/>
<path d="M353.004 418.772C330.845 418.772 309.595 409.969 293.927 394.301C278.259 378.633 269.457 357.383 269.457 335.225V332.715H271.967C294.125 332.715 315.375 341.517 331.043 357.185C346.711 372.853 355.514 394.104 355.514 416.262V418.772H353.004Z" fill="#D33367"/>
<path d="M271.967 246.658C294.125 246.658 315.375 255.46 331.043 271.128C346.711 286.796 355.514 308.047 355.514 330.205V332.715H353.004C330.845 332.715 309.595 323.913 293.927 308.245C278.259 292.576 269.457 271.326 269.457 249.168V246.658H271.967Z" fill="#36868E"/>
<path d="M97.343 -97.5696V74.5444H-74.771C-74.771 -20.5113 2.2873 -97.5696 97.343 -97.5696Z" fill="#D33367"/>
<path d="M97.343 -23.1422V74.5439H-0.584473C-0.584473 20.5934 43.2587 -23.1422 97.343 -23.1422Z" fill="#F1E3CF"/>
<path d="M97.3419 29.7185V74.5442H52.4061C52.4134 68.6503 53.5815 62.8156 55.8436 57.3732C58.1058 51.9308 61.4178 46.9872 65.5905 42.8248C69.7632 38.6623 74.7149 35.3625 80.1629 33.1138C85.6109 30.865 91.4489 29.7113 97.3419 29.7185Z" fill="#2D374C"/>
<path d="M12.5547 461.271C12.5547 452.907 15.0349 444.731 19.6816 437.777C24.3283 430.823 30.9328 425.403 38.66 422.202C46.3872 419.001 54.89 418.164 63.0931 419.796C71.2963 421.427 78.831 425.455 84.746 431.369C90.66 437.283 94.687 444.818 96.319 453.021C97.951 461.224 97.113 469.727 93.912 477.454C90.712 485.182 85.292 491.786 78.337 496.433C71.383 501.08 63.2069 503.56 54.8431 503.56C43.6275 503.56 32.8713 499.104 24.9407 491.174C17.0101 483.243 12.5547 472.487 12.5547 461.271Z" fill="#D33367"/>
<path d="M-74.5591 461.271C-74.5591 452.907 -72.0789 444.731 -67.4322 437.777C-62.7855 430.823 -56.1809 425.403 -48.4537 422.202C-40.7266 419.001 -32.2238 418.164 -24.0206 419.796C-15.8175 421.427 -8.28238 425.455 -2.36828 431.369C3.54592 437.283 7.57352 444.818 9.20522 453.021C10.8369 461.224 9.99942 469.727 6.79872 477.454C3.59802 485.182 -1.82218 491.786 -8.77648 496.433C-15.7308 501.08 -23.9068 503.56 -32.2707 503.56C-43.4863 503.56 -54.2425 499.104 -62.1731 491.174C-70.1037 483.243 -74.5591 472.487 -74.5591 461.271Z" fill="#FF8B61"/>
<path d="M12.5547 546.694C12.5547 538.33 15.0349 530.154 19.6816 523.2C24.3283 516.245 30.9328 510.825 38.66 507.624C46.3872 504.424 54.89 503.586 63.0931 505.218C71.2963 506.85 78.831 510.877 84.746 516.791C90.66 522.705 94.687 530.241 96.319 538.444C97.951 546.647 97.113 555.15 93.912 562.877C90.712 570.604 85.292 577.209 78.337 581.855C71.383 586.502 63.2069 588.982 54.8431 588.982C43.6275 588.982 32.8713 584.527 24.9407 576.596C17.0101 568.666 12.5547 557.909 12.5547 546.694Z" fill="#FF8B61"/>
<path d="M-74.771 590.886V547.752C-74.813 539.17 -72.3065 530.769 -67.5692 523.613C-62.8318 516.456 -56.0768 510.868 -48.1601 507.554C-40.2434 504.241 -31.5212 503.352 -23.0989 505.001C-14.6767 506.649 -6.93327 510.761 -0.849968 516.814C5.23333 522.868 9.38273 530.591 11.0724 539.005C12.7621 547.42 11.9161 556.146 8.64164 564.079C5.36704 572.012 -0.188664 578.794 -7.32146 583.566C-14.4544 588.338 -22.8433 590.886 -31.4255 590.886H-74.771Z" fill="#36868E"/>
<path d="M139.631 548.597H227.591V460.637H139.631V548.597Z" fill="#F1E3CF"/>
<path d="M145.049 504.396L182.967 542.314L220.884 504.396L182.967 466.479L145.049 504.396Z" fill="#36868E"/>
<path d="M252.964 574.393H200.949C200.949 560.598 206.429 547.368 216.184 537.613C225.938 527.858 239.169 522.378 252.964 522.378V574.393Z" fill="#D33367"/>
<path d="M252.964 435.264V487.279C239.169 487.279 225.938 481.799 216.184 472.044C206.429 462.289 200.949 449.059 200.949 435.264H252.964Z" fill="#D33367"/>
<path d="M115.103 435.264H167.118C167.118 449.059 161.638 462.289 151.883 472.044C142.129 481.799 128.898 487.279 115.103 487.279V435.264Z" fill="#D33367"/>
<path d="M115.103 574.393V522.378C128.898 522.378 142.129 527.858 151.883 537.613C161.638 547.368 167.118 560.598 167.118 574.393H115.103Z" fill="#D33367"/>
<path d="M121.561 48.5972H175.184V-5.02643H121.561V48.5972Z" fill="#F1E3CF"/>
<path d="M190.751 48.5972H244.375V-5.02643H190.751V48.5972Z" fill="#F1E3CF"/>
<path d="M135.399 33.8947H160.481V8.81256H135.399V33.8947Z" fill="#2D374C"/>
<path d="M204.59 33.8947H229.672V8.81256H204.59V33.8947Z" fill="#2D374C"/>
<path d="M-48.7911 332.806L12.3018 393.899L73.3946 332.806L12.3018 271.713L-48.7911 332.806Z" fill="#2D374C"/>
<path d="M-9.43457 354.559H34.0385V311.054H-9.43457V354.559Z" fill="#36868E"/>
<path d="M11.286 590.886C34.1097 590.886 55.9987 599.953 72.1375 616.091C88.276 632.23 97.343 654.119 97.343 676.943C97.343 699.767 88.276 721.656 72.1375 737.794C55.9987 753.933 34.1097 763 11.286 763H-74.771V676.943C-74.771 654.119 -65.7043 632.23 -49.5655 616.091C-33.4267 599.953 -11.5377 590.886 11.286 590.886Z" fill="#F1E3CF"/>
<path d="M11.2848 623.536C21.6766 623.536 31.8351 626.617 40.4756 632.391C49.1161 638.164 55.8505 646.37 59.8273 655.971C63.8041 665.572 64.8446 676.136 62.8173 686.328C60.7899 696.52 55.7858 705.883 48.4376 713.231C41.0895 720.579 31.7274 725.583 21.5352 727.61C11.3431 729.638 0.778572 728.597 -8.82223 724.62C-18.4231 720.644 -26.629 713.909 -32.4024 705.269C-38.1758 696.628 -41.2573 686.47 -41.2573 676.078C-41.2573 662.143 -35.7217 648.778 -25.8681 638.925C-16.0146 629.071 -2.65032 623.536 11.2848 623.536Z" fill="#36868E"/>
<path d="M97.343 676.513V590.886H182.969C205.907 590.886 227.906 599.998 244.125 616.218C260.345 632.437 269.457 654.435 269.457 677.373V763H183.83C160.892 763 138.894 753.888 122.674 737.668C106.455 721.449 97.343 699.451 97.343 676.513Z" fill="#36868E"/>
<path d="M134.533 676.943C134.533 663.524 139.863 650.655 149.352 641.166C158.841 631.677 171.71 626.347 185.129 626.347C198.548 626.347 211.418 631.677 220.906 641.166C230.395 650.655 235.726 663.524 235.726 676.943V727.54H185.129C171.71 727.54 158.841 722.209 149.352 712.72C139.863 703.232 134.533 690.362 134.533 676.943Z" fill="#2D374C"/>
<path d="M97.343 624.876V590.453H131.766C145.46 590.453 158.593 595.893 168.276 605.577C177.96 615.26 183.4 628.393 183.4 642.088V676.51H148.977C135.283 676.51 122.149 671.07 112.466 661.387C102.783 651.704 97.343 638.57 97.343 624.876Z" fill="#FF8B61"/>
<path d="M183.4 418.772C160.576 418.772 138.687 409.706 122.548 393.567C106.409 377.428 97.343 355.539 97.343 332.715C97.343 309.892 106.409 288.003 122.548 271.864C138.687 255.725 160.576 246.658 183.4 246.658H269.457V332.715C269.457 355.539 260.39 377.428 244.251 393.567C228.112 409.706 206.223 418.772 183.4 418.772Z" fill="#F1E3CF"/>
<path d="M217.995 349.581C204.347 349.581 191.257 344.159 181.607 334.508C171.956 324.857 166.534 311.768 166.534 298.12C166.534 284.471 171.956 271.382 181.607 261.731C191.257 252.08 204.347 246.658 217.995 246.658H269.457V298.12C269.457 311.768 264.035 324.857 254.384 334.508C244.733 344.159 231.644 349.581 217.995 349.581Z" fill="#D33367"/>
<path d="M183.4 386.122C173.008 386.122 162.849 383.041 154.209 377.267C145.568 371.494 138.834 363.288 134.857 353.687C130.88 344.086 129.84 333.522 131.867 323.33C133.895 313.138 138.899 303.776 146.247 296.427C153.595 289.079 162.957 284.075 173.149 282.048C183.342 280.02 193.906 281.061 203.507 285.038C213.108 289.015 221.314 295.749 227.087 304.389C232.86 313.03 235.942 323.188 235.942 333.58C235.942 347.515 230.406 360.88 220.553 370.733C210.699 380.587 197.335 386.122 183.4 386.122Z" fill="#36868E"/>
<path d="M183.4 364.338C177.316 364.338 171.37 362.534 166.312 359.154C161.254 355.774 157.311 350.971 154.984 345.351C152.656 339.73 152.046 333.546 153.233 327.58C154.42 321.613 157.349 316.133 161.651 311.831C165.952 307.53 171.433 304.601 177.399 303.414C183.366 302.227 189.55 302.836 195.17 305.164C200.79 307.492 205.594 311.434 208.974 316.492C212.353 321.55 214.157 327.497 214.157 333.58C214.157 341.738 210.917 349.561 205.149 355.329C199.38 361.097 191.557 364.338 183.4 364.338Z" fill="#2D374C"/>
<path d="M-32.1733 74.5444H54.7442L11.2854 118.003L-32.1733 74.5444Z" fill="#FF8B61"/>
<path d="M97.343 74.5444V246.658H-74.771L97.343 74.5444Z" fill="#36868E"/>
<path d="M-74.771 74.5444L97.343 246.658H-74.771V74.5444Z" fill="#F1E3CF"/>
<path d="M399.402 590.886H312.484L355.943 547.428L399.402 590.886Z" fill="#FF8B61"/>
<path d="M269.887 590.886V418.772H442L269.887 590.886Z" fill="#36868E"/>
<path d="M442 590.886L269.887 418.772H442V590.886Z" fill="#F1E3CF"/>
<path d="M312.485 590.886H399.402L355.944 634.345L312.485 590.886Z" fill="#FF8B61"/>
<path d="M442.001 590.886V763H269.887L442.001 590.886Z" fill="#36868E"/>
<path d="M269.887 590.886L442.001 763H269.887V590.886Z" fill="#F1E3CF"/>
</g>
</g>
</g>
</svg>
