<svg width="13" height="13" viewBox="0 0 13 13" fill="none" xmlns="http://www.w3.org/2000/svg">
<path d="M1.39293 2.32138C1.14665 2.32138 0.910469 2.41921 0.736328 2.59335C0.562187 2.76749 0.464355 3.00368 0.464355 3.24995V11.6071C0.464355 11.8534 0.562187 12.0895 0.736328 12.2637C0.910469 12.4378 1.14665 12.5357 1.39293 12.5357H11.6072C11.8535 12.5357 12.0897 12.4378 12.2638 12.2637C12.438 12.0895 12.5358 11.8534 12.5358 11.6071V3.24995C12.5358 3.00368 12.438 2.76749 12.2638 2.59335C12.0897 2.41921 11.8535 2.32138 11.6072 2.32138H9.75007M3.25007 0.464233V4.17852M9.75007 0.464233V4.17852M3.25007 2.32138H7.89293" stroke="#CF86AC" stroke-width="1.2" stroke-linecap="round" stroke-linejoin="round"/>
<path d="M6.50007 10.6785C8.03858 10.6785 9.28578 9.43128 9.28578 7.89277C9.28578 6.35426 8.03858 5.10706 6.50007 5.10706C4.96156 5.10706 3.71436 6.35426 3.71436 7.89277C3.71436 9.43128 4.96156 10.6785 6.50007 10.6785Z" stroke="#CF86AC" stroke-width="1.2" stroke-linecap="round" stroke-linejoin="round"/>
<path d="M4.53149 9.86134L8.46864 5.92419" stroke="#CF86AC" stroke-width="1.2" stroke-linecap="round" stroke-linejoin="round"/>
</svg>
