<svg width="20" height="20" viewBox="0 0 20 20" fill="none" xmlns="http://www.w3.org/2000/svg">
<path d="M2.14287 3.5715C1.76399 3.5715 1.40062 3.72201 1.13271 3.98992C0.864804 4.25783 0.714294 4.62119 0.714294 5.00007V17.8572C0.714294 18.2361 0.864804 18.5995 1.13271 18.8674C1.40062 19.1353 1.76399 19.2858 2.14287 19.2858H17.8572C18.236 19.2858 18.5994 19.1353 18.8673 18.8674C19.1352 18.5995 19.2857 18.2361 19.2857 17.8572V5.00007C19.2857 4.62119 19.1352 4.25783 18.8673 3.98992C18.5994 3.72201 18.236 3.5715 17.8572 3.5715H15M5.00001 0.714355V6.42864M15 0.714355V6.42864M5.00001 3.5715H12.1429" stroke="black" stroke-width="1.2" stroke-linecap="round" stroke-linejoin="round"/>
<path d="M10 16.4286C12.3669 16.4286 14.2857 14.5098 14.2857 12.1429C14.2857 9.77596 12.3669 7.85718 10 7.85718C7.63307 7.85718 5.71429 9.77596 5.71429 12.1429C5.71429 14.5098 7.63307 16.4286 10 16.4286Z" stroke="black" stroke-width="1.2" stroke-linecap="round" stroke-linejoin="round"/>
<path d="M6.97144 15.1714L13.0286 9.11426" stroke="black" stroke-width="1.2" stroke-linecap="round" stroke-linejoin="round"/>
</svg>
