<svg width="13" height="13" viewBox="0 0 13 13" fill="none" xmlns="http://www.w3.org/2000/svg">
<g clip-path="url(#clip0_164_200)">
<path d="M1.39293 2.44809C1.14665 2.44809 0.910469 2.54592 0.736328 2.72006C0.562187 2.8942 0.464355 3.13038 0.464355 3.37666V11.7338C0.464355 11.9801 0.562187 12.2163 0.736328 12.3904C0.910469 12.5645 1.14665 12.6624 1.39293 12.6624H11.6072C11.8535 12.6624 12.0897 12.5645 12.2638 12.3904C12.438 12.2163 12.5358 11.9801 12.5358 11.7338V3.37666C12.5358 3.13038 12.438 2.8942 12.2638 2.72006C12.0897 2.54592 11.8535 2.44809 11.6072 2.44809H9.75007M3.25007 0.590942V4.30523M9.75007 0.590942V4.30523M3.25007 2.44809H7.89293" stroke="#CF86AC" stroke-width="1.2" stroke-linecap="round" stroke-linejoin="round"/>
<path d="M3.71436 8.48378L5.5715 9.87664L8.8215 6.16235" stroke="#CF86AC" stroke-width="1.2" stroke-linecap="round" stroke-linejoin="round"/>
</g>
<defs>
<clipPath id="clip0_164_200">
<rect width="13" height="13" fill="white"/>
</clipPath>
</defs>
</svg>
