<svg width="21" height="19" viewBox="0 0 21 19" fill="none" xmlns="http://www.w3.org/2000/svg">
<path d="M19.8752 4.25004H15.7085V1.12504C15.7085 0.848773 15.5988 0.583821 15.4034 0.388471C15.2081 0.193121 14.9431 0.083374 14.6668 0.083374H6.3335C6.05723 0.083374 5.79228 0.193121 5.59693 0.388471C5.40158 0.583821 5.29183 0.848773 5.29183 1.12504V8.41671H1.12516C0.848896 8.41671 0.583944 8.52645 0.388593 8.7218C0.193243 8.91715 0.0834961 9.18211 0.0834961 9.45837V17.7917C0.0834961 18.068 0.193243 18.3329 0.388593 18.5283C0.583944 18.7236 0.848896 18.8334 1.12516 18.8334H19.8752C20.1514 18.8334 20.4164 18.7236 20.6117 18.5283C20.8071 18.3329 20.9168 18.068 20.9168 17.7917V5.29171C20.9168 5.01544 20.8071 4.75049 20.6117 4.55514C20.4164 4.35979 20.1514 4.25004 19.8752 4.25004ZM4.25016 16.75H2.16683V14.6667H4.25016V16.75ZM4.25016 12.5834H2.16683V10.5H4.25016V12.5834ZM9.4585 16.75H7.37516V14.6667H9.4585V16.75ZM9.4585 12.5834H7.37516V10.5H9.4585V12.5834ZM9.4585 8.41671H7.37516V6.33337H9.4585V8.41671ZM9.4585 4.25004H7.37516V2.16671H9.4585V4.25004ZM13.6252 16.75H11.5418V14.6667H13.6252V16.75ZM13.6252 12.5834H11.5418V10.5H13.6252V12.5834ZM13.6252 8.41671H11.5418V6.33337H13.6252V8.41671ZM13.6252 4.25004H11.5418V2.16671H13.6252V4.25004ZM18.8335 16.75H16.7502V14.6667H18.8335V16.75ZM18.8335 12.5834H16.7502V10.5H18.8335V12.5834ZM18.8335 8.41671H16.7502V6.33337H18.8335V8.41671Z" fill="#B5B5B5"/>
</svg>
