<svg width="25" height="24" viewBox="0 0 25 24" fill="none" xmlns="http://www.w3.org/2000/svg">
<circle cx="12.667" cy="12" r="12" fill="#E6E6E6"/>
<path d="M13.1904 12.5L15.6045 10.1094L16.0967 9.61719C16.167 9.54688 16.167 9.42969 16.0967 9.33594L15.5811 8.82031C15.4873 8.75 15.3701 8.75 15.2998 8.82031L12.417 11.7266L9.51074 8.82031C9.44043 8.75 9.32324 8.75 9.22949 8.82031L8.71387 9.33594C8.64355 9.42969 8.64355 9.54688 8.71387 9.61719L11.6201 12.5L8.71387 15.4062C8.64355 15.4766 8.64355 15.5938 8.71387 15.6875L9.22949 16.2031C9.32324 16.2734 9.44043 16.2734 9.51074 16.2031L12.417 13.2969L14.8076 15.7109L15.2998 16.2031C15.3701 16.2734 15.4873 16.2734 15.5811 16.2031L16.0967 15.6875C16.167 15.5938 16.167 15.4766 16.0967 15.4062L13.1904 12.5Z" fill="black"/>
</svg>
