<svg width="20" height="20" viewBox="0 0 20 20" fill="none" xmlns="http://www.w3.org/2000/svg">
<path d="M10.0001 18.6744C14.7908 18.6744 18.6744 14.7908 18.6744 10.0001C18.6744 5.20933 14.7908 1.32568 10.0001 1.32568C5.20933 1.32568 1.32568 5.20933 1.32568 10.0001C1.32568 14.7908 5.20933 18.6744 10.0001 18.6744Z" fill="#F9BF44"/>
<path d="M10.0002 13.8437C9.25987 13.8469 8.53366 13.6409 7.90522 13.2495C7.27678 12.858 6.77167 12.2971 6.44805 11.6312C6.42893 11.5942 6.41738 11.5538 6.41407 11.5124C6.41077 11.4709 6.41578 11.4292 6.4288 11.3897C6.44183 11.3502 6.46261 11.3137 6.48993 11.2823C6.51725 11.2509 6.55056 11.2253 6.5879 11.207C6.62524 11.1887 6.66587 11.178 6.70739 11.1756C6.74892 11.1732 6.79052 11.1791 6.82974 11.1929C6.86896 11.2068 6.90501 11.2283 6.93579 11.2563C6.96657 11.2843 6.99146 11.3181 7.00899 11.3559C7.2838 11.9148 7.70972 12.3856 8.23844 12.7148C8.76717 13.044 9.37755 13.2185 10.0004 13.2185C10.6232 13.2185 11.2336 13.044 11.7623 12.7148C12.2911 12.3856 12.717 11.9148 12.9918 11.3559C13.0093 11.3181 13.0342 11.2843 13.065 11.2563C13.0958 11.2283 13.1318 11.2068 13.1711 11.1929C13.2103 11.1791 13.2519 11.1732 13.2934 11.1756C13.3349 11.178 13.3755 11.1887 13.4129 11.207C13.4502 11.2253 13.4835 11.2509 13.5109 11.2823C13.5382 11.3137 13.559 11.3502 13.572 11.3897C13.585 11.4292 13.59 11.4709 13.5867 11.5124C13.5834 11.5538 13.5719 11.5942 13.5527 11.6312C13.2291 12.2971 12.7239 12.8581 12.0954 13.2495C11.4669 13.641 10.7407 13.8469 10.0002 13.8437Z" fill="#382A12"/>
<path d="M8.19941 9.69152C8.14084 9.69164 8.08342 9.67529 8.03369 9.64435C7.98396 9.61341 7.94393 9.56912 7.91816 9.51652C7.79359 9.26331 7.60058 9.05006 7.36101 8.90093C7.12144 8.75179 6.84489 8.67275 6.56269 8.67275C6.2805 8.67275 6.00394 8.75179 5.76437 8.90093C5.5248 9.05006 5.3318 9.26331 5.20722 9.51652C5.17049 9.5906 5.1059 9.64711 5.02759 9.67366C4.94928 9.70021 4.86364 9.69464 4.78943 9.65818C4.71522 9.62171 4.65849 9.55732 4.63166 9.47911C4.60482 9.4009 4.61009 9.31524 4.64629 9.2409C4.82229 8.88276 5.09512 8.5811 5.43385 8.37014C5.77258 8.15918 6.16364 8.04736 6.56269 8.04736C6.96174 8.04736 7.35281 8.15918 7.69153 8.37014C8.03026 8.5811 8.3031 8.88276 8.4791 9.2409C8.50247 9.28859 8.51329 9.34145 8.51056 9.39448C8.50783 9.44752 8.49162 9.49899 8.46347 9.54402C8.43533 9.58906 8.39617 9.62618 8.34969 9.65188C8.30321 9.67757 8.25096 9.691 8.19785 9.6909L8.19941 9.69152Z" fill="#382A12"/>
<path d="M12.4225 9.37499C12.3535 9.37523 12.2863 9.35263 12.2315 9.31072C12.1767 9.26881 12.1374 9.20994 12.1195 9.1433C12.1017 9.07665 12.1064 9.00598 12.1329 8.9423C12.1595 8.87861 12.2063 8.8255 12.2662 8.79124L14.1803 7.69749C14.2521 7.6587 14.3362 7.64952 14.4146 7.67192C14.4931 7.69432 14.5597 7.74652 14.6002 7.81737C14.6407 7.88822 14.6518 7.97209 14.6313 8.05106C14.6108 8.13004 14.5601 8.19784 14.4903 8.23999L12.5762 9.33374C12.5294 9.36054 12.4764 9.37475 12.4225 9.37499Z" fill="#382A12"/>
<path d="M14.4212 10.2418C14.3782 10.2418 14.3356 10.233 14.2962 10.2158L12.2962 9.34897C12.258 9.33303 12.2233 9.30966 12.1942 9.28022C12.1651 9.25077 12.1422 9.21584 12.1267 9.17745C12.1112 9.13906 12.1035 9.09797 12.104 9.05658C12.1046 9.01518 12.1133 8.9743 12.1298 8.93632C12.1462 8.89833 12.1701 8.86399 12.1999 8.8353C12.2297 8.8066 12.265 8.78412 12.3036 8.76916C12.3422 8.7542 12.3834 8.74706 12.4248 8.74816C12.4661 8.74925 12.5069 8.75855 12.5446 8.77553L14.5446 9.6424C14.6107 9.67095 14.6649 9.72144 14.6981 9.78533C14.7313 9.84923 14.7413 9.92261 14.7266 9.99308C14.7119 10.0636 14.6734 10.1268 14.6174 10.1721C14.5615 10.2174 14.4916 10.242 14.4196 10.2418H14.4212Z" fill="#382A12"/>
</svg>
