<svg xmlns="http://www.w3.org/2000/svg" width="41" height="36" viewBox="0 0 41 36">
  <g id="facebook" transform="translate(-12362 -3845)">
    <rect id="Rectangle_278" data-name="Rectangle 278" width="41" height="36" transform="translate(12362 3845)" fill="none"/>
    <g id="facebook-2" data-name="facebook" transform="translate(12299.297 3851)">
      <path id="XMLID_835_" d="M77.09,12.794h2.633V23.635a.387.387,0,0,0,.387.387h4.465a.387.387,0,0,0,.387-.387V12.845h3.027a.388.388,0,0,0,.385-.343l.46-3.991a.387.387,0,0,0-.385-.432H84.964v-2.5c0-.754.406-1.137,1.207-1.137h2.28a.387.387,0,0,0,.387-.387V.39A.387.387,0,0,0,88.45,0H85.309c-.022,0-.071,0-.144,0a6.021,6.021,0,0,0-3.937,1.484,4.128,4.128,0,0,0-1.373,3.67V8.079H77.09a.387.387,0,0,0-.387.387v3.94A.387.387,0,0,0,77.09,12.794Z" fill="#3b5999"/>
    </g>
  </g>
</svg>
