<svg width="25" height="25" viewBox="0 0 25 25" fill="none" xmlns="http://www.w3.org/2000/svg">
<path d="M12.5007 17.7083L13.5423 15.6249V10.2687C15.335 9.80304 16.6673 8.18534 16.6673 6.24992C16.6673 3.952 14.7986 2.08325 12.5007 2.08325C10.2027 2.08325 8.33398 3.952 8.33398 6.24992C8.33398 8.18534 9.66628 9.80304 11.459 10.2687V15.6249L12.5007 17.7083Z" fill="#D493AF"/>
<path d="M16.9454 11.0032L16.3902 13.0116C19.0892 13.7574 20.834 15.1918 20.834 16.6668C20.834 18.6376 17.4121 20.8334 12.5007 20.8334C7.58919 20.8334 4.16732 18.6376 4.16732 16.6668C4.16732 15.1918 5.91211 13.7574 8.61211 13.0105L8.0569 11.0022C4.37253 12.0209 2.08398 14.1907 2.08398 16.6668C2.08398 20.1709 6.66003 22.9168 12.5007 22.9168C18.3413 22.9168 22.9173 20.1709 22.9173 16.6668C22.9173 14.1907 20.6288 12.0209 16.9454 11.0032Z" fill="#D493AF"/>
</svg>
