<svg width="9" height="13" viewBox="0 0 9 13" fill="none" xmlns="http://www.w3.org/2000/svg">
<path d="M9 4.5C9 2.01651 6.98349 0 4.5 0C2.01651 0 0 2.01651 0 4.5C0 6.53774 1.42217 8.36321 3.375 8.87264L3.75708 9.89151C2.69575 9.95519 0.912736 10.2099 0.912736 11.1014C0.912736 12.3113 4.13915 12.3538 4.52123 12.3538C4.9033 12.3538 8.12972 12.3113 8.12972 11.1014C8.12972 10.1887 6.32547 9.95519 5.26415 9.89151L5.625 8.89387C7.57783 8.38443 9 6.55896 9 4.5ZM5.96462 4.5C5.96462 5.3066 5.3066 5.96462 4.5 5.96462C3.6934 5.96462 3.03538 5.3066 3.03538 4.5C3.03538 3.6934 3.6934 3.03538 4.5 3.03538C5.3066 3.03538 5.96462 3.6934 5.96462 4.5ZM7.36557 11.1014C7.1533 11.3137 6.11321 11.6321 4.5 11.6321C2.90802 11.6321 1.86792 11.3137 1.63443 11.1014C1.82547 10.9104 2.69575 10.6344 4.01179 10.592L4.24528 11.2075C4.28774 11.3137 4.37264 11.3774 4.5 11.3774C4.60613 11.3774 4.71226 11.3137 4.75472 11.2075L4.96698 10.592C6.30424 10.6344 7.1533 10.9104 7.36557 11.1014Z" fill="#CF86AC"/>
</svg>
