<svg width="22" height="23" viewBox="0 0 22 23" fill="none" xmlns="http://www.w3.org/2000/svg">
<path d="M0 0V16.7471H6.17V22.4764L11.8636 16.7471H22V0H0ZM11.8636 14.5436H10.9509L10.3057 15.1888L8.33831 17.1561V16.7471V14.5436H6.13474H2.16831V2.20357H19.8321V14.5436H11.8636Z" fill="#3E3D3D"/>
<path d="M5.69352 10.1364C6.66712 10.1364 7.45638 9.34717 7.45638 8.37357C7.45638 7.39998 6.66712 6.61072 5.69352 6.61072C4.71992 6.61072 3.93066 7.39998 3.93066 8.37357C3.93066 9.34717 4.71992 10.1364 5.69352 10.1364Z" fill="#3E3D3D"/>
<path d="M10.9822 10.1364C11.9558 10.1364 12.7451 9.34717 12.7451 8.37357C12.7451 7.39998 11.9558 6.61072 10.9822 6.61072C10.0086 6.61072 9.21936 7.39998 9.21936 8.37357C9.21936 9.34717 10.0086 10.1364 10.9822 10.1364Z" fill="#3E3D3D"/>
<path d="M16.2707 10.1364C17.2443 10.1364 18.0335 9.34717 18.0335 8.37357C18.0335 7.39998 17.2443 6.61072 16.2707 6.61072C15.2971 6.61072 14.5078 7.39998 14.5078 8.37357C14.5078 9.34717 15.2971 10.1364 16.2707 10.1364Z" fill="#3E3D3D"/>
</svg>
