<svg width="21" height="20" viewBox="0 0 21 20" fill="none" xmlns="http://www.w3.org/2000/svg">
<path d="M0.458319 11.0095V18.8163C0.478549 18.9364 0.377397 19.0165 0.256015 19.0165C0.161839 19.0165 0.0920196 18.9562 0.0654518 18.8825C0.0577764 18.8612 0.0537109 18.8387 0.0537109 18.8163V11.0095C0.0537109 10.8894 0.154863 10.8093 0.256015 10.8093C0.357167 10.8093 0.458319 10.9094 0.458319 11.0095Z" fill="white" stroke="white" stroke-width="20"/>
<mask id="path-2-inside-1_454_3045" fill="white">
<path d="M4.4643 10.7093C4.34292 10.7093 4.262 10.6092 4.262 10.5091V9.36812H1.12629V10.5091C1.12629 10.6292 1.02514 10.7093 0.923984 10.7093C0.822832 10.7093 0.72168 10.6092 0.72168 10.5091V8.94775H4.68684V10.5091C4.66661 10.6092 4.56545 10.7093 4.4643 10.7093Z"/>
</mask>
<path d="M4.4643 10.7093C4.34292 10.7093 4.262 10.6092 4.262 10.5091V9.36812H1.12629V10.5091C1.12629 10.6292 1.02514 10.7093 0.923984 10.7093C0.822832 10.7093 0.72168 10.6092 0.72168 10.5091V8.94775H4.68684V10.5091C4.66661 10.6092 4.56545 10.7093 4.4643 10.7093Z" fill="white"/>
<path d="M4.262 9.36812H24.262V-10.6319H4.262V9.36812ZM1.12629 9.36812V-10.6319H-18.8737V9.36812H1.12629ZM0.72168 8.94775V-11.0522H-19.2783V8.94775H0.72168ZM4.68684 8.94775H24.6868V-11.0522H4.68684V8.94775ZM4.68684 10.5091L24.2904 14.4715L24.6868 12.5102V10.5091H4.68684ZM4.4643 -9.29071C16.4732 -9.29071 24.262 0.680193 24.262 10.5091H-15.738C-15.738 20.5382 -7.78733 30.7093 4.4643 30.7093V-9.29071ZM24.262 10.5091V9.36812H-15.738V10.5091H24.262ZM4.262 -10.6319H1.12629V29.3681H4.262V-10.6319ZM-18.8737 9.36812V10.5091H21.1263V9.36812H-18.8737ZM-18.8737 10.5091C-18.8737 -1.8852 -8.49227 -9.29071 0.923984 -9.29071V30.7093C10.5425 30.7093 21.1263 23.1436 21.1263 10.5091H-18.8737ZM0.923984 -9.29071C7.30358 -9.29071 12.062 -6.33067 14.852 -3.57003C17.6289 -0.822414 20.7217 3.97933 20.7217 10.5091H-19.2783C-19.2783 17.139 -16.1349 22.0408 -13.2822 24.8635C-10.4163 27.6992 -5.55677 30.7093 0.923984 30.7093V-9.29071ZM20.7217 10.5091V8.94775H-19.2783V10.5091H20.7217ZM0.72168 28.9478H4.68684V-11.0522H0.72168V28.9478ZM-15.3132 8.94775V10.5091H24.6868V8.94775H-15.3132ZM-14.9167 6.54669C-13.9683 1.85462 -11.5161 -1.67804 -8.9957 -4.01601C-6.5404 -6.29363 -1.96046 -9.29071 4.4643 -9.29071V30.7093C10.9902 30.7093 15.6713 27.6622 18.2075 25.3095C20.8088 22.8964 23.3218 19.2637 24.2904 14.4715L-14.9167 6.54669Z" fill="white" mask="url(#path-2-inside-1_454_3045)"/>
<path d="M4.09941 9.14802V8.22722C4.09941 8.02196 4.01433 7.83775 3.87688 7.70696C3.74623 7.58265 3.56828 7.50659 3.37112 7.50659H2.03591C2.02914 7.50659 2.0224 7.50668 2.01568 7.50686C1.81628 7.51214 1.63781 7.5953 1.50992 7.72698C1.3844 7.85623 1.30762 8.03223 1.30762 8.22722L1.30762 8.67778L1.50992 8.71185L1.71223 8.74593V8.22722C1.71223 8.06708 1.85384 7.92696 2.01568 7.92696H2.03591H3.37112C3.53296 7.92696 3.67457 8.06708 3.67457 8.22722V9.07646L3.87688 9.11054L4.09941 9.14802ZM4.09941 9.14802C4.07918 9.26813 3.97803 9.3482 3.87688 9.3482C3.75549 9.3482 3.67457 9.24811 3.67457 9.14802H3.87688H4.09941ZM1.50992 9.14802H1.71223C1.71223 9.26813 1.61107 9.3482 1.50992 9.3482C1.38854 9.3482 1.30762 9.24811 1.30762 9.14802H1.50992Z" fill="white" stroke="white" stroke-width="20"/>
<mask id="path-5-inside-2_454_3045" fill="white">
<path d="M5.1102 15.8937C4.98881 15.8937 4.90789 15.7936 4.90789 15.6935V10.9094C4.90789 10.7893 4.80674 10.6892 4.68536 10.6892H3.93683V12.811C3.93683 12.9311 3.83568 13.0112 3.73453 13.0112C3.63338 13.0112 3.53223 12.9111 3.53223 12.811V10.2888H4.70559C5.04951 10.2888 5.33273 10.5691 5.33273 10.9094V15.6735C5.3125 15.7936 5.21135 15.8937 5.1102 15.8937Z"/>
</mask>
<path d="M5.1102 15.8937C4.98881 15.8937 4.90789 15.7936 4.90789 15.6935V10.9094C4.90789 10.7893 4.80674 10.6892 4.68536 10.6892H3.93683V12.811C3.93683 12.9311 3.83568 13.0112 3.73453 13.0112C3.63338 13.0112 3.53223 12.9111 3.53223 12.811V10.2888H4.70559C5.04951 10.2888 5.33273 10.5691 5.33273 10.9094V15.6735C5.3125 15.7936 5.21135 15.8937 5.1102 15.8937Z" fill="white"/>
<path d="M3.93683 10.6892V-9.31083H-16.0632V10.6892H3.93683ZM3.53223 10.2888V-9.71118H-16.4678V10.2888H3.53223ZM5.33273 15.6735L25.0549 18.9955L25.3327 17.3461V15.6735H5.33273ZM5.1102 -4.1063C17.1191 -4.1063 24.9079 5.86461 24.9079 15.6935H-15.0921C-15.0921 25.7226 -7.14144 35.8937 5.1102 35.8937V-4.1063ZM24.9079 15.6935V10.9094H-15.0921V15.6935H24.9079ZM24.9079 10.9094C24.9079 -0.455491 15.6523 -9.31083 4.68536 -9.31083V30.6892C-6.03885 30.6892 -15.0921 22.034 -15.0921 10.9094H24.9079ZM4.68536 -9.31083H3.93683V30.6892H4.68536V-9.31083ZM-16.0632 10.6892V12.811H23.9368V10.6892H-16.0632ZM-16.0632 12.811C-16.0632 0.416704 -5.68172 -6.98881 3.73453 -6.98881V33.0112C13.3531 33.0112 23.9368 25.4455 23.9368 12.811H-16.0632ZM3.73453 -6.98881C10.1141 -6.98881 14.8726 -4.02877 17.6626 -1.26813C20.4394 1.47949 23.5322 6.28124 23.5322 12.811H-16.4678C-16.4678 19.4409 -13.3244 24.3427 -10.4717 27.1654C-7.60579 30.0011 -2.74622 33.0112 3.73453 33.0112V-6.98881ZM23.5322 12.811V10.2888H-16.4678V12.811H23.5322ZM3.53223 30.2888H4.70559V-9.71118H3.53223V30.2888ZM4.70559 30.2888C-5.79611 30.2888 -14.6673 21.8138 -14.6673 10.9094H25.3327C25.3327 -0.675653 15.8951 -9.71118 4.70559 -9.71118V30.2888ZM-14.6673 10.9094V15.6735H25.3327V10.9094H-14.6673ZM-14.3894 12.3515C-13.6659 8.05614 -11.592 4.35935 -8.81529 1.61187C-6.15758 -1.01786 -1.41563 -4.1063 5.1102 -4.1063V35.8937C11.7372 35.8937 16.5803 32.7552 19.3189 30.0454C22.1765 27.2179 24.3112 23.411 25.0549 18.9955L-14.3894 12.3515Z" fill="white" mask="url(#path-5-inside-2_454_3045)"/>
<mask id="path-7-inside-3_454_3045" fill="white">
<path d="M0.256015 19.0167C0.134633 19.0167 0.0537109 18.9166 0.0537109 18.8165V10.9096C0.0537109 10.5693 0.336936 10.2891 0.680853 10.2891H1.87445V12.8313C1.87445 12.9514 1.77329 13.0315 1.67214 13.0315C1.57099 13.0315 1.46984 12.9314 1.46984 12.8313V10.7094H0.680853C0.559471 10.7094 0.458319 10.8095 0.458319 10.9296V18.8365C0.478549 18.9366 0.377397 19.0167 0.256015 19.0167Z"/>
</mask>
<path d="M0.256015 19.0167C0.134633 19.0167 0.0537109 18.9166 0.0537109 18.8165V10.9096C0.0537109 10.5693 0.336936 10.2891 0.680853 10.2891H1.87445V12.8313C1.87445 12.9514 1.77329 13.0315 1.67214 13.0315C1.57099 13.0315 1.46984 12.9314 1.46984 12.8313V10.7094H0.680853C0.559471 10.7094 0.458319 10.8095 0.458319 10.9296V18.8365C0.478549 18.9366 0.377397 19.0167 0.256015 19.0167Z" fill="white"/>
<path d="M1.87445 10.2891H21.8744V-9.71094H1.87445V10.2891ZM1.46984 10.7094H21.4698V-9.29057H1.46984V10.7094ZM0.458319 18.8365H-19.5417V20.8376L-19.1452 22.7989L0.458319 18.8365ZM0.256015 -0.983334C12.2649 -0.983334 20.0537 8.98757 20.0537 18.8165H-19.9463C-19.9463 28.8456 -11.9956 39.0167 0.256015 39.0167V-0.983334ZM20.0537 18.8165V10.9096H-19.9463V18.8165H20.0537ZM20.0537 10.9096C20.0537 21.814 11.1826 30.2891 0.680853 30.2891V-9.71094C-10.5087 -9.71094 -19.9463 -0.675407 -19.9463 10.9096H20.0537ZM0.680853 30.2891H1.87445V-9.71094H0.680853V30.2891ZM-18.1256 10.2891V12.8313H21.8744V10.2891H-18.1256ZM-18.1256 12.8313C-18.1256 0.436964 -7.74411 -6.96855 1.67214 -6.96855V33.0315C11.2907 33.0315 21.8744 25.4658 21.8744 12.8313H-18.1256ZM1.67214 -6.96855C8.05174 -6.96855 12.8102 -4.0085 15.6002 -1.24787C18.377 1.49975 21.4698 6.3015 21.4698 12.8313H-18.5302C-18.5302 19.4611 -15.3868 24.363 -12.5341 27.1857C-9.66818 30.0214 -4.80861 33.0315 1.67214 33.0315V-6.96855ZM21.4698 12.8313V10.7094H-18.5302V12.8313H21.4698ZM1.46984 -9.29057H0.680853V30.7094H1.46984V-9.29057ZM0.680853 -9.29057C-10.2861 -9.29057 -19.5417 -0.43522 -19.5417 10.9296H20.4583C20.4583 22.0543 11.4051 30.7094 0.680853 30.7094V-9.29057ZM-19.5417 10.9296V18.8365H20.4583V10.9296H-19.5417ZM-19.1452 22.7989C-20.8378 14.4252 -16.9672 7.51928 -12.6091 3.78201C-8.56965 0.318017 -3.82792 -0.983334 0.256015 -0.983334V39.0167C4.46133 39.0167 9.31433 37.6753 13.4296 34.1462C17.8636 30.3439 21.7747 23.3479 20.0619 14.8741L-19.1452 22.7989Z" fill="white" mask="url(#path-7-inside-3_454_3045)"/>
<path d="M19.1116 7.60651C18.9902 7.60651 18.9093 7.50642 18.9093 7.40633V6.42548C18.9093 6.3509 18.8566 6.27632 18.7677 6.26644C18.7611 6.26572 18.7544 6.26534 18.7474 6.26534H16.5625C16.4816 6.26534 16.4007 6.32539 16.4007 6.42548V7.40633C16.4007 7.52644 16.2995 7.60651 16.1984 7.60651C16.077 7.60651 15.9961 7.50642 15.9961 7.40633V6.42548C15.9961 6.24901 16.0759 6.09685 16.1984 5.99578C16.2982 5.91342 16.4263 5.86499 16.5625 5.86499L18.7474 5.86499L18.7677 5.86499C18.8993 5.86499 19.0176 5.90804 19.1116 5.97933C19.2487 6.0833 19.3341 6.24735 19.3341 6.42548V7.40633C19.3341 7.50642 19.233 7.60651 19.1116 7.60651Z" fill="white" stroke="white" stroke-width="20"/>
<path d="M16.1979 11.571C16.308 11.5814 16.38 11.6758 16.38 11.7702C16.4002 11.8903 16.2991 11.9704 16.1979 11.9704H16.1777H15.1916H13.3859C13.2645 11.9704 13.1836 11.8703 13.1836 11.7702C13.1836 11.6501 13.2847 11.5701 13.3859 11.5701H16.1777C16.1846 11.5701 16.1913 11.5704 16.1979 11.571Z" fill="white" stroke="white" stroke-width="20"/>
<mask id="path-11-inside-4_454_3045" fill="white">
<path d="M8.59085 11.1497H8.16602V11.4699H8.59085V11.1497Z"/>
</mask>
<path d="M8.59085 11.1497H8.16602V11.4699H8.59085V11.1497Z" fill="white"/>
<path d="M8.16602 11.1497V-8.85034H-11.834V11.1497H8.16602ZM8.59085 11.1497H28.5909V-8.85034H8.59085V11.1497ZM8.59085 11.4699V31.4699H28.5909V11.4699H8.59085ZM8.16602 11.4699H-11.834V31.4699H8.16602V11.4699ZM8.16602 31.1497H8.59085V-8.85034H8.16602V31.1497ZM-11.4091 11.1497V11.4699H28.5909V11.1497H-11.4091ZM8.59085 -8.53006H8.16602V31.4699H8.59085V-8.53006ZM28.166 11.4699V11.1497H-11.834V11.4699H28.166Z" fill="white" mask="url(#path-11-inside-4_454_3045)"/>
<mask id="path-13-inside-5_454_3045" fill="white">
<path d="M8.59085 12.2708H8.16602V12.591H8.59085V12.2708Z"/>
</mask>
<path d="M8.59085 12.2708H8.16602V12.591H8.59085V12.2708Z" fill="white"/>
<path d="M8.16602 12.2708V-7.72925H-11.834V12.2708H8.16602ZM8.59085 12.2708H28.5909V-7.72925H8.59085V12.2708ZM8.59085 12.591V32.591H28.5909V12.591H8.59085ZM8.16602 12.591H-11.834V32.591H8.16602V12.591ZM8.16602 32.2708H8.59085V-7.72925H8.16602V32.2708ZM-11.4091 12.2708V12.591H28.5909V12.2708H-11.4091ZM8.59085 -7.40897H8.16602V32.591H8.59085V-7.40897ZM28.166 12.591V12.2708H-11.834V12.591H28.166Z" fill="white" mask="url(#path-13-inside-5_454_3045)"/>
<mask id="path-15-inside-6_454_3045" fill="white">
<path d="M8.59085 13.4119H8.16602V13.7321H8.59085V13.4119Z"/>
</mask>
<path d="M8.59085 13.4119H8.16602V13.7321H8.59085V13.4119Z" fill="white"/>
<path d="M8.16602 13.4119V-6.58813H-11.834V13.4119H8.16602ZM8.59085 13.4119H28.5909V-6.58813H8.59085V13.4119ZM8.59085 13.7321V33.7321H28.5909V13.7321H8.59085ZM8.16602 13.7321H-11.834V33.7321H8.16602V13.7321ZM8.16602 33.4119H8.59085V-6.58813H8.16602V33.4119ZM-11.4091 13.4119V13.7321H28.5909V13.4119H-11.4091ZM8.59085 -6.26786H8.16602V33.7321H8.59085V-6.26786ZM28.166 13.7321V13.4119H-11.834V13.7321H28.166Z" fill="white" mask="url(#path-15-inside-6_454_3045)"/>
<mask id="path-17-inside-7_454_3045" fill="white">
<path d="M8.59085 10.0085H8.16602V10.3288H8.59085V10.0085Z"/>
</mask>
<path d="M8.59085 10.0085H8.16602V10.3288H8.59085V10.0085Z" fill="white"/>
<path d="M8.16602 10.0085V-9.99146H-11.834V10.0085H8.16602ZM8.59085 10.0085H28.5909V-9.99146H8.59085V10.0085ZM8.59085 10.3288V30.3288H28.5909V10.3288H8.59085ZM8.16602 10.3288H-11.834V30.3288H8.16602V10.3288ZM8.16602 30.0085H8.59085V-9.99146H8.16602V30.0085ZM-11.4091 10.0085V10.3288H28.5909V10.0085H-11.4091ZM8.59085 -9.67118H8.16602V30.3288H8.59085V-9.67118ZM28.166 10.3288V10.0085H-11.834V10.3288H28.166Z" fill="white" mask="url(#path-17-inside-7_454_3045)"/>
<mask id="path-19-inside-8_454_3045" fill="white">
<path d="M10.4121 11.1497H9.9873V11.4699H10.4121V11.1497Z"/>
</mask>
<path d="M10.4121 11.1497H9.9873V11.4699H10.4121V11.1497Z" fill="white"/>
<path d="M9.9873 11.1497V-8.85034H-10.0127V11.1497H9.9873ZM10.4121 11.1497H30.4121V-8.85034H10.4121V11.1497ZM10.4121 11.4699V31.4699H30.4121V11.4699H10.4121ZM9.9873 11.4699H-10.0127V31.4699H9.9873V11.4699ZM9.9873 31.1497H10.4121V-8.85034H9.9873V31.1497ZM-9.58786 11.1497V11.4699H30.4121V11.1497H-9.58786ZM10.4121 -8.53006H9.9873V31.4699H10.4121V-8.53006ZM29.9873 11.4699V11.1497H-10.0127V11.4699H29.9873Z" fill="white" mask="url(#path-19-inside-8_454_3045)"/>
<mask id="path-21-inside-9_454_3045" fill="white">
<path d="M10.4121 12.2708H9.9873V12.591H10.4121V12.2708Z"/>
</mask>
<path d="M10.4121 12.2708H9.9873V12.591H10.4121V12.2708Z" fill="white"/>
<path d="M9.9873 12.2708V-7.72925H-10.0127V12.2708H9.9873ZM10.4121 12.2708H30.4121V-7.72925H10.4121V12.2708ZM10.4121 12.591V32.591H30.4121V12.591H10.4121ZM9.9873 12.591H-10.0127V32.591H9.9873V12.591ZM9.9873 32.2708H10.4121V-7.72925H9.9873V32.2708ZM-9.58786 12.2708V12.591H30.4121V12.2708H-9.58786ZM10.4121 -7.40897H9.9873V32.591H10.4121V-7.40897ZM29.9873 12.591V12.2708H-10.0127V12.591H29.9873Z" fill="white" mask="url(#path-21-inside-9_454_3045)"/>
<mask id="path-23-inside-10_454_3045" fill="white">
<path d="M10.4121 13.4119H9.9873V13.7321H10.4121V13.4119Z"/>
</mask>
<path d="M10.4121 13.4119H9.9873V13.7321H10.4121V13.4119Z" fill="white"/>
<path d="M9.9873 13.4119V-6.58813H-10.0127V13.4119H9.9873ZM10.4121 13.4119H30.4121V-6.58813H10.4121V13.4119ZM10.4121 13.7321V33.7321H30.4121V13.7321H10.4121ZM9.9873 13.7321H-10.0127V33.7321H9.9873V13.7321ZM9.9873 33.4119H10.4121V-6.58813H9.9873V33.4119ZM-9.58786 13.4119V13.7321H30.4121V13.4119H-9.58786ZM10.4121 -6.26786H9.9873V33.7321H10.4121V-6.26786ZM29.9873 13.7321V13.4119H-10.0127V13.7321H29.9873Z" fill="white" mask="url(#path-23-inside-10_454_3045)"/>
<mask id="path-25-inside-11_454_3045" fill="white">
<path d="M10.4121 10.0085H9.9873V10.3288H10.4121V10.0085Z"/>
</mask>
<path d="M10.4121 10.0085H9.9873V10.3288H10.4121V10.0085Z" fill="white"/>
<path d="M9.9873 10.0085V-9.99146H-10.0127V10.0085H9.9873ZM10.4121 10.0085H30.4121V-9.99146H10.4121V10.0085ZM10.4121 10.3288V30.3288H30.4121V10.3288H10.4121ZM9.9873 10.3288H-10.0127V30.3288H9.9873V10.3288ZM9.9873 30.0085H10.4121V-9.99146H9.9873V30.0085ZM-9.58786 10.0085V10.3288H30.4121V10.0085H-9.58786ZM10.4121 -9.67118H9.9873V30.3288H10.4121V-9.67118ZM29.9873 10.3288V10.0085H-10.0127V10.3288H29.9873Z" fill="white" mask="url(#path-25-inside-11_454_3045)"/>
<mask id="path-27-inside-12_454_3045" fill="white">
<path d="M12.2325 11.1497H11.8076V11.4699H12.2325V11.1497Z"/>
</mask>
<path d="M12.2325 11.1497H11.8076V11.4699H12.2325V11.1497Z" fill="white"/>
<path d="M11.8076 11.1497V-8.85034H-8.19238V11.1497H11.8076ZM12.2325 11.1497H32.2325V-8.85034H12.2325V11.1497ZM12.2325 11.4699V31.4699H32.2325V11.4699H12.2325ZM11.8076 11.4699H-8.19238V31.4699H11.8076V11.4699ZM11.8076 31.1497H12.2325V-8.85034H11.8076V31.1497ZM-7.76754 11.1497V11.4699H32.2325V11.1497H-7.76754ZM12.2325 -8.53006H11.8076V31.4699H12.2325V-8.53006ZM31.8076 11.4699V11.1497H-8.19238V11.4699H31.8076Z" fill="white" mask="url(#path-27-inside-12_454_3045)"/>
<mask id="path-29-inside-13_454_3045" fill="white">
<path d="M12.2325 12.2708H11.8076V12.591H12.2325V12.2708Z"/>
</mask>
<path d="M12.2325 12.2708H11.8076V12.591H12.2325V12.2708Z" fill="white"/>
<path d="M11.8076 12.2708V-7.72925H-8.19238V12.2708H11.8076ZM12.2325 12.2708H32.2325V-7.72925H12.2325V12.2708ZM12.2325 12.591V32.591H32.2325V12.591H12.2325ZM11.8076 12.591H-8.19238V32.591H11.8076V12.591ZM11.8076 32.2708H12.2325V-7.72925H11.8076V32.2708ZM-7.76754 12.2708V12.591H32.2325V12.2708H-7.76754ZM12.2325 -7.40897H11.8076V32.591H12.2325V-7.40897ZM31.8076 12.591V12.2708H-8.19238V12.591H31.8076Z" fill="white" mask="url(#path-29-inside-13_454_3045)"/>
<mask id="path-31-inside-14_454_3045" fill="white">
<path d="M12.2325 13.4116H11.8076V13.7319H12.2325V13.4116Z"/>
</mask>
<path d="M12.2325 13.4116H11.8076V13.7319H12.2325V13.4116Z" fill="white"/>
<path d="M11.8076 13.4116V-6.58838H-8.19238V13.4116H11.8076ZM12.2325 13.4116H32.2325V-6.58838H12.2325V13.4116ZM12.2325 13.7319V33.7319H32.2325V13.7319H12.2325ZM11.8076 13.7319H-8.19238V33.7319H11.8076V13.7319ZM11.8076 33.4116H12.2325V-6.58838H11.8076V33.4116ZM-7.76754 13.4116V13.7319H32.2325V13.4116H-7.76754ZM12.2325 -6.2681H11.8076V33.7319H12.2325V-6.2681ZM31.8076 13.7319V13.4116H-8.19238V13.7319H31.8076Z" fill="white" mask="url(#path-31-inside-14_454_3045)"/>
<mask id="path-33-inside-15_454_3045" fill="white">
<path d="M12.2325 10.0088H11.8076V10.3291H12.2325V10.0088Z"/>
</mask>
<path d="M12.2325 10.0088H11.8076V10.3291H12.2325V10.0088Z" fill="white"/>
<path d="M11.8076 10.0088V-9.99121H-8.19238V10.0088H11.8076ZM12.2325 10.0088H32.2325V-9.99121H12.2325V10.0088ZM12.2325 10.3291V30.3291H32.2325V10.3291H12.2325ZM11.8076 10.3291H-8.19238V30.3291H11.8076V10.3291ZM11.8076 30.0088H12.2325V-9.99121H11.8076V30.0088ZM-7.76754 10.0088V10.3291H32.2325V10.0088H-7.76754ZM12.2325 -9.67093H11.8076V30.3291H12.2325V-9.67093ZM31.8076 10.3291V10.0088H-8.19238V10.3291H31.8076Z" fill="white" mask="url(#path-33-inside-15_454_3045)"/>
<mask id="path-35-inside-16_454_3045" fill="white">
<path d="M8.59085 15.5337H8.16602V15.854H8.59085V15.5337Z"/>
</mask>
<path d="M8.59085 15.5337H8.16602V15.854H8.59085V15.5337Z" fill="white"/>
<path d="M8.16602 15.5337V-4.46631H-11.834V15.5337H8.16602ZM8.59085 15.5337H28.5909V-4.46631H8.59085V15.5337ZM8.59085 15.854V35.854H28.5909V15.854H8.59085ZM8.16602 15.854H-11.834V35.854H8.16602V15.854ZM8.16602 35.5337H8.59085V-4.46631H8.16602V35.5337ZM-11.4091 15.5337V15.854H28.5909V15.5337H-11.4091ZM8.59085 -4.14603H8.16602V35.854H8.59085V-4.14603ZM28.166 15.854V15.5337H-11.834V15.854H28.166Z" fill="white" mask="url(#path-35-inside-16_454_3045)"/>
<mask id="path-37-inside-17_454_3045" fill="white">
<path d="M8.59085 16.6545H8.16602V16.9748H8.59085V16.6545Z"/>
</mask>
<path d="M8.59085 16.6545H8.16602V16.9748H8.59085V16.6545Z" fill="white"/>
<path d="M8.16602 16.6545V-3.34546H-11.834V16.6545H8.16602ZM8.59085 16.6545H28.5909V-3.34546H8.59085V16.6545ZM8.59085 16.9748V36.9748H28.5909V16.9748H8.59085ZM8.16602 16.9748H-11.834V36.9748H8.16602V16.9748ZM8.16602 36.6545H8.59085V-3.34546H8.16602V36.6545ZM-11.4091 16.6545V16.9748H28.5909V16.6545H-11.4091ZM8.59085 -3.02518H8.16602V36.9748H8.59085V-3.02518ZM28.166 16.9748V16.6545H-11.834V16.9748H28.166Z" fill="white" mask="url(#path-37-inside-17_454_3045)"/>
<mask id="path-39-inside-18_454_3045" fill="white">
<path d="M8.59085 17.7957H8.16602V18.1159H8.59085V17.7957Z"/>
</mask>
<path d="M8.59085 17.7957H8.16602V18.1159H8.59085V17.7957Z" fill="white"/>
<path d="M8.16602 17.7957V-2.20435H-11.834V17.7957H8.16602ZM8.59085 17.7957H28.5909V-2.20435H8.59085V17.7957ZM8.59085 18.1159V38.1159H28.5909V18.1159H8.59085ZM8.16602 18.1159H-11.834V38.1159H8.16602V18.1159ZM8.16602 37.7957H8.59085V-2.20435H8.16602V37.7957ZM-11.4091 17.7957V18.1159H28.5909V17.7957H-11.4091ZM8.59085 -1.88407H8.16602V38.1159H8.59085V-1.88407ZM28.166 18.1159V17.7957H-11.834V18.1159H28.166Z" fill="white" mask="url(#path-39-inside-18_454_3045)"/>
<mask id="path-41-inside-19_454_3045" fill="white">
<path d="M8.59085 14.3926H8.16602V14.7129H8.59085V14.3926Z"/>
</mask>
<path d="M8.59085 14.3926H8.16602V14.7129H8.59085V14.3926Z" fill="white"/>
<path d="M8.16602 14.3926V-5.60742H-11.834V14.3926H8.16602ZM8.59085 14.3926H28.5909V-5.60742H8.59085V14.3926ZM8.59085 14.7129V34.7129H28.5909V14.7129H8.59085ZM8.16602 14.7129H-11.834V34.7129H8.16602V14.7129ZM8.16602 34.3926H8.59085V-5.60742H8.16602V34.3926ZM-11.4091 14.3926V14.7129H28.5909V14.3926H-11.4091ZM8.59085 -5.28714H8.16602V34.7129H8.59085V-5.28714ZM28.166 14.7129V14.3926H-11.834V14.7129H28.166Z" fill="white" mask="url(#path-41-inside-19_454_3045)"/>
<mask id="path-43-inside-20_454_3045" fill="white">
<path d="M17.876 11.1497H17.4512V11.4699H17.876V11.1497Z"/>
</mask>
<path d="M17.876 11.1497H17.4512V11.4699H17.876V11.1497Z" fill="white"/>
<path d="M17.4512 11.1497V-8.85034H-2.54883V11.1497H17.4512ZM17.876 11.1497H37.876V-8.85034H17.876V11.1497ZM17.876 11.4699V31.4699H37.876V11.4699H17.876ZM17.4512 11.4699H-2.54883V31.4699H17.4512V11.4699ZM17.4512 31.1497H17.876V-8.85034H17.4512V31.1497ZM-2.12399 11.1497V11.4699H37.876V11.1497H-2.12399ZM17.876 -8.53006H17.4512V31.4699H17.876V-8.53006ZM37.4512 11.4699V11.1497H-2.54883V11.4699H37.4512Z" fill="white" mask="url(#path-43-inside-20_454_3045)"/>
<mask id="path-45-inside-21_454_3045" fill="white">
<path d="M17.876 12.2708H17.4512V12.591H17.876V12.2708Z"/>
</mask>
<path d="M17.876 12.2708H17.4512V12.591H17.876V12.2708Z" fill="white"/>
<path d="M17.4512 12.2708V-7.72925H-2.54883V12.2708H17.4512ZM17.876 12.2708H37.876V-7.72925H17.876V12.2708ZM17.876 12.591V32.591H37.876V12.591H17.876ZM17.4512 12.591H-2.54883V32.591H17.4512V12.591ZM17.4512 32.2708H17.876V-7.72925H17.4512V32.2708ZM-2.12399 12.2708V12.591H37.876V12.2708H-2.12399ZM17.876 -7.40897H17.4512V32.591H17.876V-7.40897ZM37.4512 12.591V12.2708H-2.54883V12.591H37.4512Z" fill="white" mask="url(#path-45-inside-21_454_3045)"/>
<mask id="path-47-inside-22_454_3045" fill="white">
<path d="M17.876 13.4116H17.4512V13.7319H17.876V13.4116Z"/>
</mask>
<path d="M17.876 13.4116H17.4512V13.7319H17.876V13.4116Z" fill="white"/>
<path d="M17.4512 13.4116V-6.58838H-2.54883V13.4116H17.4512ZM17.876 13.4116H37.876V-6.58838H17.876V13.4116ZM17.876 13.7319V33.7319H37.876V13.7319H17.876ZM17.4512 13.7319H-2.54883V33.7319H17.4512V13.7319ZM17.4512 33.4116H17.876V-6.58838H17.4512V33.4116ZM-2.12399 13.4116V13.7319H37.876V13.4116H-2.12399ZM17.876 -6.2681H17.4512V33.7319H17.876V-6.2681ZM37.4512 13.7319V13.4116H-2.54883V13.7319H37.4512Z" fill="white" mask="url(#path-47-inside-22_454_3045)"/>
<mask id="path-49-inside-23_454_3045" fill="white">
<path d="M17.876 10.0088H17.4512V10.3291H17.876V10.0088Z"/>
</mask>
<path d="M17.876 10.0088H17.4512V10.3291H17.876V10.0088Z" fill="white"/>
<path d="M17.4512 10.0088V-9.99121H-2.54883V10.0088H17.4512ZM17.876 10.0088H37.876V-9.99121H17.876V10.0088ZM17.876 10.3291V30.3291H37.876V10.3291H17.876ZM17.4512 10.3291H-2.54883V30.3291H17.4512V10.3291ZM17.4512 30.0088H17.876V-9.99121H17.4512V30.0088ZM-2.12399 10.0088V10.3291H37.876V10.0088H-2.12399ZM17.876 -9.67093H17.4512V30.3291H17.876V-9.67093ZM37.4512 10.3291V10.0088H-2.54883V10.3291H37.4512Z" fill="white" mask="url(#path-49-inside-23_454_3045)"/>
<mask id="path-51-inside-24_454_3045" fill="white">
<path d="M17.876 15.5334H17.4512V15.8537H17.876V15.5334Z"/>
</mask>
<path d="M17.876 15.5334H17.4512V15.8537H17.876V15.5334Z" fill="white"/>
<path d="M17.4512 15.5334V-4.46655H-2.54883V15.5334H17.4512ZM17.876 15.5334H37.876V-4.46655H17.876V15.5334ZM17.876 15.8537V35.8537H37.876V15.8537H17.876ZM17.4512 15.8537H-2.54883V35.8537H17.4512V15.8537ZM17.4512 35.5334H17.876V-4.46655H17.4512V35.5334ZM-2.12399 15.5334V15.8537H37.876V15.5334H-2.12399ZM17.876 -4.14627H17.4512V35.8537H17.876V-4.14627ZM37.4512 15.8537V15.5334H-2.54883V15.8537H37.4512Z" fill="white" mask="url(#path-51-inside-24_454_3045)"/>
<mask id="path-53-inside-25_454_3045" fill="white">
<path d="M17.876 16.6545H17.4512V16.9748H17.876V16.6545Z"/>
</mask>
<path d="M17.876 16.6545H17.4512V16.9748H17.876V16.6545Z" fill="white"/>
<path d="M17.4512 16.6545V-3.34546H-2.54883V16.6545H17.4512ZM17.876 16.6545H37.876V-3.34546H17.876V16.6545ZM17.876 16.9748V36.9748H37.876V16.9748H17.876ZM17.4512 16.9748H-2.54883V36.9748H17.4512V16.9748ZM17.4512 36.6545H17.876V-3.34546H17.4512V36.6545ZM-2.12399 16.6545V16.9748H37.876V16.6545H-2.12399ZM17.876 -3.02518H17.4512V36.9748H17.876V-3.02518ZM37.4512 16.9748V16.6545H-2.54883V16.9748H37.4512Z" fill="white" mask="url(#path-53-inside-25_454_3045)"/>
<mask id="path-55-inside-26_454_3045" fill="white">
<path d="M17.876 17.7954H17.4512V18.1157H17.876V17.7954Z"/>
</mask>
<path d="M17.876 17.7954H17.4512V18.1157H17.876V17.7954Z" fill="white"/>
<path d="M17.4512 17.7954V-2.20459H-2.54883V17.7954H17.4512ZM17.876 17.7954H37.876V-2.20459H17.876V17.7954ZM17.876 18.1157V38.1157H37.876V18.1157H17.876ZM17.4512 18.1157H-2.54883V38.1157H17.4512V18.1157ZM17.4512 37.7954H17.876V-2.20459H17.4512V37.7954ZM-2.12399 17.7954V18.1157H37.876V17.7954H-2.12399ZM17.876 -1.88431H17.4512V38.1157H17.876V-1.88431ZM37.4512 18.1157V17.7954H-2.54883V18.1157H37.4512Z" fill="white" mask="url(#path-55-inside-26_454_3045)"/>
<mask id="path-57-inside-27_454_3045" fill="white">
<path d="M17.876 14.3926H17.4512V14.7129H17.876V14.3926Z"/>
</mask>
<path d="M17.876 14.3926H17.4512V14.7129H17.876V14.3926Z" fill="white"/>
<path d="M17.4512 14.3926V-5.60742H-2.54883V14.3926H17.4512ZM17.876 14.3926H37.876V-5.60742H17.876V14.3926ZM17.876 14.7129V34.7129H37.876V14.7129H17.876ZM17.4512 14.7129H-2.54883V34.7129H17.4512V14.7129ZM17.4512 34.3926H17.876V-5.60742H17.4512V34.3926ZM-2.12399 14.3926V14.7129H37.876V14.3926H-2.12399ZM17.876 -5.28714H17.4512V34.7129H17.876V-5.28714ZM37.4512 14.7129V14.3926H-2.54883V14.7129H37.4512Z" fill="white" mask="url(#path-57-inside-27_454_3045)"/>
<mask id="path-59-inside-28_454_3045" fill="white">
<path d="M15.0049 14.5728H14.5801V14.893H15.0049V14.5728Z"/>
</mask>
<path d="M15.0049 14.5728H14.5801V14.893H15.0049V14.5728Z" fill="white"/>
<path d="M14.5801 14.5728V-5.42725H-5.41992V14.5728H14.5801ZM15.0049 14.5728H35.0049V-5.42725H15.0049V14.5728ZM15.0049 14.893V34.893H35.0049V14.893H15.0049ZM14.5801 14.893H-5.41992V34.893H14.5801V14.893ZM14.5801 34.5728H15.0049V-5.42725H14.5801V34.5728ZM-4.99508 14.5728V14.893H35.0049V14.5728H-4.99508ZM15.0049 -5.10697H14.5801V34.893H15.0049V-5.10697ZM34.5801 14.893V14.5728H-5.41992V14.893H34.5801Z" fill="white" mask="url(#path-59-inside-28_454_3045)"/>
<mask id="path-61-inside-29_454_3045" fill="white">
<path d="M15.0049 15.6936H14.5801V16.0139H15.0049V15.6936Z"/>
</mask>
<path d="M15.0049 15.6936H14.5801V16.0139H15.0049V15.6936Z" fill="white"/>
<path d="M14.5801 15.6936V-4.3064H-5.41992V15.6936H14.5801ZM15.0049 15.6936H35.0049V-4.3064H15.0049V15.6936ZM15.0049 16.0139V36.0139H35.0049V16.0139H15.0049ZM14.5801 16.0139H-5.41992V36.0139H14.5801V16.0139ZM14.5801 35.6936H15.0049V-4.3064H14.5801V35.6936ZM-4.99508 15.6936V16.0139H35.0049V15.6936H-4.99508ZM15.0049 -3.98612H14.5801V36.0139H15.0049V-3.98612ZM34.5801 16.0139V15.6936H-5.41992V16.0139H34.5801Z" fill="white" mask="url(#path-61-inside-29_454_3045)"/>
<mask id="path-63-inside-30_454_3045" fill="white">
<path d="M15.0049 16.8347H14.5801V17.155H15.0049V16.8347Z"/>
</mask>
<path d="M15.0049 16.8347H14.5801V17.155H15.0049V16.8347Z" fill="white"/>
<path d="M14.5801 16.8347V-3.16528H-5.41992V16.8347H14.5801ZM15.0049 16.8347H35.0049V-3.16528H15.0049V16.8347ZM15.0049 17.155V37.155H35.0049V17.155H15.0049ZM14.5801 17.155H-5.41992V37.155H14.5801V17.155ZM14.5801 36.8347H15.0049V-3.16528H14.5801V36.8347ZM-4.99508 16.8347V17.155H35.0049V16.8347H-4.99508ZM15.0049 -2.84501H14.5801V37.155H15.0049V-2.84501ZM34.5801 17.155V16.8347H-5.41992V17.155H34.5801Z" fill="white" mask="url(#path-63-inside-30_454_3045)"/>
<mask id="path-65-inside-31_454_3045" fill="white">
<path d="M15.0049 13.4319H14.5801V13.7522H15.0049V13.4319Z"/>
</mask>
<path d="M15.0049 13.4319H14.5801V13.7522H15.0049V13.4319Z" fill="white"/>
<path d="M14.5801 13.4319V-6.56812H-5.41992V13.4319H14.5801ZM15.0049 13.4319H35.0049V-6.56812H15.0049V13.4319ZM15.0049 13.7522V33.7522H35.0049V13.7522H15.0049ZM14.5801 13.7522H-5.41992V33.7522H14.5801V13.7522ZM14.5801 33.4319H15.0049V-6.56812H14.5801V33.4319ZM-4.99508 13.4319V13.7522H35.0049V13.4319H-4.99508ZM15.0049 -6.24784H14.5801V33.7522H15.0049V-6.24784ZM34.5801 13.7522V13.4319H-5.41992V13.7522H34.5801Z" fill="white" mask="url(#path-65-inside-31_454_3045)"/>
<mask id="path-67-inside-32_454_3045" fill="white">
<path d="M2.90531 14.1924H2.48047V14.5127H2.90531V14.1924Z"/>
</mask>
<path d="M2.90531 14.1924H2.48047V14.5127H2.90531V14.1924Z" fill="white"/>
<path d="M2.48047 14.1924V-5.80762H-17.5195V14.1924H2.48047ZM2.90531 14.1924H22.9053V-5.80762H2.90531V14.1924ZM2.90531 14.5127V34.5127H22.9053V14.5127H2.90531ZM2.48047 14.5127H-17.5195V34.5127H2.48047V14.5127ZM2.48047 34.1924H2.90531V-5.80762H2.48047V34.1924ZM-17.0947 14.1924V14.5127H22.9053V14.1924H-17.0947ZM2.90531 -5.48734H2.48047V34.5127H2.90531V-5.48734ZM22.4805 14.5127V14.1924H-17.5195V14.5127H22.4805Z" fill="white" mask="url(#path-67-inside-32_454_3045)"/>
<mask id="path-69-inside-33_454_3045" fill="white">
<path d="M2.90531 15.3135H2.48047V15.6338H2.90531V15.3135Z"/>
</mask>
<path d="M2.90531 15.3135H2.48047V15.6338H2.90531V15.3135Z" fill="white"/>
<path d="M2.48047 15.3135V-4.68652H-17.5195V15.3135H2.48047ZM2.90531 15.3135H22.9053V-4.68652H2.90531V15.3135ZM2.90531 15.6338V35.6338H22.9053V15.6338H2.90531ZM2.48047 15.6338H-17.5195V35.6338H2.48047V15.6338ZM2.48047 35.3135H2.90531V-4.68652H2.48047V35.3135ZM-17.0947 15.3135V15.6338H22.9053V15.3135H-17.0947ZM2.90531 -4.36625H2.48047V35.6338H2.90531V-4.36625ZM22.4805 15.6338V15.3135H-17.5195V15.6338H22.4805Z" fill="white" mask="url(#path-69-inside-33_454_3045)"/>
<mask id="path-71-inside-34_454_3045" fill="white">
<path d="M2.90531 16.4543H2.48047V16.7746H2.90531V16.4543Z"/>
</mask>
<path d="M2.90531 16.4543H2.48047V16.7746H2.90531V16.4543Z" fill="white"/>
<path d="M2.48047 16.4543V-3.54565H-17.5195V16.4543H2.48047ZM2.90531 16.4543H22.9053V-3.54565H2.90531V16.4543ZM2.90531 16.7746V36.7746H22.9053V16.7746H2.90531ZM2.48047 16.7746H-17.5195V36.7746H2.48047V16.7746ZM2.48047 36.4543H2.90531V-3.54565H2.48047V36.4543ZM-17.0947 16.4543V16.7746H22.9053V16.4543H-17.0947ZM2.90531 -3.22537H2.48047V36.7746H2.90531V-3.22537ZM22.4805 16.7746V16.4543H-17.5195V16.7746H22.4805Z" fill="white" mask="url(#path-71-inside-34_454_3045)"/>
<mask id="path-73-inside-35_454_3045" fill="white">
<path d="M2.90531 13.0515H2.48047V13.3718H2.90531V13.0515Z"/>
</mask>
<path d="M2.90531 13.0515H2.48047V13.3718H2.90531V13.0515Z" fill="white"/>
<path d="M2.48047 13.0515V-6.94849H-17.5195V13.0515H2.48047ZM2.90531 13.0515H22.9053V-6.94849H2.90531V13.0515ZM2.90531 13.3718V33.3718H22.9053V13.3718H2.90531ZM2.48047 13.3718H-17.5195V33.3718H2.48047V13.3718ZM2.48047 33.0515H2.90531V-6.94849H2.48047V33.0515ZM-17.0947 13.0515V13.3718H22.9053V13.0515H-17.0947ZM2.90531 -6.62821H2.48047V33.3718H2.90531V-6.62821ZM22.4805 13.3718V13.0515H-17.5195V13.3718H22.4805Z" fill="white" mask="url(#path-73-inside-35_454_3045)"/>
<mask id="path-75-inside-36_454_3045" fill="white">
<path d="M5.4346 17.7354H5.00977V18.0556H5.4346V17.7354Z"/>
</mask>
<path d="M5.4346 17.7354H5.00977V18.0556H5.4346V17.7354Z" fill="white"/>
<path d="M5.00977 17.7354V-2.26465H-14.9902V17.7354H5.00977ZM5.4346 17.7354H25.4346V-2.26465H5.4346V17.7354ZM5.4346 18.0556V38.0556H25.4346V18.0556H5.4346ZM5.00977 18.0556H-14.9902V38.0556H5.00977V18.0556ZM5.00977 37.7354H5.4346V-2.26465H5.00977V37.7354ZM-14.5654 17.7354V18.0556H25.4346V17.7354H-14.5654ZM5.4346 -1.94437H5.00977V38.0556H5.4346V-1.94437ZM25.0098 18.0556V17.7354H-14.9902V18.0556H25.0098Z" fill="white" mask="url(#path-75-inside-36_454_3045)"/>
<mask id="path-77-inside-37_454_3045" fill="white">
<path d="M5.4346 16.6145H5.00977V16.9348H5.4346V16.6145Z"/>
</mask>
<path d="M5.4346 16.6145H5.00977V16.9348H5.4346V16.6145Z" fill="white"/>
<path d="M5.00977 16.6145V-3.3855H-14.9902V16.6145H5.00977ZM5.4346 16.6145H25.4346V-3.3855H5.4346V16.6145ZM5.4346 16.9348V36.9348H25.4346V16.9348H5.4346ZM5.00977 16.9348H-14.9902V36.9348H5.00977V16.9348ZM5.00977 36.6145H5.4346V-3.3855H5.00977V36.6145ZM-14.5654 16.6145V16.9348H25.4346V16.6145H-14.5654ZM5.4346 -3.06522H5.00977V36.9348H5.4346V-3.06522ZM25.0098 16.9348V16.6145H-14.9902V16.9348H25.0098Z" fill="white" mask="url(#path-77-inside-37_454_3045)"/>
<mask id="path-79-inside-38_454_3045" fill="white">
<path d="M10.4121 15.5337H9.9873V15.854H10.4121V15.5337Z"/>
</mask>
<path d="M10.4121 15.5337H9.9873V15.854H10.4121V15.5337Z" fill="white"/>
<path d="M9.9873 15.5337V-4.46631H-10.0127V15.5337H9.9873ZM10.4121 15.5337H30.4121V-4.46631H10.4121V15.5337ZM10.4121 15.854V35.854H30.4121V15.854H10.4121ZM9.9873 15.854H-10.0127V35.854H9.9873V15.854ZM9.9873 35.5337H10.4121V-4.46631H9.9873V35.5337ZM-9.58786 15.5337V15.854H30.4121V15.5337H-9.58786ZM10.4121 -4.14603H9.9873V35.854H10.4121V-4.14603ZM29.9873 15.854V15.5337H-10.0127V15.854H29.9873Z" fill="white" mask="url(#path-79-inside-38_454_3045)"/>
<mask id="path-81-inside-39_454_3045" fill="white">
<path d="M10.4121 16.6545H9.9873V16.9748H10.4121V16.6545Z"/>
</mask>
<path d="M10.4121 16.6545H9.9873V16.9748H10.4121V16.6545Z" fill="white"/>
<path d="M9.9873 16.6545V-3.34546H-10.0127V16.6545H9.9873ZM10.4121 16.6545H30.4121V-3.34546H10.4121V16.6545ZM10.4121 16.9748V36.9748H30.4121V16.9748H10.4121ZM9.9873 16.9748H-10.0127V36.9748H9.9873V16.9748ZM9.9873 36.6545H10.4121V-3.34546H9.9873V36.6545ZM-9.58786 16.6545V16.9748H30.4121V16.6545H-9.58786ZM10.4121 -3.02518H9.9873V36.9748H10.4121V-3.02518ZM29.9873 16.9748V16.6545H-10.0127V16.9748H29.9873Z" fill="white" mask="url(#path-81-inside-39_454_3045)"/>
<mask id="path-83-inside-40_454_3045" fill="white">
<path d="M10.4121 17.7957H9.9873V18.1159H10.4121V17.7957Z"/>
</mask>
<path d="M10.4121 17.7957H9.9873V18.1159H10.4121V17.7957Z" fill="white"/>
<path d="M9.9873 17.7957V-2.20435H-10.0127V17.7957H9.9873ZM10.4121 17.7957H30.4121V-2.20435H10.4121V17.7957ZM10.4121 18.1159V38.1159H30.4121V18.1159H10.4121ZM9.9873 18.1159H-10.0127V38.1159H9.9873V18.1159ZM9.9873 37.7957H10.4121V-2.20435H9.9873V37.7957ZM-9.58786 17.7957V18.1159H30.4121V17.7957H-9.58786ZM10.4121 -1.88407H9.9873V38.1159H10.4121V-1.88407ZM29.9873 18.1159V17.7957H-10.0127V18.1159H29.9873Z" fill="white" mask="url(#path-83-inside-40_454_3045)"/>
<mask id="path-85-inside-41_454_3045" fill="white">
<path d="M10.4121 14.3926H9.9873V14.7129H10.4121V14.3926Z"/>
</mask>
<path d="M10.4121 14.3926H9.9873V14.7129H10.4121V14.3926Z" fill="white"/>
<path d="M9.9873 14.3926V-5.60742H-10.0127V14.3926H9.9873ZM10.4121 14.3926H30.4121V-5.60742H10.4121V14.3926ZM10.4121 14.7129V34.7129H30.4121V14.7129H10.4121ZM9.9873 14.7129H-10.0127V34.7129H9.9873V14.7129ZM9.9873 34.3926H10.4121V-5.60742H9.9873V34.3926ZM-9.58786 14.3926V14.7129H30.4121V14.3926H-9.58786ZM10.4121 -5.28714H9.9873V34.7129H10.4121V-5.28714ZM29.9873 14.7129V14.3926H-10.0127V14.7129H29.9873Z" fill="white" mask="url(#path-85-inside-41_454_3045)"/>
<mask id="path-87-inside-42_454_3045" fill="white">
<path d="M12.2325 15.5334H11.8076V15.8537H12.2325V15.5334Z"/>
</mask>
<path d="M12.2325 15.5334H11.8076V15.8537H12.2325V15.5334Z" fill="white"/>
<path d="M11.8076 15.5334V-4.46655H-8.19238V15.5334H11.8076ZM12.2325 15.5334H32.2325V-4.46655H12.2325V15.5334ZM12.2325 15.8537V35.8537H32.2325V15.8537H12.2325ZM11.8076 15.8537H-8.19238V35.8537H11.8076V15.8537ZM11.8076 35.5334H12.2325V-4.46655H11.8076V35.5334ZM-7.76754 15.5334V15.8537H32.2325V15.5334H-7.76754ZM12.2325 -4.14627H11.8076V35.8537H12.2325V-4.14627ZM31.8076 15.8537V15.5334H-8.19238V15.8537H31.8076Z" fill="white" mask="url(#path-87-inside-42_454_3045)"/>
<mask id="path-89-inside-43_454_3045" fill="white">
<path d="M12.2325 16.6545H11.8076V16.9748H12.2325V16.6545Z"/>
</mask>
<path d="M12.2325 16.6545H11.8076V16.9748H12.2325V16.6545Z" fill="white"/>
<path d="M11.8076 16.6545V-3.34546H-8.19238V16.6545H11.8076ZM12.2325 16.6545H32.2325V-3.34546H12.2325V16.6545ZM12.2325 16.9748V36.9748H32.2325V16.9748H12.2325ZM11.8076 16.9748H-8.19238V36.9748H11.8076V16.9748ZM11.8076 36.6545H12.2325V-3.34546H11.8076V36.6545ZM-7.76754 16.6545V16.9748H32.2325V16.6545H-7.76754ZM12.2325 -3.02518H11.8076V36.9748H12.2325V-3.02518ZM31.8076 16.9748V16.6545H-8.19238V16.9748H31.8076Z" fill="white" mask="url(#path-89-inside-43_454_3045)"/>
<mask id="path-91-inside-44_454_3045" fill="white">
<path d="M12.2325 17.7954H11.8076V18.1157H12.2325V17.7954Z"/>
</mask>
<path d="M12.2325 17.7954H11.8076V18.1157H12.2325V17.7954Z" fill="white"/>
<path d="M11.8076 17.7954V-2.20459H-8.19238V17.7954H11.8076ZM12.2325 17.7954H32.2325V-2.20459H12.2325V17.7954ZM12.2325 18.1157V38.1157H32.2325V18.1157H12.2325ZM11.8076 18.1157H-8.19238V38.1157H11.8076V18.1157ZM11.8076 37.7954H12.2325V-2.20459H11.8076V37.7954ZM-7.76754 17.7954V18.1157H32.2325V17.7954H-7.76754ZM12.2325 -1.88431H11.8076V38.1157H12.2325V-1.88431ZM31.8076 18.1157V17.7954H-8.19238V18.1157H31.8076Z" fill="white" mask="url(#path-91-inside-44_454_3045)"/>
<mask id="path-93-inside-45_454_3045" fill="white">
<path d="M12.2325 14.3926H11.8076V14.7129H12.2325V14.3926Z"/>
</mask>
<path d="M12.2325 14.3926H11.8076V14.7129H12.2325V14.3926Z" fill="white"/>
<path d="M11.8076 14.3926V-5.60742H-8.19238V14.3926H11.8076ZM12.2325 14.3926H32.2325V-5.60742H12.2325V14.3926ZM12.2325 14.7129V34.7129H32.2325V14.7129H12.2325ZM11.8076 14.7129H-8.19238V34.7129H11.8076V14.7129ZM11.8076 34.3926H12.2325V-5.60742H11.8076V34.3926ZM-7.76754 14.3926V14.7129H32.2325V14.3926H-7.76754ZM12.2325 -5.28714H11.8076V34.7129H12.2325V-5.28714ZM31.8076 14.7129V14.3926H-8.19238V14.7129H31.8076Z" fill="white" mask="url(#path-93-inside-45_454_3045)"/>
<mask id="path-95-inside-46_454_3045" fill="white">
<path d="M13.3864 19.0166C13.265 19.0166 13.1841 18.9165 13.1841 18.8164V1.02089L12.5367 0.800698C11.0397 0.280244 9.36055 0.280244 7.8635 0.800698L7.21613 1.02089V18.7964C7.21613 18.9165 7.11498 18.9966 7.01383 18.9966C6.89244 18.9966 6.81152 18.8965 6.81152 18.7964V0.740645L7.74212 0.420366C9.34032 -0.140122 11.1004 -0.140122 12.6986 0.420366L13.6089 0.740645V18.8164C13.6089 18.9165 13.5078 19.0166 13.3864 19.0166Z"/>
</mask>
<path d="M13.3864 19.0166C13.265 19.0166 13.1841 18.9165 13.1841 18.8164V1.02089L12.5367 0.800698C11.0397 0.280244 9.36055 0.280244 7.8635 0.800698L7.21613 1.02089V18.7964C7.21613 18.9165 7.11498 18.9966 7.01383 18.9966C6.89244 18.9966 6.81152 18.8965 6.81152 18.7964V0.740645L7.74212 0.420366C9.34032 -0.140122 11.1004 -0.140122 12.6986 0.420366L13.6089 0.740645V18.8164C13.6089 18.9165 13.5078 19.0166 13.3864 19.0166Z" fill="white"/>
<path d="M13.1841 1.02089H33.1841V-13.3017L19.6244 -17.9138L13.1841 1.02089ZM12.5367 0.800698L5.96923 19.6916L6.03276 19.7137L6.09644 19.7354L12.5367 0.800698ZM7.8635 0.800698L14.3038 19.7354L14.3675 19.7137L14.431 19.6916L7.8635 0.800698ZM7.21613 1.02089L0.775838 -17.9138L-12.7839 -13.3017V1.02089H7.21613ZM6.81152 0.740645L0.302912 -18.1707L-13.1885 -13.5274V0.740645H6.81152ZM7.74212 0.420366L14.2507 19.3317L14.3059 19.3127L14.3609 19.2934L7.74212 0.420366ZM12.6986 0.420366L19.336 -18.4461L19.3267 -18.4494L19.3173 -18.4527L12.6986 0.420366ZM13.6089 0.740645H33.6089V-13.4247L20.2464 -18.1258L13.6089 0.740645ZM13.3864 -0.983431C25.3953 -0.983431 33.1841 8.98747 33.1841 18.8164H-6.8159C-6.8159 28.8455 1.13476 39.0166 13.3864 39.0166V-0.983431ZM33.1841 18.8164V1.02089H-6.8159V18.8164H33.1841ZM19.6244 -17.9138L18.977 -18.134L6.09644 19.7354L6.74381 19.9556L19.6244 -17.9138ZM19.1042 -18.0903C13.3537 -20.0894 7.04653 -20.0894 1.29601 -18.0903L14.431 19.6916C11.6746 20.6499 8.72565 20.6499 5.96923 19.6916L19.1042 -18.0903ZM1.42321 -18.134L0.775838 -17.9138L13.6564 19.9556L14.3038 19.7354L1.42321 -18.134ZM-12.7839 1.02089V18.7964H27.2161V1.02089H-12.7839ZM-12.7839 18.7964C-12.7839 6.40207 -2.40243 -1.00345 7.01383 -1.00345V38.9966C16.6324 38.9966 27.2161 31.4309 27.2161 18.7964H-12.7839ZM7.01383 -1.00345C19.0227 -1.00345 26.8115 8.96746 26.8115 18.7964H-13.1885C-13.1885 28.8255 -5.23781 38.9966 7.01383 38.9966V-1.00345ZM26.8115 18.7964V0.740645H-13.1885V18.7964H26.8115ZM13.3201 19.652L14.2507 19.3317L1.23351 -18.491L0.302912 -18.1707L13.3201 19.652ZM14.3609 19.2934C11.6745 20.2355 8.76619 20.2355 6.0798 19.2934L19.3173 -18.4527C13.4345 -20.5158 7.00614 -20.5158 1.12335 -18.4527L14.3609 19.2934ZM6.0611 19.2868L6.97147 19.6071L20.2464 -18.1258L19.336 -18.4461L6.0611 19.2868ZM-6.39107 0.740645V18.8164H33.6089V0.740645H-6.39107ZM-6.39107 18.8164C-6.39107 12.1861 -3.20106 7.20648 -0.0584483 4.29129C3.23239 1.23859 7.92288 -0.983431 13.3864 -0.983431V39.0166C18.9713 39.0166 23.7731 36.7445 27.1448 33.6167C30.3684 30.6265 33.6089 25.5467 33.6089 18.8164H-6.39107Z" fill="white" mask="url(#path-95-inside-46_454_3045)"/>
<path d="M12.1552 1.38824C12.1613 1.39019 12.1674 1.39215 12.1734 1.39412L12.1529 1.39542L10.4786 1.50118H10.4458C10.3669 1.49794 10.288 1.49628 10.2092 1.49618C10.1252 1.49607 10.0414 1.49774 9.95758 1.50118H9.91948L8.26369 1.39659L8.223 1.39402C8.23501 1.39008 8.24703 1.38617 8.25906 1.38231C8.88994 1.1795 9.54859 1.07901 10.2092 1.08084C10.8644 1.08265 11.5214 1.18512 12.1552 1.38824Z" fill="white" stroke="white" stroke-width="20"/>
<path d="M2.68277 7.92676C2.56139 7.92676 2.48047 7.82667 2.48047 7.72658V7.70657V5.78489C2.48047 5.66479 2.58162 5.58472 2.68277 5.58472C2.80416 5.58472 2.88508 5.6848 2.88508 5.78489V7.70657C2.88508 7.71331 2.88482 7.71998 2.88432 7.72658C2.87587 7.83759 2.79734 7.92676 2.68277 7.92676Z" fill="white" stroke="white" stroke-width="20"/>
<path d="M16.1984 19.0166C16.077 19.0166 15.9961 18.9165 15.9961 18.8164V11.7702C15.9961 11.6501 16.0972 11.5701 16.1984 11.5701C16.3198 11.5701 16.4007 11.6702 16.4007 11.7702V18.8164C16.4007 18.9165 16.2995 19.0166 16.1984 19.0166Z" fill="white" stroke="white" stroke-width="20"/>
<mask id="path-100-inside-47_454_3045" fill="white">
<path d="M3.715 19.0165C3.59362 19.0165 3.5127 18.9164 3.5127 18.8163V15.4734H7.01255C7.13394 15.4734 7.21486 15.5735 7.21486 15.6736C7.21486 15.7937 7.11371 15.8737 7.01255 15.8737H3.9173V18.7963C3.9173 18.9364 3.83638 19.0165 3.715 19.0165Z"/>
</mask>
<path d="M3.715 19.0165C3.59362 19.0165 3.5127 18.9164 3.5127 18.8163V15.4734H7.01255C7.13394 15.4734 7.21486 15.5735 7.21486 15.6736C7.21486 15.7937 7.11371 15.8737 7.01255 15.8737H3.9173V18.7963C3.9173 18.9364 3.83638 19.0165 3.715 19.0165Z" fill="white"/>
<path d="M3.5127 15.4734V-4.52661H-16.4873V15.4734H3.5127ZM3.9173 15.8737V-4.12626H-16.0827V15.8737H3.9173ZM3.715 -0.983524C15.7239 -0.983524 23.5127 8.98738 23.5127 18.8163H-16.4873C-16.4873 28.8454 -8.53664 39.0165 3.715 39.0165V-0.983524ZM23.5127 18.8163V15.4734H-16.4873V18.8163H23.5127ZM3.5127 35.4734H7.01255V-4.52661H3.5127V35.4734ZM7.01255 35.4734C-4.99632 35.4734 -12.7851 25.5025 -12.7851 15.6736H27.2149C27.2149 5.64447 19.2642 -4.52661 7.01255 -4.52661V35.4734ZM-12.7851 15.6736C-12.7851 3.27925 -2.4037 -4.12626 7.01255 -4.12626V35.8737C16.6311 35.8737 27.2149 28.3081 27.2149 15.6736H-12.7851ZM7.01255 -4.12626H3.9173V35.8737H7.01255V-4.12626ZM-16.0827 15.8737V18.7963H23.9173V15.8737H-16.0827ZM-16.0827 18.7963C-16.0827 15.0569 -14.9493 9.75406 -10.6872 5.23553C-6.31856 0.604169 -0.748274 -0.983524 3.715 -0.983524V39.0165C8.29966 39.0165 13.9711 37.3887 18.4105 32.6823C22.7435 28.0887 23.9173 22.6758 23.9173 18.7963H-16.0827Z" fill="white" mask="url(#path-100-inside-47_454_3045)"/>
<path d="M20.2641 10.8295V15.9711C20.2038 16.0052 20.1431 16.0387 20.082 16.0715C20.015 16.1075 19.9476 16.1427 19.8797 16.177V10.8295V9.01869C19.9472 9.01729 20.0146 9.01659 20.082 9.01659C20.1429 9.01659 20.2036 9.0171 20.2641 9.01814V10.8295ZM15.429 10.1908V10.8295C15.429 10.9496 15.3279 11.0296 15.2267 11.0296C15.1053 11.0296 15.0244 10.9295 15.0244 10.8295L15.0244 10.4214C15.0915 10.3811 15.1589 10.3415 15.2267 10.3029C15.2938 10.2647 15.3613 10.2273 15.429 10.1908Z" fill="white" stroke="white" stroke-width="20"/>
</svg>
