<svg width="17" height="17" viewBox="0 0 17 17" fill="none" xmlns="http://www.w3.org/2000/svg">
<mask id="path-1-inside-1_462_1216" fill="white">
<path d="M1.84725 15.0015L2.22234 15.7514C2.24508 15.797 2.2801 15.8354 2.32344 15.8622C2.36679 15.8891 2.41677 15.9033 2.46775 15.9033C2.51873 15.9033 2.5687 15.8891 2.61205 15.8622C2.6554 15.8354 2.69041 15.797 2.71315 15.7514L3.08825 15.0015C3.66927 14.8505 4.17535 14.4929 4.51172 13.9957C4.84809 13.4985 4.99167 12.8957 4.91559 12.3002C4.8395 11.7048 4.54896 11.1574 4.09837 10.7608C3.64779 10.3641 3.06806 10.1453 2.46775 10.1453C1.86743 10.1453 1.2877 10.3641 0.837117 10.7608C0.386532 11.1574 0.0959938 11.7048 0.0199073 12.3002C-0.0561792 12.8957 0.0874046 13.4985 0.423771 13.9957C0.760138 14.4929 1.26622 14.8505 1.84725 15.0015ZM2.46775 10.6933C2.9438 10.6933 3.40286 10.8703 3.75579 11.1897C4.10872 11.5092 4.33033 11.9484 4.37759 12.4221C4.42485 12.8958 4.29439 13.3702 4.01153 13.7531C3.72868 14.136 3.31362 14.4001 2.84696 14.4942C2.80591 14.5023 2.76728 14.5198 2.73401 14.5452C2.70074 14.5705 2.67372 14.6032 2.65502 14.6406L2.46775 15.016L2.27992 14.6417C2.26122 14.6043 2.23421 14.5716 2.20094 14.5462C2.16767 14.5209 2.12903 14.5034 2.08799 14.4953C1.62006 14.4024 1.20349 14.1386 0.919491 13.7553C0.635495 13.372 0.504428 12.8966 0.551844 12.4219C0.599259 11.9472 0.821757 11.5072 1.17596 11.1876C1.53017 10.868 1.99069 10.6918 2.46775 10.6933Z"/>
</mask>
<path d="M1.84725 15.0015L2.22234 15.7514C2.24508 15.797 2.2801 15.8354 2.32344 15.8622C2.36679 15.8891 2.41677 15.9033 2.46775 15.9033C2.51873 15.9033 2.5687 15.8891 2.61205 15.8622C2.6554 15.8354 2.69041 15.797 2.71315 15.7514L3.08825 15.0015C3.66927 14.8505 4.17535 14.4929 4.51172 13.9957C4.84809 13.4985 4.99167 12.8957 4.91559 12.3002C4.8395 11.7048 4.54896 11.1574 4.09837 10.7608C3.64779 10.3641 3.06806 10.1453 2.46775 10.1453C1.86743 10.1453 1.2877 10.3641 0.837117 10.7608C0.386532 11.1574 0.0959938 11.7048 0.0199073 12.3002C-0.0561792 12.8957 0.0874046 13.4985 0.423771 13.9957C0.760138 14.4929 1.26622 14.8505 1.84725 15.0015ZM2.46775 10.6933C2.9438 10.6933 3.40286 10.8703 3.75579 11.1897C4.10872 11.5092 4.33033 11.9484 4.37759 12.4221C4.42485 12.8958 4.29439 13.3702 4.01153 13.7531C3.72868 14.136 3.31362 14.4001 2.84696 14.4942C2.80591 14.5023 2.76728 14.5198 2.73401 14.5452C2.70074 14.5705 2.67372 14.6032 2.65502 14.6406L2.46775 15.016L2.27992 14.6417C2.26122 14.6043 2.23421 14.5716 2.20094 14.5462C2.16767 14.5209 2.12903 14.5034 2.08799 14.4953C1.62006 14.4024 1.20349 14.1386 0.919491 13.7553C0.635495 13.372 0.504428 12.8966 0.551844 12.4219C0.599259 11.9472 0.821757 11.5072 1.17596 11.1876C1.53017 10.868 1.99069 10.6918 2.46775 10.6933Z" fill="white"/>
<path d="M1.84725 15.0015L19.7345 6.05457L15.67 -2.07141L6.87614 -4.35597L1.84725 15.0015ZM2.22234 15.7514L20.1223 6.83006L20.116 6.81727L20.1096 6.80449L2.22234 15.7514ZM2.71315 15.7514L-15.1741 6.80449L-15.1805 6.81727L-15.1869 6.83006L2.71315 15.7514ZM3.08825 15.0015L-1.94064 -4.35597L-10.7345 -2.0714L-14.799 6.05457L3.08825 15.0015ZM2.46775 10.1453V30.1453V10.1453ZM2.46775 10.6933L2.40468 30.6932L2.43607 30.6933H2.46747L2.46775 10.6933ZM2.84696 14.4942L6.73879 34.1119L6.76873 34.1059L6.79866 34.0999L2.84696 14.4942ZM2.65502 14.6406L-15.2368 5.70293L-15.2414 5.71204L2.65502 14.6406ZM2.46775 15.016L-15.4077 23.9865L2.52008 59.711L20.3641 23.9446L2.46775 15.016ZM2.27992 14.6417L-15.6119 23.5794L-15.6037 23.5958L-15.5955 23.6122L2.27992 14.6417ZM2.08799 14.4953L-1.80608 34.1125L-1.80385 34.113L2.08799 14.4953ZM-16.04 23.9484L-15.6649 24.6983L20.1096 6.80449L19.7345 6.05457L-16.04 23.9484ZM-15.6777 24.6727C-13.9962 28.0465 -11.4074 30.8847 -8.20209 32.8685L12.849 -1.14405C15.9676 0.786119 18.4863 3.54752 20.1223 6.83006L-15.6777 24.6727ZM-8.20209 32.8685C-4.9969 34.8522 -1.30199 35.9033 2.46775 35.9033V-4.09674C6.13552 -4.09674 9.73049 -3.07415 12.849 -1.14405L-8.20209 32.8685ZM2.46775 35.9033C6.23748 35.9033 9.93239 34.8522 13.1376 32.8685L-7.91348 -1.14405C-4.79499 -3.07415 -1.20003 -4.09674 2.46775 -4.09674V35.9033ZM13.1376 32.8685C16.3429 30.8847 18.9317 28.0465 20.6131 24.6727L-15.1869 6.83006C-13.5508 3.54752 -11.0321 0.786119 -7.91348 -1.14405L13.1376 32.8685ZM20.6004 24.6983L20.9755 23.9484L-14.799 6.05457L-15.1741 6.80449L20.6004 24.6983ZM8.11714 34.3589C13.4072 32.9846 18.0148 29.7291 21.0773 25.2021L-12.0538 2.78937C-9.6641 -0.743206 -6.06861 -3.28356 -1.94064 -4.35597L8.11714 34.3589ZM21.0773 25.2021C24.1398 20.675 25.447 15.1869 24.7543 9.76534L-14.9231 14.8351C-15.4637 10.6045 -14.4436 6.32196 -12.0538 2.78937L21.0773 25.2021ZM24.7543 9.76534C24.0616 4.34381 21.4163 -0.639302 17.3139 -4.25086L-9.11719 25.7724C-12.3184 22.9542 -14.3826 19.0657 -14.9231 14.8351L24.7543 9.76534ZM17.3139 -4.25086C13.2115 -7.86243 7.93334 -9.85474 2.46775 -9.85474V30.1453C-1.79722 30.1453 -5.91596 28.5906 -9.11719 25.7724L17.3139 -4.25086ZM2.46775 -9.85474C-2.99785 -9.85474 -8.27605 -7.86243 -12.3784 -4.25086L14.0527 25.7724C10.8515 28.5906 6.73271 30.1453 2.46775 30.1453V-9.85474ZM-12.3784 -4.25086C-16.4808 -0.6393 -19.1261 4.34381 -19.8188 9.76534L19.8586 14.8351C19.3181 19.0657 17.2539 22.9542 14.0527 25.7724L-12.3784 -4.25086ZM-19.8188 9.76534C-20.5115 15.1869 -19.2043 20.675 -16.1418 25.2021L16.9893 2.78937C19.3791 6.32197 20.3992 10.6045 19.8586 14.8351L-19.8188 9.76534ZM-16.1418 25.2021C-13.0793 29.7291 -8.47167 32.9846 -3.18164 34.3589L6.87614 -4.35597C11.0041 -3.28356 14.5996 -0.743207 16.9893 2.78937L-16.1418 25.2021ZM2.46747 30.6933C-2.01701 30.6933 -6.34145 29.0267 -9.66612 26.0172L17.1777 -3.63769C13.1472 -7.28615 7.90461 -9.30659 2.46802 -9.30667L2.46747 30.6933ZM-9.66612 26.0172C-12.9908 23.0076 -15.0784 18.87 -15.5236 14.4077L24.2788 10.4366C23.7391 5.02689 21.2082 0.0107746 17.1777 -3.63769L-9.66612 26.0172ZM-15.5236 14.4077C-15.9688 9.94534 -14.7398 5.47679 -12.0753 1.86974L20.0984 25.6365C23.3286 21.2636 24.8185 15.8463 24.2788 10.4366L-15.5236 14.4077ZM-12.0753 1.86974C-9.41075 -1.7373 -5.50083 -4.22544 -1.10475 -5.11151L6.79866 34.0999C12.1281 33.0257 16.8681 30.0093 20.0984 25.6365L-12.0753 1.86974ZM-1.04488 -5.12348C-4.0797 -4.52143 -6.93649 -3.23277 -9.39644 -1.35618L14.8645 30.4465C12.471 32.2723 9.69152 33.5261 6.73879 34.1119L-1.04488 -5.12348ZM-9.39644 -1.35618C-11.8564 0.520401 -13.8542 2.93509 -15.2368 5.70294L20.5469 23.5783C19.2016 26.2713 17.2579 28.6207 14.8645 30.4465L-9.39644 -1.35618ZM-15.2414 5.71204L-15.4286 6.08741L20.3641 23.9446L20.5514 23.5692L-15.2414 5.71204ZM20.3432 6.04552L20.1553 5.67125L-15.5955 23.6122L-15.4077 23.9865L20.3432 6.04552ZM20.1718 5.70403C18.7891 2.93625 16.7914 0.521539 14.3314 -1.35508L-9.92951 30.4476C-12.323 28.6217 -14.2667 26.2723 -15.6119 23.5794L20.1718 5.70403ZM14.3314 -1.35508C11.8714 -3.23167 9.01464 -4.52033 5.97982 -5.12239L-1.80385 34.113C-4.75658 33.5272 -7.5361 32.2734 -9.92951 30.4476L14.3314 -1.35508ZM5.98206 -5.12194C10.3901 -4.24695 14.3142 -1.76173 16.9895 1.84921L-15.1505 25.6613C-11.9072 30.0389 -7.14994 33.0518 -1.80608 34.1125L5.98206 -5.12194ZM16.9895 1.84921C19.6648 5.46015 20.8995 9.93797 20.4528 14.4097L-19.3491 10.4341C-19.8906 15.8553 -18.3938 21.2838 -15.1505 25.6613L16.9895 1.84921ZM20.4528 14.4097C20.0062 18.8815 17.9102 23.0266 14.5735 26.037L-12.2216 -3.66181C-16.2667 -0.0122395 -18.8076 5.01296 -19.3491 10.4341L20.4528 14.4097ZM14.5735 26.037C11.2369 29.0475 6.89865 30.7074 2.40468 30.6932L2.53082 -9.30657C-2.91728 -9.32375 -8.17652 -7.31139 -12.2216 -3.66181L14.5735 26.037Z" fill="white" mask="url(#path-1-inside-1_462_1216)"/>
<mask id="path-3-inside-2_462_1216" fill="white">
<path d="M2.46765 13.9834C2.7388 13.9834 3.00386 13.903 3.22932 13.7523C3.45477 13.6017 3.63049 13.3876 3.73425 13.1371C3.83802 12.8866 3.86517 12.6109 3.81227 12.345C3.75937 12.079 3.6288 11.8347 3.43707 11.643C3.24533 11.4513 3.00105 11.3207 2.73511 11.2678C2.46917 11.2149 2.19351 11.242 1.943 11.3458C1.69249 11.4496 1.47837 11.6253 1.32773 11.8508C1.17709 12.0762 1.09668 12.3413 1.09668 12.6124C1.09712 12.9759 1.2417 13.3243 1.49871 13.5814C1.75572 13.8384 2.10418 13.983 2.46765 13.9834ZM2.46765 11.7898C2.63034 11.7898 2.78938 11.8381 2.92465 11.9285C3.05992 12.0189 3.16535 12.1473 3.22761 12.2976C3.28987 12.4479 3.30616 12.6133 3.27442 12.7729C3.24268 12.9325 3.16434 13.079 3.0493 13.1941C2.93426 13.3091 2.78769 13.3875 2.62812 13.4192C2.46856 13.4509 2.30317 13.4346 2.15286 13.3724C2.00255 13.3101 1.87408 13.2047 1.7837 13.0694C1.69331 12.9342 1.64507 12.7751 1.64507 12.6124C1.64507 12.3943 1.73173 12.185 1.88599 12.0308C2.04026 11.8765 2.24948 11.7898 2.46765 11.7898Z"/>
</mask>
<path d="M2.46765 13.9834C2.7388 13.9834 3.00386 13.903 3.22932 13.7523C3.45477 13.6017 3.63049 13.3876 3.73425 13.1371C3.83802 12.8866 3.86517 12.6109 3.81227 12.345C3.75937 12.079 3.6288 11.8347 3.43707 11.643C3.24533 11.4513 3.00105 11.3207 2.73511 11.2678C2.46917 11.2149 2.19351 11.242 1.943 11.3458C1.69249 11.4496 1.47837 11.6253 1.32773 11.8508C1.17709 12.0762 1.09668 12.3413 1.09668 12.6124C1.09712 12.9759 1.2417 13.3243 1.49871 13.5814C1.75572 13.8384 2.10418 13.983 2.46765 13.9834ZM2.46765 11.7898C2.63034 11.7898 2.78938 11.8381 2.92465 11.9285C3.05992 12.0189 3.16535 12.1473 3.22761 12.2976C3.28987 12.4479 3.30616 12.6133 3.27442 12.7729C3.24268 12.9325 3.16434 13.079 3.0493 13.1941C2.93426 13.3091 2.78769 13.3875 2.62812 13.4192C2.46856 13.4509 2.30317 13.4346 2.15286 13.3724C2.00255 13.3101 1.87408 13.2047 1.7837 13.0694C1.69331 12.9342 1.64507 12.7751 1.64507 12.6124C1.64507 12.3943 1.73173 12.185 1.88599 12.0308C2.04026 11.8765 2.24948 11.7898 2.46765 11.7898Z" fill="white"/>
<path d="M2.46765 13.9834L2.44369 33.9834L2.45567 33.9834H2.46765V13.9834ZM1.09668 12.6124H-18.9033V12.6244L-18.9033 12.6364L1.09668 12.6124ZM2.46765 33.9834C6.69442 33.9834 10.8263 32.73 14.3407 30.3817L-7.88209 -2.87705C-4.81855 -4.92404 -1.21682 -6.01661 2.46765 -6.01661V33.9834ZM14.3407 30.3817C17.8551 28.0335 20.5943 24.6958 22.2118 20.7907L-14.7433 5.4834C-13.3333 2.07938 -10.9456 -0.830073 -7.88209 -2.87705L14.3407 30.3817ZM22.2118 20.7907C23.8294 16.8857 24.2526 12.5887 23.428 8.44315L-15.8034 16.2468C-16.5222 12.6331 -16.1533 8.88741 -14.7433 5.4834L22.2118 20.7907ZM23.428 8.44315C22.6034 4.29758 20.568 0.489643 17.5792 -2.49913L-10.7051 25.7851C-13.3104 23.1798 -15.0846 19.8605 -15.8034 16.2468L23.428 8.44315ZM17.5792 -2.49913C14.5904 -5.48791 10.7825 -7.5233 6.63692 -8.34791L-1.1667 30.8835C-4.78038 30.1647 -8.09976 28.3905 -10.7051 25.7851L17.5792 -2.49913ZM6.63692 -8.34791C2.49133 -9.17252 -1.80566 -8.74928 -5.71067 -7.13177L9.59667 29.8234C6.19268 31.2334 2.44701 31.6023 -1.1667 30.8835L6.63692 -8.34791ZM-5.71067 -7.13177C-9.61568 -5.51427 -12.9534 -2.7751 -15.3017 0.739349L17.9571 22.9622C15.9101 26.0257 13.0007 28.4134 9.59667 29.8234L-5.71067 -7.13177ZM-15.3017 0.739349C-17.6499 4.25379 -18.9033 8.38565 -18.9033 12.6124H21.0967C21.0967 16.2969 20.0041 19.8986 17.9571 22.9622L-15.3017 0.739349ZM-18.9033 12.6364C-18.8965 18.2959 -16.6453 23.7216 -12.6434 27.7235L15.6408 -0.560774C19.1287 2.92707 21.0908 7.6559 21.0967 12.5885L-18.9033 12.6364ZM-12.6434 27.7235C-8.64157 31.7254 -3.21582 33.9766 2.44369 33.9834L2.4916 -6.0166C7.42417 -6.01069 12.153 -4.04861 15.6408 -0.560774L-12.6434 27.7235ZM2.46765 31.7898C-1.32531 31.7898 -5.03307 30.6651 -8.18676 28.5579L14.0361 -4.70092C10.6118 -6.98892 6.58599 -8.21016 2.46765 -8.21016V31.7898ZM-8.18676 28.5579C-11.3405 26.4506 -13.7985 23.4555 -15.25 19.9513L21.7052 4.64397C20.1292 0.839146 17.4603 -2.4129 14.0361 -4.70092L-8.18676 28.5579ZM-15.25 19.9513C-16.7015 16.4471 -17.0813 12.5912 -16.3413 8.87109L22.8901 16.6747C23.6936 12.6355 23.2812 8.44879 21.7052 4.64397L-15.25 19.9513ZM-16.3413 8.87109C-15.6013 5.15103 -13.7748 1.73395 -11.0928 -0.948061L17.1914 27.3362C20.1035 24.4241 22.0867 20.7139 22.8901 16.6747L-16.3413 8.87109ZM-11.0928 -0.948061C-8.41085 -3.63005 -4.99377 -5.45654 -1.27368 -6.19651L6.52993 33.0349C10.5691 32.2315 14.2794 30.2483 17.1914 27.3362L-11.0928 -0.948061ZM-1.27368 -6.19651C2.44642 -6.93648 6.30235 -6.55668 9.80653 -5.1052L-5.50081 31.85C-1.69602 33.426 2.4907 33.8384 6.52993 33.0349L-1.27368 -6.19651ZM9.80653 -5.1052C13.3107 -3.65371 16.3058 -1.1957 18.4131 1.95802L-14.8457 24.1808C-12.5577 27.6051 -9.30563 30.274 -5.50081 31.85L9.80653 -5.1052ZM18.4131 1.95802C20.5203 5.11172 21.6451 8.81948 21.6451 12.6124H-18.3549C-18.3549 16.7308 -17.1337 20.7566 -14.8457 24.1808L18.4131 1.95802ZM21.6451 12.6124C21.6451 17.6986 19.6246 22.5765 16.0281 26.1729L-12.2561 -2.11136C-16.1611 1.79362 -18.3549 7.08992 -18.3549 12.6124H21.6451ZM16.0281 26.1729C12.4317 29.7694 7.55384 31.7898 2.46765 31.7898V-8.21016C-3.05487 -8.21016 -8.35117 -6.01634 -12.2561 -2.11136L16.0281 26.1729Z" fill="white" mask="url(#path-3-inside-2_462_1216)"/>
<mask id="path-5-inside-3_462_1216" fill="white">
<path d="M16.451 11.2415H12.6123V11.7898H16.451V11.2415Z"/>
</mask>
<path d="M16.451 11.2415H12.6123V11.7898H16.451V11.2415Z" fill="white"/>
<path d="M12.6123 11.2415V-8.75854H-7.3877V11.2415H12.6123ZM16.451 11.2415H36.451V-8.75854H16.451V11.2415ZM16.451 11.7898V31.7898H36.451V11.7898H16.451ZM12.6123 11.7898H-7.3877V31.7898H12.6123V11.7898ZM12.6123 31.2415H16.451V-8.75854H12.6123V31.2415ZM-3.54899 11.2415V11.7898H36.451V11.2415H-3.54899ZM16.451 -8.21016H12.6123V31.7898H16.451V-8.21016ZM32.6123 11.7898V11.2415H-7.3877V11.7898H32.6123Z" fill="white" mask="url(#path-5-inside-3_462_1216)"/>
<mask id="path-7-inside-4_462_1216" fill="white">
<path d="M13.9107 9.7915L14.2858 10.5414C14.3086 10.587 14.3436 10.6254 14.3869 10.6523C14.4303 10.6791 14.4802 10.6933 14.5312 10.6933C14.5822 10.6933 14.6322 10.6791 14.6755 10.6523C14.7189 10.6254 14.7539 10.587 14.7766 10.5414L15.1517 9.7915C15.7327 9.64055 16.2388 9.28299 16.5752 8.78576C16.9116 8.28853 17.0551 7.68574 16.9791 7.09027C16.903 6.4948 16.6124 5.94748 16.1619 5.5508C15.7113 5.15413 15.1315 4.9353 14.5312 4.9353C13.9309 4.9353 13.3512 5.15413 12.9006 5.5508C12.45 5.94748 12.1595 6.4948 12.0834 7.09027C12.0073 7.68574 12.1509 8.28853 12.4872 8.78576C12.8236 9.28299 13.3297 9.64055 13.9107 9.7915ZM14.5312 5.48337C15.0073 5.48338 15.4663 5.6603 15.8193 5.97977C16.1722 6.29925 16.3938 6.73848 16.4411 7.21218C16.4883 7.68588 16.3579 8.16024 16.075 8.54315C15.7922 8.92605 15.3771 9.19018 14.9104 9.28424C14.8694 9.29238 14.8308 9.30981 14.7975 9.33519C14.7642 9.36057 14.7372 9.39323 14.7185 9.43066L14.5312 9.80603L14.3434 9.43176C14.3247 9.39432 14.2977 9.36167 14.2644 9.33629C14.2311 9.31091 14.1925 9.29348 14.1515 9.28534C13.6835 9.19245 13.267 8.92863 12.983 8.54532C12.699 8.162 12.5679 7.68665 12.6153 7.21195C12.6627 6.73725 12.8852 6.29722 13.2394 5.97765C13.5936 5.65808 14.0542 5.48187 14.5312 5.48337Z"/>
</mask>
<path d="M13.9107 9.7915L14.2858 10.5414C14.3086 10.587 14.3436 10.6254 14.3869 10.6523C14.4303 10.6791 14.4802 10.6933 14.5312 10.6933C14.5822 10.6933 14.6322 10.6791 14.6755 10.6523C14.7189 10.6254 14.7539 10.587 14.7766 10.5414L15.1517 9.7915C15.7327 9.64055 16.2388 9.28299 16.5752 8.78576C16.9116 8.28853 17.0551 7.68574 16.9791 7.09027C16.903 6.4948 16.6124 5.94748 16.1619 5.5508C15.7113 5.15413 15.1315 4.9353 14.5312 4.9353C13.9309 4.9353 13.3512 5.15413 12.9006 5.5508C12.45 5.94748 12.1595 6.4948 12.0834 7.09027C12.0073 7.68574 12.1509 8.28853 12.4872 8.78576C12.8236 9.28299 13.3297 9.64055 13.9107 9.7915ZM14.5312 5.48337C15.0073 5.48338 15.4663 5.6603 15.8193 5.97977C16.1722 6.29925 16.3938 6.73848 16.4411 7.21218C16.4883 7.68588 16.3579 8.16024 16.075 8.54315C15.7922 8.92605 15.3771 9.19018 14.9104 9.28424C14.8694 9.29238 14.8308 9.30981 14.7975 9.33519C14.7642 9.36057 14.7372 9.39323 14.7185 9.43066L14.5312 9.80603L14.3434 9.43176C14.3247 9.39432 14.2977 9.36167 14.2644 9.33629C14.2311 9.31091 14.1925 9.29348 14.1515 9.28534C13.6835 9.19245 13.267 8.92863 12.983 8.54532C12.699 8.162 12.5679 7.68665 12.6153 7.21195C12.6627 6.73725 12.8852 6.29722 13.2394 5.97765C13.5936 5.65808 14.0542 5.48187 14.5312 5.48337Z" fill="white"/>
<path d="M13.9107 9.7915L31.798 0.844604L27.7335 -7.28137L18.9396 -9.56594L13.9107 9.7915ZM14.2858 10.5414L32.1858 1.6201L32.1794 1.6073L32.173 1.59452L14.2858 10.5414ZM14.7766 10.5414L-3.11061 1.59452L-3.117 1.6073L-3.12337 1.6201L14.7766 10.5414ZM15.1517 9.7915L10.1228 -9.56594L1.32897 -7.28137L-2.73551 0.844604L15.1517 9.7915ZM14.5312 4.9353V-15.0647V4.9353ZM14.5312 5.48337L14.4682 25.4833L14.4995 25.4834L14.5309 25.4834L14.5312 5.48337ZM14.9104 9.28424L18.8023 28.9019L18.8322 28.896L18.8621 28.89L14.9104 9.28424ZM14.7185 9.43066L-3.17334 0.492973L-3.17789 0.502091L14.7185 9.43066ZM14.5312 9.80603L-3.34419 18.7765L14.5836 54.5011L32.4276 18.7346L14.5312 9.80603ZM14.3434 9.43176L-3.54844 18.3694L-3.54024 18.3858L-3.53202 18.4022L14.3434 9.43176ZM14.1515 9.28534L10.2574 28.9026L10.2596 28.903L14.1515 9.28534ZM-3.97651 18.7384L-3.60141 19.4883L32.173 1.59452L31.798 0.844604L-3.97651 18.7384ZM-3.61418 19.4627C-1.93266 22.8366 0.656135 25.6747 3.86139 27.6585L24.9125 -6.35401C28.031 -4.42387 30.5498 -1.66249 32.1858 1.6201L-3.61418 19.4627ZM3.86139 27.6585C7.06656 29.6423 10.7615 30.6933 14.5312 30.6933V-9.3067C18.199 -9.3067 21.794 -8.2841 24.9125 -6.35401L3.86139 27.6585ZM14.5312 30.6933C18.301 30.6933 21.9959 29.6423 25.2011 27.6585L4.14999 -6.35401C7.26847 -8.2841 10.8634 -9.3067 14.5312 -9.3067V30.6933ZM25.2011 27.6585C28.4063 25.6747 30.9951 22.8366 32.6766 19.4627L-3.12337 1.6201C-1.48734 -1.66249 1.03144 -4.42387 4.14999 -6.35401L25.2011 27.6585ZM32.6639 19.4883L33.039 18.7384L-2.73551 0.844604L-3.11061 1.59452L32.6639 19.4883ZM20.1806 29.1489C25.4706 27.7746 30.0783 24.5191 33.1408 19.9921L0.00963783 -2.42059C2.39937 -5.95317 5.99486 -8.49352 10.1228 -9.56594L20.1806 29.1489ZM33.1408 19.9921C36.2032 15.4651 37.5105 9.97691 36.8178 4.55538L-2.85965 9.62516C-3.40021 5.39458 -2.38011 1.11201 0.00963783 -2.42059L33.1408 19.9921ZM36.8178 4.55538C36.125 -0.866158 33.4798 -5.84927 29.3774 -9.46082L2.94629 20.5624C-0.254925 17.7442 -2.31908 13.8558 -2.85965 9.62516L36.8178 4.55538ZM29.3774 -9.46082C25.275 -13.0724 19.9968 -15.0647 14.5312 -15.0647V24.9353C10.2662 24.9353 6.1475 23.3806 2.94629 20.5624L29.3774 -9.46082ZM14.5312 -15.0647C9.0656 -15.0647 3.78741 -13.0724 -0.31497 -9.46082L26.1162 20.5624C22.9149 23.3806 18.7962 24.9353 14.5312 24.9353V-15.0647ZM-0.31497 -9.46082C-4.41735 -5.84927 -7.06259 -0.866158 -7.75533 4.55538L31.9221 9.62516C31.3815 13.8558 29.3174 17.7442 26.1162 20.5624L-0.31497 -9.46082ZM-7.75533 4.55538C-8.44806 9.97691 -7.14079 15.4651 -4.07831 19.9921L29.0528 -2.42059C31.4426 1.11201 32.4627 5.39458 31.9221 9.62516L-7.75533 4.55538ZM-4.07831 19.9921C-1.01584 24.5191 3.59181 27.7746 8.88183 29.1489L18.9396 -9.56594C23.0676 -8.49352 26.6631 -5.95317 29.0528 -2.42059L-4.07831 19.9921ZM14.5309 25.4834C10.0465 25.4833 5.72203 23.8167 2.39736 20.8072L29.2412 -8.84765C25.2106 -12.4961 19.9681 -14.5166 14.5315 -14.5166L14.5309 25.4834ZM2.39736 20.8072C-0.927298 17.7977 -3.01493 13.66 -3.46013 9.19771L36.3423 5.22665C35.8025 -0.18308 33.2717 -5.19919 29.2412 -8.84765L2.39736 20.8072ZM-3.46013 9.19771C-3.90533 4.73538 -2.67634 0.266833 -0.0118046 -3.34022L32.1618 20.4265C35.3921 16.0536 36.882 10.6364 36.3423 5.22665L-3.46013 9.19771ZM-0.0118046 -3.34022C2.65273 -6.94727 6.56266 -9.43541 10.9587 -10.3215L18.8621 28.89C24.1915 27.8158 28.9316 24.7994 32.1618 20.4265L-0.0118046 -3.34022ZM11.0186 -10.3334C7.98375 -9.73138 5.12696 -8.44271 2.66704 -6.56614L26.9279 25.2365C24.5345 27.0623 21.755 28.3161 18.8023 28.9019L11.0186 -10.3334ZM2.66704 -6.56614C0.207156 -4.6896 -1.79066 -2.27493 -3.17334 0.492975L32.6103 18.3683C31.2651 21.0614 29.3213 23.4107 26.9279 25.2365L2.66704 -6.56614ZM-3.17789 0.502091L-3.36516 0.877461L32.4276 18.7346L32.6149 18.3592L-3.17789 0.502091ZM32.4066 0.835553L32.2188 0.461279L-3.53202 18.4022L-3.34419 18.7765L32.4066 0.835553ZM32.2352 0.494072C30.8527 -2.27359 28.855 -4.68834 26.3949 -6.56504L2.13397 25.2376C-0.259587 23.4117 -2.20327 21.0622 -3.54844 18.3694L32.2352 0.494072ZM26.3949 -6.56504C23.9349 -8.44161 21.0782 -9.73028 18.0433 -10.3323L10.2596 28.903C7.30687 28.3172 4.52735 27.0634 2.13397 25.2376L26.3949 -6.56504ZM18.0455 -10.3319C22.4535 -9.45691 26.3777 -6.97169 29.053 -3.36075L-3.08705 20.4514C0.15624 24.829 4.91354 27.8418 10.2574 28.9026L18.0455 -10.3319ZM29.053 -3.36075C31.7283 0.250167 32.963 4.72799 32.5163 9.19975L-7.28565 5.22415C-7.82714 10.6453 -6.33033 16.0738 -3.08705 20.4514L29.053 -3.36075ZM32.5163 9.19975C32.0696 13.6715 29.9737 17.8166 26.637 20.8271L-0.158119 -8.87177C-4.20319 -5.2222 -6.74416 -0.196996 -7.28565 5.22415L32.5163 9.19975ZM26.637 20.8271C23.3003 23.8375 18.9621 25.4974 14.4682 25.4833L14.5943 -14.5165C9.1462 -14.5337 3.88696 -12.5214 -0.158119 -8.87177L26.637 20.8271Z" fill="white" mask="url(#path-7-inside-4_462_1216)"/>
<mask id="path-9-inside-5_462_1216" fill="white">
<path d="M14.5311 8.77392C14.8023 8.77392 15.0673 8.69351 15.2928 8.54287C15.5182 8.39222 15.694 8.17811 15.7977 7.9276C15.9015 7.67709 15.9286 7.40143 15.8757 7.13549C15.8228 6.86955 15.6923 6.62526 15.5005 6.43353C15.3088 6.2418 15.0645 6.11122 14.7986 6.05833C14.5326 6.00543 14.257 6.03258 14.0065 6.13634C13.756 6.24011 13.5418 6.41583 13.3912 6.64128C13.2406 6.86674 13.1602 7.1318 13.1602 7.40295C13.1606 7.76642 13.3052 8.11488 13.5622 8.37189C13.8192 8.6289 14.1677 8.77348 14.5311 8.77392ZM14.5311 6.58037C14.6938 6.58037 14.8529 6.62861 14.9881 6.719C15.1234 6.80939 15.2288 6.93786 15.2911 7.08816C15.3533 7.23847 15.3696 7.40386 15.3379 7.56343C15.3062 7.72299 15.2278 7.86956 15.1128 7.9846C14.9977 8.09964 14.8512 8.17799 14.6916 8.20972C14.532 8.24146 14.3666 8.22517 14.2163 8.16291C14.066 8.10066 13.9376 7.99522 13.8472 7.85995C13.7568 7.72468 13.7085 7.56564 13.7085 7.40295C13.7085 7.18479 13.7952 6.97556 13.9495 6.8213C14.1037 6.66703 14.313 6.58037 14.5311 6.58037Z"/>
</mask>
<path d="M14.5311 8.77392C14.8023 8.77392 15.0673 8.69351 15.2928 8.54287C15.5182 8.39222 15.694 8.17811 15.7977 7.9276C15.9015 7.67709 15.9286 7.40143 15.8757 7.13549C15.8228 6.86955 15.6923 6.62526 15.5005 6.43353C15.3088 6.2418 15.0645 6.11122 14.7986 6.05833C14.5326 6.00543 14.257 6.03258 14.0065 6.13634C13.756 6.24011 13.5418 6.41583 13.3912 6.64128C13.2406 6.86674 13.1602 7.1318 13.1602 7.40295C13.1606 7.76642 13.3052 8.11488 13.5622 8.37189C13.8192 8.6289 14.1677 8.77348 14.5311 8.77392ZM14.5311 6.58037C14.6938 6.58037 14.8529 6.62861 14.9881 6.719C15.1234 6.80939 15.2288 6.93786 15.2911 7.08816C15.3533 7.23847 15.3696 7.40386 15.3379 7.56343C15.3062 7.72299 15.2278 7.86956 15.1128 7.9846C14.9977 8.09964 14.8512 8.17799 14.6916 8.20972C14.532 8.24146 14.3666 8.22517 14.2163 8.16291C14.066 8.10066 13.9376 7.99522 13.8472 7.85995C13.7568 7.72468 13.7085 7.56564 13.7085 7.40295C13.7085 7.18479 13.7952 6.97556 13.9495 6.8213C14.1037 6.66703 14.313 6.58037 14.5311 6.58037Z" fill="white"/>
<path d="M14.5311 8.77392L14.5072 28.7739L14.5191 28.7739H14.5311V8.77392ZM13.1602 7.40295H-6.83984V7.41493L-6.83983 7.42691L13.1602 7.40295ZM14.5311 6.58037L14.5311 26.5804L14.5311 6.58037ZM14.5311 28.7739C18.7579 28.7739 22.8898 27.5205 26.4042 25.1723L4.18139 -8.08652C7.24492 -10.1335 10.8467 -11.2261 14.5311 -11.2261L14.5311 28.7739ZM26.4042 25.1723C29.9186 22.824 32.6578 19.4863 34.2753 15.5813L-2.67986 0.273929C-1.26988 -3.13007 1.11784 -6.03953 4.18139 -8.08652L26.4042 25.1723ZM34.2753 15.5813C35.8928 11.6763 36.3161 7.37927 35.4915 3.23368L-3.73996 11.0373C-4.45877 7.42359 -4.08984 3.67792 -2.67986 0.273929L34.2753 15.5813ZM35.4915 3.23368C34.6668 -0.91189 32.6315 -4.71983 29.6427 -7.7086L1.35841 20.5757C-1.2469 17.9704 -3.02115 14.651 -3.73996 11.0373L35.4915 3.23368ZM29.6427 -7.7086C26.6539 -10.6974 22.846 -12.7328 18.7004 -13.5574L10.8968 25.674C7.28309 24.9552 3.96372 23.181 1.35841 20.5757L29.6427 -7.7086ZM18.7004 -13.5574C14.5548 -14.382 10.2578 -13.9588 6.35281 -12.3412L21.6601 24.6139C18.2561 26.0239 14.5105 26.3928 10.8968 25.674L18.7004 -13.5574ZM6.35281 -12.3412C2.44777 -10.7237 -0.889918 -7.98456 -3.23819 -4.47012L30.0206 17.7527C27.9736 20.8162 25.0642 23.2039 21.6601 24.6139L6.35281 -12.3412ZM-3.23819 -4.47012C-5.58646 -0.955678 -6.83984 3.17618 -6.83984 7.40295H33.1602C33.1602 11.0874 32.0676 14.6891 30.0206 17.7527L-3.23819 -4.47012ZM-6.83983 7.42691C-6.83305 13.0864 -4.58182 18.5122 -0.579952 22.514L27.7043 -5.77025C31.1922 -2.2824 33.1542 2.44643 33.1601 7.37899L-6.83983 7.42691ZM-0.579952 22.514C3.42192 26.5159 8.84768 28.7671 14.5072 28.7739L14.5551 -11.2261C19.4876 -11.2202 24.2165 -9.2581 27.7043 -5.77025L-0.579952 22.514ZM14.5311 26.5804C10.7382 26.5804 7.03044 25.4556 3.87672 23.3484L26.0995 -9.91039C22.6753 -12.1984 18.6494 -13.4196 14.5311 -13.4196L14.5311 26.5804ZM3.87672 23.3484C0.722986 21.2411 -1.73502 18.246 -3.1865 14.7418L33.7687 -0.565506C32.1927 -4.37031 29.5238 -7.62236 26.0995 -9.91039L3.87672 23.3484ZM-3.1865 14.7418C-4.63798 11.2377 -5.01778 7.38172 -4.27781 3.66162L34.9536 11.4652C35.7571 7.42601 35.3447 3.23928 33.7687 -0.565506L-3.1865 14.7418ZM-4.27781 3.66162C-3.53783 -0.0584755 -1.71134 -3.47555 0.970638 -6.15753L29.2549 22.1267C32.167 19.2147 34.1502 15.5045 34.9536 11.4652L-4.27781 3.66162ZM0.970638 -6.15753C3.65265 -8.83954 7.06973 -10.666 10.7898 -11.406L18.5934 27.8254C22.6326 27.022 26.3428 25.0388 29.2549 22.1267L0.970638 -6.15753ZM10.7898 -11.406C14.5099 -12.1459 18.3658 -11.7662 21.87 -10.3147L6.56267 26.6405C10.3675 28.2165 14.5542 28.6289 18.5934 27.8254L10.7898 -11.406ZM21.87 -10.3147C25.3742 -8.86318 28.3693 -6.40516 30.4766 -3.25145L-2.78222 18.9714C-0.49421 22.3956 2.75783 25.0645 6.56267 26.6405L21.87 -10.3147ZM30.4766 -3.25145C32.5838 -0.0977697 33.7085 3.60998 33.7085 7.40295H-6.29146C-6.29146 11.5213 -5.07022 15.5471 -2.78222 18.9714L30.4766 -3.25145ZM33.7085 7.40295C33.7085 12.4891 31.6881 17.367 28.0916 20.9634L-0.192665 -7.32084C-4.09764 -3.41586 -6.29146 1.88044 -6.29146 7.40295H33.7085ZM28.0916 20.9634C24.4951 24.5599 19.6173 26.5804 14.5311 26.5804L14.5311 -13.4196C9.00863 -13.4196 3.71232 -11.2258 -0.192665 -7.32084L28.0916 20.9634Z" fill="white" mask="url(#path-9-inside-5_462_1216)"/>
<mask id="path-11-inside-6_462_1216" fill="white">
<path d="M1.84725 4.8562L2.22234 5.60612C2.24508 5.65174 2.2801 5.69013 2.32344 5.71696C2.36679 5.74379 2.41677 5.758 2.46775 5.758C2.51873 5.758 2.5687 5.74379 2.61205 5.71696C2.6554 5.69013 2.69041 5.65174 2.71315 5.60612L3.08825 4.8562C3.66927 4.70525 4.17535 4.34769 4.51172 3.85046C4.84809 3.35323 4.99167 2.75044 4.91559 2.15497C4.8395 1.55949 4.54896 1.01218 4.09837 0.615501C3.64779 0.218826 3.06806 0 2.46775 0C1.86743 0 1.2877 0.218826 0.837117 0.615501C0.386532 1.01218 0.0959938 1.55949 0.0199073 2.15497C-0.0561792 2.75044 0.0874046 3.35323 0.423771 3.85046C0.760138 4.34769 1.26622 4.70525 1.84725 4.8562ZM2.46775 0.54807C2.9438 0.548077 3.40286 0.724995 3.75579 1.04447C4.10872 1.36395 4.33033 1.80318 4.37759 2.27688C4.42485 2.75058 4.29439 3.22494 4.01153 3.60784C3.72868 3.99075 3.31362 4.25488 2.84696 4.34894C2.80591 4.35708 2.76728 4.37451 2.73401 4.39989C2.70074 4.42527 2.67372 4.45792 2.65502 4.49536L2.46775 4.87073L2.27992 4.49645C2.26122 4.45902 2.23421 4.42636 2.20094 4.40099C2.16767 4.37561 2.12903 4.35818 2.08799 4.35004C1.62006 4.25715 1.20349 3.99333 0.919491 3.61001C0.635495 3.22669 0.504428 2.75135 0.551844 2.27665C0.599259 1.80195 0.821757 1.36192 1.17596 1.04235C1.53017 0.722776 1.99069 0.546566 2.46775 0.54807Z"/>
</mask>
<path d="M1.84725 4.8562L2.22234 5.60612C2.24508 5.65174 2.2801 5.69013 2.32344 5.71696C2.36679 5.74379 2.41677 5.758 2.46775 5.758C2.51873 5.758 2.5687 5.74379 2.61205 5.71696C2.6554 5.69013 2.69041 5.65174 2.71315 5.60612L3.08825 4.8562C3.66927 4.70525 4.17535 4.34769 4.51172 3.85046C4.84809 3.35323 4.99167 2.75044 4.91559 2.15497C4.8395 1.55949 4.54896 1.01218 4.09837 0.615501C3.64779 0.218826 3.06806 0 2.46775 0C1.86743 0 1.2877 0.218826 0.837117 0.615501C0.386532 1.01218 0.0959938 1.55949 0.0199073 2.15497C-0.0561792 2.75044 0.0874046 3.35323 0.423771 3.85046C0.760138 4.34769 1.26622 4.70525 1.84725 4.8562ZM2.46775 0.54807C2.9438 0.548077 3.40286 0.724995 3.75579 1.04447C4.10872 1.36395 4.33033 1.80318 4.37759 2.27688C4.42485 2.75058 4.29439 3.22494 4.01153 3.60784C3.72868 3.99075 3.31362 4.25488 2.84696 4.34894C2.80591 4.35708 2.76728 4.37451 2.73401 4.39989C2.70074 4.42527 2.67372 4.45792 2.65502 4.49536L2.46775 4.87073L2.27992 4.49645C2.26122 4.45902 2.23421 4.42636 2.20094 4.40099C2.16767 4.37561 2.12903 4.35818 2.08799 4.35004C1.62006 4.25715 1.20349 3.99333 0.919491 3.61001C0.635495 3.22669 0.504428 2.75135 0.551844 2.27665C0.599259 1.80195 0.821757 1.36192 1.17596 1.04235C1.53017 0.722776 1.99069 0.546566 2.46775 0.54807Z" fill="white"/>
<path d="M1.84725 4.8562L19.7345 -4.09069L15.67 -12.2167L6.87614 -14.5012L1.84725 4.8562ZM2.22234 5.60612L20.1223 -3.31521L20.116 -3.32799L20.1096 -3.34077L2.22234 5.60612ZM2.71315 5.60612L-15.1741 -3.34076L-15.1805 -3.32799L-15.1869 -3.31521L2.71315 5.60612ZM3.08825 4.8562L-1.94064 -14.5012L-10.7345 -12.2167L-14.799 -4.09068L3.08825 4.8562ZM2.46775 0V20V0ZM2.46775 0.54807L2.40468 20.548L2.43607 20.5481L2.46747 20.5481L2.46775 0.54807ZM2.84696 4.34894L6.73879 23.9666L6.76873 23.9607L6.79866 23.9547L2.84696 4.34894ZM2.65502 4.49536L-15.2368 -4.44233L-15.2414 -4.43322L2.65502 4.49536ZM2.46775 4.87073L-15.4077 13.8412L2.52007 49.5658L20.3641 13.7993L2.46775 4.87073ZM2.27992 4.49645L-15.6119 13.4341L-15.6037 13.4505L-15.5955 13.4669L2.27992 4.49645ZM2.08799 4.35004L-1.80608 23.9673L-1.80385 23.9677L2.08799 4.35004ZM-16.04 13.8031L-15.6649 14.553L20.1096 -3.34077L19.7345 -4.09069L-16.04 13.8031ZM-15.6777 14.5274C-13.9962 17.9012 -11.4074 20.7394 -8.20209 22.7232L12.849 -11.2893C15.9676 -9.35914 18.4863 -6.59774 20.1223 -3.31521L-15.6777 14.5274ZM-8.20209 22.7232C-4.99678 24.7071 -1.30185 25.758 2.46775 25.758V-14.242C6.13538 -14.242 9.73037 -13.2195 12.849 -11.2893L-8.20209 22.7232ZM2.46775 25.758C6.23735 25.758 9.93227 24.7071 13.1376 22.7232L-7.91348 -11.2893C-4.79488 -13.2195 -1.19989 -14.242 2.46775 -14.242V25.758ZM13.1376 22.7232C16.3429 20.7394 18.9317 17.9012 20.6131 14.5274L-15.1869 -3.31521C-13.5508 -6.59774 -11.0321 -9.35914 -7.91348 -11.2893L13.1376 22.7232ZM20.6004 14.553L20.9755 13.8031L-14.799 -4.09068L-15.1741 -3.34076L20.6004 14.553ZM8.11714 24.2136C13.4072 22.8393 18.0148 19.5838 21.0773 15.0568L-12.0538 -7.35589C-9.6641 -10.8885 -6.0686 -13.4288 -1.94064 -14.5012L8.11714 24.2136ZM21.0773 15.0568C24.1398 10.5298 25.447 5.04162 24.7543 -0.379919L-14.9231 4.68986C-15.4637 0.459261 -14.4436 -3.8233 -12.0538 -7.35589L21.0773 15.0568ZM24.7543 -0.379919C24.0616 -5.80145 21.4163 -10.7846 17.3139 -14.3961L-9.11719 15.6271C-12.3184 12.8089 -14.3826 8.92044 -14.9231 4.68986L24.7543 -0.379919ZM17.3139 -14.3961C13.2116 -18.0077 7.93336 -20 2.46775 -20V20C-1.79724 20 -5.91597 18.4453 -9.11719 15.6271L17.3139 -14.3961ZM2.46775 -20C-2.99787 -20 -8.27606 -18.0077 -12.3784 -14.3961L14.0527 15.6271C10.8515 18.4453 6.73273 20 2.46775 20V-20ZM-12.3784 -14.3961C-16.4808 -10.7846 -19.1261 -5.80145 -19.8188 -0.379919L19.8586 4.68986C19.3181 8.92044 17.2539 12.8089 14.0527 15.6271L-12.3784 -14.3961ZM-19.8188 -0.379919C-20.5115 5.04162 -19.2043 10.5298 -16.1418 15.0568L16.9893 -7.35589C19.3791 -3.8233 20.3992 0.459267 19.8586 4.68986L-19.8188 -0.379919ZM-16.1418 15.0568C-13.0793 19.5839 -8.47166 22.8393 -3.18164 24.2136L6.87614 -14.5012C11.0041 -13.4288 14.5996 -10.8885 16.9893 -7.35589L-16.1418 15.0568ZM2.46747 20.5481C-2.01701 20.548 -6.34145 18.8814 -9.66612 15.8719L17.1777 -13.783C13.1472 -17.4314 7.9046 -19.4519 2.46802 -19.4519L2.46747 20.5481ZM-9.66612 15.8719C-12.9908 12.8624 -15.0784 8.72473 -15.5236 4.2624L24.2788 0.291352C23.7391 -5.11837 21.2082 -10.1345 17.1777 -13.783L-9.66612 15.8719ZM-15.5236 4.2624C-15.9688 -0.19992 -14.7398 -4.66847 -12.0753 -8.27552L20.0984 15.4912C23.3286 11.1183 24.8185 5.70107 24.2788 0.291352L-15.5236 4.2624ZM-12.0753 -8.27552C-9.41074 -11.8826 -5.50082 -14.3707 -1.10475 -15.2568L6.79866 23.9547C12.1281 22.8805 16.8681 19.8641 20.0984 15.4912L-12.0753 -8.27552ZM-1.04488 -15.2687C-4.0797 -14.6667 -6.93649 -13.378 -9.39644 -11.5014L14.8645 20.3012C12.471 22.127 9.69152 23.3808 6.73879 23.9666L-1.04488 -15.2687ZM-9.39644 -11.5014C-11.8564 -9.62486 -13.8542 -7.21017 -15.2368 -4.44233L20.5469 13.433C19.2016 16.126 17.2579 18.4754 14.8645 20.3012L-9.39644 -11.5014ZM-15.2414 -4.43322L-15.4286 -4.05785L20.3641 13.7993L20.5514 13.4239L-15.2414 -4.43322ZM20.3432 -4.09973L20.1553 -4.474L-15.5955 13.4669L-15.4077 13.8412L20.3432 -4.09973ZM20.1718 -4.44123C18.7891 -7.20901 16.7914 -9.62372 14.3314 -11.5003L-9.92951 20.3023C-12.323 18.4765 -14.2667 16.1271 -15.6119 13.4341L20.1718 -4.44123ZM14.3314 -11.5003C11.8714 -13.3769 9.01464 -14.6656 5.97982 -15.2677L-1.80385 23.9677C-4.75658 23.3819 -7.5361 22.1281 -9.92951 20.3023L14.3314 -11.5003ZM5.98206 -15.2672C10.3901 -14.3922 14.3142 -11.907 16.9895 -8.29606L-15.1505 15.5161C-11.9072 19.8937 -7.14994 22.9065 -1.80608 23.9673L5.98206 -15.2672ZM16.9895 -8.29606C19.6648 -4.68512 20.8995 -0.207295 20.4528 4.26445L-19.3491 0.288849C-19.8906 5.70999 -18.3938 11.1385 -15.1505 15.5161L16.9895 -8.29606ZM20.4528 4.26445C20.0062 8.7362 17.9102 12.8813 14.5735 15.8918L-12.2216 -13.8071C-16.2667 -10.1575 -18.8076 -5.1323 -19.3491 0.288849L20.4528 4.26445ZM14.5735 15.8918C11.2369 18.9022 6.89865 20.5621 2.40468 20.548L2.53082 -19.4518C-2.91728 -19.469 -8.17652 -17.4567 -12.2216 -13.8071L14.5735 15.8918Z" fill="white" mask="url(#path-11-inside-6_462_1216)"/>
<mask id="path-13-inside-7_462_1216" fill="white">
<path d="M2.46765 3.83837C2.7388 3.83837 3.00386 3.75796 3.22932 3.60732C3.45477 3.45668 3.63049 3.24256 3.73425 2.99205C3.83802 2.74154 3.86517 2.46588 3.81227 2.19994C3.75937 1.934 3.6288 1.68972 3.43707 1.49798C3.24533 1.30625 3.00105 1.17568 2.73511 1.12278C2.46917 1.06988 2.19351 1.09703 1.943 1.20079C1.69249 1.30456 1.47837 1.48028 1.32773 1.70573C1.17709 1.93119 1.09668 2.19625 1.09668 2.4674C1.09712 2.83087 1.2417 3.17933 1.49871 3.43634C1.75572 3.69335 2.10418 3.83793 2.46765 3.83837ZM2.46765 1.64482C2.63034 1.64482 2.78938 1.69307 2.92465 1.78345C3.05992 1.87384 3.16535 2.00231 3.22761 2.15262C3.28987 2.30292 3.30616 2.46832 3.27442 2.62788C3.24268 2.78745 3.16434 2.93402 3.0493 3.04906C2.93426 3.1641 2.78769 3.24244 2.62812 3.27418C2.46856 3.30592 2.30317 3.28963 2.15286 3.22737C2.00255 3.16511 1.87408 3.05968 1.7837 2.9244C1.69331 2.78913 1.64507 2.63009 1.64507 2.4674C1.64507 2.24924 1.73173 2.04001 1.88599 1.88575C2.04026 1.73149 2.24948 1.64482 2.46765 1.64482Z"/>
</mask>
<path d="M2.46765 3.83837C2.7388 3.83837 3.00386 3.75796 3.22932 3.60732C3.45477 3.45668 3.63049 3.24256 3.73425 2.99205C3.83802 2.74154 3.86517 2.46588 3.81227 2.19994C3.75937 1.934 3.6288 1.68972 3.43707 1.49798C3.24533 1.30625 3.00105 1.17568 2.73511 1.12278C2.46917 1.06988 2.19351 1.09703 1.943 1.20079C1.69249 1.30456 1.47837 1.48028 1.32773 1.70573C1.17709 1.93119 1.09668 2.19625 1.09668 2.4674C1.09712 2.83087 1.2417 3.17933 1.49871 3.43634C1.75572 3.69335 2.10418 3.83793 2.46765 3.83837ZM2.46765 1.64482C2.63034 1.64482 2.78938 1.69307 2.92465 1.78345C3.05992 1.87384 3.16535 2.00231 3.22761 2.15262C3.28987 2.30292 3.30616 2.46832 3.27442 2.62788C3.24268 2.78745 3.16434 2.93402 3.0493 3.04906C2.93426 3.1641 2.78769 3.24244 2.62812 3.27418C2.46856 3.30592 2.30317 3.28963 2.15286 3.22737C2.00255 3.16511 1.87408 3.05968 1.7837 2.9244C1.69331 2.78913 1.64507 2.63009 1.64507 2.4674C1.64507 2.24924 1.73173 2.04001 1.88599 1.88575C2.04026 1.73149 2.24948 1.64482 2.46765 1.64482Z" fill="white"/>
<path d="M2.46765 3.83837L2.44369 23.8384L2.45567 23.8384H2.46765V3.83837ZM1.09668 2.4674H-18.9033V2.47938L-18.9033 2.49136L1.09668 2.4674ZM2.46765 23.8384C6.69443 23.8384 10.8263 22.585 14.3407 20.2367L-7.88209 -13.0221C-4.81857 -15.0691 -1.21683 -16.1616 2.46765 -16.1616V23.8384ZM14.3407 20.2367C17.8551 17.8884 20.5943 14.5508 22.2118 10.6457L-14.7433 -4.66162C-13.3333 -8.06564 -10.9456 -10.9751 -7.88209 -13.0221L14.3407 20.2367ZM22.2118 10.6457C23.8294 6.74068 24.2526 2.4437 23.428 -1.70187L-15.8034 6.10175C-16.5222 2.48807 -16.1533 -1.25761 -14.7433 -4.66162L22.2118 10.6457ZM23.428 -1.70187C22.6034 -5.84743 20.568 -9.65537 17.5792 -12.6442L-10.7051 15.6401C-13.3104 13.0348 -15.0846 9.71543 -15.8034 6.10175L23.428 -1.70187ZM17.5792 -12.6442C14.5904 -15.6329 10.7825 -17.6683 6.63692 -18.4929L-1.1667 20.7385C-4.78038 20.0197 -8.09975 18.2454 -10.7051 15.6401L17.5792 -12.6442ZM6.63692 -18.4929C2.49135 -19.3175 -1.80564 -18.8943 -5.71067 -17.2768L9.59667 19.6784C6.19266 21.0884 2.44698 21.4573 -1.1667 20.7385L6.63692 -18.4929ZM-5.71067 -17.2768C-9.6157 -15.6593 -12.9534 -12.9201 -15.3017 -9.40567L17.9571 12.8171C15.9101 15.8807 13.0007 18.2684 9.59667 19.6784L-5.71067 -17.2768ZM-15.3017 -9.40567C-17.6499 -5.89123 -18.9033 -1.75937 -18.9033 2.4674H21.0967C21.0967 6.15188 20.0041 9.75361 17.9571 12.8171L-15.3017 -9.40567ZM-18.9033 2.49136C-18.8965 8.15086 -16.6453 13.5766 -12.6434 17.5785L15.6408 -10.7058C19.1287 -7.21795 21.0908 -2.48911 21.0967 2.44345L-18.9033 2.49136ZM-12.6434 17.5785C-8.64156 21.5803 -3.21581 23.8316 2.44369 23.8384L2.4916 -16.1616C7.42416 -16.1557 12.153 -14.1936 15.6408 -10.7058L-12.6434 17.5785ZM2.46765 21.6448C-1.32529 21.6448 -5.03305 20.5201 -8.18676 18.4128L14.0361 -14.8459C10.6118 -17.134 6.58597 -18.3552 2.46765 -18.3552V21.6448ZM-8.18676 18.4128C-11.3405 16.3056 -13.7985 13.3105 -15.25 9.80628L21.7052 -5.50105C20.1292 -9.30589 17.4603 -12.5579 14.0361 -14.8459L-8.18676 18.4128ZM-15.25 9.80628C-16.7015 6.30207 -17.0812 2.44613 -16.3413 -1.27393L22.8901 6.52969C23.6936 2.4905 23.2812 -1.69622 21.7052 -5.50105L-15.25 9.80628ZM-16.3413 -1.27393C-15.6013 -4.99397 -13.7749 -8.41107 -11.0928 -11.0931L17.1914 17.1912C20.1035 14.2791 22.0867 10.5689 22.8901 6.52969L-16.3413 -1.27393ZM-11.0928 -11.0931C-8.41082 -13.7751 -4.99373 -15.6016 -1.27368 -16.3415L6.52993 22.8899C10.5691 22.0864 14.2793 20.1033 17.1914 17.1912L-11.0928 -11.0931ZM-1.27368 -16.3415C2.44637 -17.0815 6.30231 -16.7017 9.80653 -15.2502L-5.50081 21.705C-1.69598 23.281 2.49075 23.6933 6.52993 22.8899L-1.27368 -16.3415ZM9.80653 -15.2502C13.3107 -13.7987 16.3059 -11.3407 18.4131 -8.187L-14.8457 14.0358C-12.5577 17.4601 -9.30564 20.1289 -5.50081 21.705L9.80653 -15.2502ZM18.4131 -8.187C20.5203 -5.03329 21.6451 -1.32554 21.6451 2.4674H-18.3549C-18.3549 6.58572 -17.1337 10.6116 -14.8457 14.0358L18.4131 -8.187ZM21.6451 2.4674C21.6451 7.55357 19.6246 12.4314 16.0281 16.0279L-12.2561 -12.2564C-16.1611 -8.35139 -18.3549 -3.05509 -18.3549 2.4674H21.6451ZM16.0281 16.0279C12.4317 19.6243 7.55382 21.6448 2.46765 21.6448V-18.3552C-3.05485 -18.3552 -8.35115 -16.1614 -12.2561 -12.2564L16.0281 16.0279Z" fill="white" mask="url(#path-13-inside-7_462_1216)"/>
<mask id="path-15-inside-8_462_1216" fill="white">
<path d="M4.38754 16.4514H0.548828V16.9998H4.38754V16.4514Z"/>
</mask>
<path d="M4.38754 16.4514H0.548828V16.9998H4.38754V16.4514Z" fill="white"/>
<path d="M0.548828 16.4514V-3.54858H-19.4512V16.4514H0.548828ZM4.38754 16.4514H24.3875V-3.54858H4.38754V16.4514ZM4.38754 16.9998V36.9998H24.3875V16.9998H4.38754ZM0.548828 16.9998H-19.4512V36.9998H0.548828V16.9998ZM0.548828 36.4514H4.38754V-3.54858H0.548828V36.4514ZM-15.6125 16.4514V16.9998H24.3875V16.4514H-15.6125ZM4.38754 -3.0002H0.548828V36.9998H4.38754V-3.0002ZM20.5488 16.9998V16.4514H-19.4512V16.9998H20.5488Z" fill="white" mask="url(#path-15-inside-8_462_1216)"/>
<mask id="path-17-inside-9_462_1216" fill="white">
<path d="M8.12473 14.0336L7.66797 14.323L7.96145 14.7862L8.41821 14.4969L8.12473 14.0336Z"/>
</mask>
<path d="M8.12473 14.0336L7.66797 14.323L7.96145 14.7862L8.41821 14.4969L8.12473 14.0336Z" fill="white"/>
<path d="M7.66797 14.323L-3.0353 -2.57197L-19.9303 8.1313L-9.227 25.0263L7.66797 14.323ZM8.12473 14.0336L25.0197 3.33036L14.3164 -13.5646L-2.57854 -2.86134L8.12473 14.0336ZM8.41821 14.4969L19.1215 31.3918L36.0164 20.6886L25.3132 3.79361L8.41821 14.4969ZM7.96145 14.7862L-8.93352 25.4895L1.76975 42.3845L18.6647 31.6812L7.96145 14.7862ZM18.3712 31.218L18.828 30.9286L-2.57854 -2.86134L-3.0353 -2.57197L18.3712 31.218ZM-8.77024 24.7369L-8.47676 25.2001L25.3132 3.79361L25.0197 3.33036L-8.77024 24.7369ZM-2.28506 -2.39809L-2.74182 -2.10872L18.6647 31.6812L19.1215 31.3918L-2.28506 -2.39809ZM24.8564 4.08298L24.5629 3.61973L-9.227 25.0263L-8.93352 25.4895L24.8564 4.08298Z" fill="white" mask="url(#path-17-inside-9_462_1216)"/>
<mask id="path-19-inside-10_462_1216" fill="white">
<path d="M9.95165 12.877L9.49512 13.1663L9.78859 13.6295L10.2451 13.3403L9.95165 12.877Z"/>
</mask>
<path d="M9.95165 12.877L9.49512 13.1663L9.78859 13.6295L10.2451 13.3403L9.95165 12.877Z" fill="white"/>
<path d="M9.49512 13.1663L-1.20815 -3.72871L-18.1031 6.97456L-7.39985 23.8695L9.49512 13.1663ZM9.95165 12.877L26.8466 2.17377L16.1433 -14.7212L-0.751622 -4.01793L9.95165 12.877ZM10.2451 13.3403L20.9484 30.2353L37.8434 19.532L27.1401 2.63702L10.2451 13.3403ZM9.78859 13.6295L-7.10638 24.3328L3.59689 41.2277L20.4919 30.5245L9.78859 13.6295ZM20.1984 30.0612L20.6549 29.772L-0.751622 -4.01793L-1.20815 -3.72871L20.1984 30.0612ZM-6.94332 23.5803L-6.64985 24.0436L27.1401 2.63702L26.8466 2.17377L-6.94332 23.5803ZM-0.458145 -3.55468L-0.914676 -3.26546L20.4919 30.5245L20.9484 30.2353L-0.458145 -3.55468ZM26.6836 2.92624L26.3901 2.46299L-7.39985 23.8695L-7.10638 24.3328L26.6836 2.92624Z" fill="white" mask="url(#path-19-inside-10_462_1216)"/>
<mask id="path-21-inside-11_462_1216" fill="white">
<path d="M10.8647 12.2987L10.4082 12.5879L10.7017 13.0511L11.1582 12.7619L10.8647 12.2987Z"/>
</mask>
<path d="M10.8647 12.2987L10.4082 12.5879L10.7017 13.0511L11.1582 12.7619L10.8647 12.2987Z" fill="white"/>
<path d="M10.4082 12.5879L-0.295067 -4.30708L-17.19 6.39619L-6.48677 23.2912L10.4082 12.5879ZM10.8647 12.2987L27.7597 1.5954L17.0564 -15.2996L0.161465 -4.5963L10.8647 12.2987ZM11.1582 12.7619L21.8615 29.6569L38.7565 18.9536L28.0532 2.05865L11.1582 12.7619ZM10.7017 13.0511L-6.19329 23.7544L4.50998 40.6494L21.405 29.9461L10.7017 13.0511ZM21.1115 29.4829L21.568 29.1936L0.161465 -4.5963L-0.295067 -4.30708L21.1115 29.4829ZM-6.03023 23.0019L-5.73676 23.4652L28.0532 2.05865L27.7597 1.5954L-6.03023 23.0019ZM0.454942 -4.13305L-0.00159031 -3.84383L21.405 29.9461L21.8615 29.6569L0.454942 -4.13305ZM27.5966 2.34787L27.3032 1.88462L-6.48677 23.2912L-6.19329 23.7544L27.5966 2.34787Z" fill="white" mask="url(#path-21-inside-11_462_1216)"/>
<mask id="path-23-inside-12_462_1216" fill="white">
<path d="M11.7778 11.7201L11.3213 12.0093L11.6148 12.4725L12.0713 12.1833L11.7778 11.7201Z"/>
</mask>
<path d="M11.7778 11.7201L11.3213 12.0093L11.6148 12.4725L12.0713 12.1833L11.7778 11.7201Z" fill="white"/>
<path d="M11.3213 12.0093L0.618019 -4.88569L-16.277 5.81758L-5.57368 22.7125L11.3213 12.0093ZM11.7778 11.7201L28.6728 1.01679L17.9695 -15.8782L1.07455 -5.17491L11.7778 11.7201ZM12.0713 12.1833L22.7746 29.0783L39.6695 18.375L28.9663 1.48003L12.0713 12.1833ZM11.6148 12.4725L-5.2802 23.1758L5.42307 40.0708L22.318 29.3675L11.6148 12.4725ZM22.0246 28.9042L22.4811 28.615L1.07455 -5.17491L0.618019 -4.88569L22.0246 28.9042ZM-5.11715 22.4233L-4.82367 22.8866L28.9663 1.48003L28.6728 1.01679L-5.11715 22.4233ZM1.36803 -4.71166L0.911496 -4.42244L22.318 29.3675L22.7746 29.0783L1.36803 -4.71166ZM28.5097 1.76926L28.2163 1.30601L-5.57368 22.7125L-5.2802 23.1758L28.5097 1.76926Z" fill="white" mask="url(#path-23-inside-12_462_1216)"/>
<mask id="path-25-inside-13_462_1216" fill="white">
<path d="M9.03856 13.4552L8.58203 13.7444L8.87551 14.2076L9.33204 13.9184L9.03856 13.4552Z"/>
</mask>
<path d="M9.03856 13.4552L8.58203 13.7444L8.87551 14.2076L9.33204 13.9184L9.03856 13.4552Z" fill="white"/>
<path d="M8.58203 13.7444L-2.12124 -3.15059L-19.0162 7.55269L-8.31294 24.4477L8.58203 13.7444ZM9.03856 13.4552L25.9335 2.75189L15.2303 -14.1431L-1.66471 -3.43981L9.03856 13.4552ZM9.33204 13.9184L20.0353 30.8134L36.9303 20.1101L26.227 3.21514L9.33204 13.9184ZM8.87551 14.2076L-8.01946 24.9109L2.68381 41.8059L19.5788 31.1026L8.87551 14.2076ZM19.2853 30.6394L19.7418 30.3501L-1.66471 -3.43981L-2.12124 -3.15059L19.2853 30.6394ZM-7.85641 24.1584L-7.56293 24.6217L26.227 3.21514L25.9335 2.75189L-7.85641 24.1584ZM-1.37123 -2.97656L-1.82776 -2.68734L19.5788 31.1026L20.0353 30.8134L-1.37123 -2.97656ZM25.7705 3.50436L25.477 3.04111L-8.31294 24.4477L-8.01946 24.9109L25.7705 3.50436Z" fill="white" mask="url(#path-25-inside-13_462_1216)"/>
<mask id="path-27-inside-14_462_1216" fill="white">
<path d="M6.29856 15.1901L5.8418 15.4795L6.13527 15.9427L6.59204 15.6534L6.29856 15.1901Z"/>
</mask>
<path d="M6.29856 15.1901L5.8418 15.4795L6.13527 15.9427L6.59204 15.6534L6.29856 15.1901Z" fill="white"/>
<path d="M5.8418 15.4795L-4.86147 -1.41548L-21.7564 9.28779L-11.0532 26.1828L5.8418 15.4795ZM6.29856 15.1901L23.1935 4.48685L12.4903 -12.4081L-4.40471 -1.70485L6.29856 15.1901ZM6.59204 15.6534L17.2953 32.5483L34.1903 21.8451L23.487 4.9501L6.59204 15.6534ZM6.13527 15.9427L-10.7597 26.646L-0.0564256 43.541L16.8385 32.8377L6.13527 15.9427ZM16.5451 32.3745L17.0018 32.0851L-4.40471 -1.70485L-4.86147 -1.41548L16.5451 32.3745ZM-10.5964 25.8934L-10.3029 26.3566L23.487 4.9501L23.1935 4.48685L-10.5964 25.8934ZM-4.11123 -1.2416L-4.568 -0.952228L16.8385 32.8377L17.2953 32.5483L-4.11123 -1.2416ZM23.0302 5.23947L22.7368 4.77622L-11.0532 26.1828L-10.7597 26.646L23.0302 5.23947Z" fill="white" mask="url(#path-27-inside-14_462_1216)"/>
<mask id="path-29-inside-15_462_1216" fill="white">
<path d="M5.38622 15.7689L4.92969 16.0581L5.22316 16.5214L5.6797 16.2321L5.38622 15.7689Z"/>
</mask>
<path d="M5.38622 15.7689L4.92969 16.0581L5.22316 16.5214L5.6797 16.2321L5.38622 15.7689Z" fill="white"/>
<path d="M4.92969 16.0581L-5.77358 -0.836864L-22.6686 9.86641L-11.9653 26.7614L4.92969 16.0581ZM5.38622 15.7689L22.2812 5.06561L11.5779 -11.8294L-5.31705 -1.12609L5.38622 15.7689ZM5.6797 16.2321L16.383 33.1271L33.2779 22.4238L22.5747 5.52886L5.6797 16.2321ZM5.22316 16.5214L-11.6718 27.2246L-0.968535 44.1196L15.9264 33.4163L5.22316 16.5214ZM15.633 32.9531L16.0895 32.6639L-5.31705 -1.12609L-5.77358 -0.836864L15.633 32.9531ZM-11.5088 26.4722L-11.2153 26.9354L22.5747 5.52886L22.2812 5.06561L-11.5088 26.4722ZM-5.02357 -0.662836L-5.48011 -0.373615L15.9264 33.4163L16.383 33.1271L-5.02357 -0.662836ZM22.1181 5.81808L21.8247 5.35484L-11.9653 26.7614L-11.6718 27.2246L22.1181 5.81808Z" fill="white" mask="url(#path-29-inside-15_462_1216)"/>
<mask id="path-31-inside-16_462_1216" fill="white">
<path d="M7.21239 14.6119L6.75586 14.9011L7.04934 15.3644L7.50587 15.0752L7.21239 14.6119Z"/>
</mask>
<path d="M7.21239 14.6119L6.75586 14.9011L7.04934 15.3644L7.50587 15.0752L7.21239 14.6119Z" fill="white"/>
<path d="M6.75586 14.9011L-3.94741 -1.99385L-20.8424 8.70942L-10.1391 25.6044L6.75586 14.9011ZM7.21239 14.6119L24.1074 3.90863L13.4041 -12.9863L-3.49088 -2.28307L7.21239 14.6119ZM7.50587 15.0752L18.2091 31.9701L35.1041 21.2669L24.4008 4.37188L7.50587 15.0752ZM7.04934 15.3644L-9.84563 26.0676L0.857637 42.9626L17.7526 32.2593L7.04934 15.3644ZM17.4591 31.7961L17.9157 31.5069L-3.49088 -2.28307L-3.94741 -1.99385L17.4591 31.7961ZM-9.68258 25.3152L-9.3891 25.7784L24.4008 4.37188L24.1074 3.90863L-9.68258 25.3152ZM-3.1974 -1.81982L-3.65393 -1.5306L17.7526 32.2593L18.2091 31.9701L-3.1974 -1.81982ZM23.9443 4.6611L23.6508 4.19785L-10.1391 25.6044L-9.84563 26.0676L23.9443 4.6611Z" fill="white" mask="url(#path-31-inside-16_462_1216)"/>
<mask id="path-33-inside-17_462_1216" fill="white">
<path d="M11.6064 10.5923L11.3242 11.0625L11.7803 11.3362L12.0625 10.866L11.6064 10.5923Z"/>
</mask>
<path d="M11.6064 10.5923L11.3242 11.0625L11.7803 11.3362L12.0625 10.866L11.6064 10.5923Z" fill="white"/>
<path d="M11.3242 11.0625L-5.8247 0.771015L-16.1162 17.9199L1.03273 28.2114L11.3242 11.0625ZM11.6064 10.5923L21.8979 -6.55663L4.74897 -16.8481L-5.54251 0.300803L11.6064 10.5923ZM12.0625 10.866L29.2114 21.1575L39.5029 4.00858L22.354 -6.28291L12.0625 10.866ZM11.7803 11.3362L1.48884 28.4851L18.6378 38.7766L28.9292 21.6277L11.7803 11.3362ZM28.4731 21.354L28.7553 20.8838L-5.54251 0.300803L-5.8247 0.771015L28.4731 21.354ZM1.31492 27.7412L1.77103 28.0149L22.354 -6.28291L21.8979 -6.55663L1.31492 27.7412ZM-5.08641 0.574523L-5.36859 1.04474L28.9292 21.6277L29.2114 21.1575L-5.08641 0.574523ZM22.0718 -5.8127L21.6157 -6.08642L1.03273 28.2114L1.48884 28.4851L22.0718 -5.8127Z" fill="white" mask="url(#path-33-inside-17_462_1216)"/>
<mask id="path-35-inside-18_462_1216" fill="white">
<path d="M5.21956 6.76018L4.9375 7.23047L5.39368 7.50407L5.67574 7.03378L5.21956 6.76018Z"/>
</mask>
<path d="M5.21956 6.76018L4.9375 7.23047L5.39368 7.50407L5.67574 7.03378L5.21956 6.76018Z" fill="white"/>
<path d="M4.9375 7.23047L-12.2141 -3.05653L-22.5011 14.0951L-5.3495 24.3821L4.9375 7.23047ZM5.21956 6.76018L15.5066 -10.3914L-1.64505 -20.6784L-11.932 -3.52681L5.21956 6.76018ZM5.67574 7.03378L22.8274 17.3208L33.1143 0.169167L15.9627 -10.1178L5.67574 7.03378ZM5.39368 7.50407L-4.89332 24.6557L12.2583 34.9427L22.5453 17.7911L5.39368 7.50407ZM22.0891 17.5175L22.3712 17.0472L-11.932 -3.52681L-12.2141 -3.05653L22.0891 17.5175ZM-5.06743 23.9118L-4.61125 24.1854L15.9627 -10.1178L15.5066 -10.3914L-5.06743 23.9118ZM-11.4759 -3.25321L-11.7579 -2.78293L22.5453 17.7911L22.8274 17.3208L-11.4759 -3.25321ZM15.6807 -9.64754L15.2245 -9.92114L-5.3495 24.3821L-4.89332 24.6557L15.6807 -9.64754Z" fill="white" mask="url(#path-35-inside-18_462_1216)"/>
<mask id="path-37-inside-19_462_1216" fill="white">
<path d="M6.1318 7.30762L5.84961 7.77783L6.30572 8.05155L6.5879 7.58134L6.1318 7.30762Z"/>
</mask>
<path d="M6.1318 7.30762L5.84961 7.77783L6.30572 8.05155L6.5879 7.58134L6.1318 7.30762Z" fill="white"/>
<path d="M5.84961 7.77783L-11.2993 -2.51365L-21.5908 14.6353L-4.44188 24.9267L5.84961 7.77783ZM6.1318 7.30762L16.4233 -9.8413L-0.725637 -20.1328L-11.0171 -2.98386L6.1318 7.30762ZM6.5879 7.58134L23.7368 17.8728L34.0283 0.723907L16.8794 -9.56758L6.5879 7.58134ZM6.30572 8.05155L-3.98577 25.2005L13.1631 35.492L23.4546 18.343L6.30572 8.05155ZM22.9985 18.0693L23.2807 17.5991L-11.0171 -2.98386L-11.2993 -2.51365L22.9985 18.0693ZM-4.15969 24.4565L-3.70358 24.7303L16.8794 -9.56758L16.4233 -9.8413L-4.15969 24.4565ZM-10.561 -2.71014L-10.8432 -2.23993L23.4546 18.343L23.7368 17.8728L-10.561 -2.71014ZM16.5972 -9.09736L16.1411 -9.37108L-4.44188 24.9267L-3.98577 25.2005L16.5972 -9.09736Z" fill="white" mask="url(#path-37-inside-19_462_1216)"/>
<mask id="path-39-inside-20_462_1216" fill="white">
<path d="M10.6932 10.0446L10.4111 10.5149L10.8673 10.7885L11.1494 10.3182L10.6932 10.0446Z"/>
</mask>
<path d="M10.6932 10.0446L10.4111 10.5149L10.8673 10.7885L11.1494 10.3182L10.6932 10.0446Z" fill="white"/>
<path d="M10.4111 10.5149L-6.74048 0.227897L-17.0275 17.3795L0.124138 27.6665L10.4111 10.5149ZM10.6932 10.0446L20.9802 -7.107L3.82858 -17.394L-6.45842 -0.242388L10.6932 10.0446ZM11.1494 10.3182L28.301 20.6052L38.588 3.45359L21.4364 -6.8334L11.1494 10.3182ZM10.8673 10.7885L0.580315 27.9401L17.7319 38.2271L28.0189 21.0755L10.8673 10.7885ZM27.5627 20.8019L27.8448 20.3316L-6.45842 -0.242388L-6.74048 0.227897L27.5627 20.8019ZM0.406201 27.1962L0.862378 27.4698L21.4364 -6.8334L20.9802 -7.107L0.406201 27.1962ZM-6.00224 0.0312121L-6.2843 0.501498L28.0189 21.0755L28.301 20.6052L-6.00224 0.0312121ZM21.1543 -6.36312L20.6981 -6.63672L0.124138 27.6665L0.580315 27.9401L21.1543 -6.36312Z" fill="white" mask="url(#path-39-inside-20_462_1216)"/>
<mask id="path-41-inside-21_462_1216" fill="white">
<path d="M7.04476 7.85491L6.7627 8.3252L7.21887 8.5988L7.50094 8.12851L7.04476 7.85491Z"/>
</mask>
<path d="M7.04476 7.85491L6.7627 8.3252L7.21887 8.5988L7.50094 8.12851L7.04476 7.85491Z" fill="white"/>
<path d="M6.7627 8.3252L-10.3889 -1.9618L-20.6759 15.1898L-3.5243 25.4768L6.7627 8.3252ZM7.04476 7.85491L17.3318 -9.2967L0.180143 -19.5837L-10.1069 -2.43209L7.04476 7.85491ZM7.50094 8.12851L24.6525 18.4155L34.9395 1.26389L17.7879 -9.0231L7.50094 8.12851ZM7.21887 8.5988L-3.06812 25.7504L14.0835 36.0374L24.3705 18.8858L7.21887 8.5988ZM23.9143 18.6122L24.1964 18.1419L-10.1069 -2.43209L-10.3889 -1.9618L23.9143 18.6122ZM-3.24224 25.0065L-2.78606 25.2801L17.7879 -9.0231L17.3318 -9.2967L-3.24224 25.0065ZM-9.65068 -2.15849L-9.93274 -1.6882L24.3705 18.8858L24.6525 18.4155L-9.65068 -2.15849ZM17.5059 -8.55281L17.0497 -8.82642L-3.5243 25.4768L-3.06812 25.7504L17.5059 -8.55281Z" fill="white" mask="url(#path-41-inside-21_462_1216)"/>
<mask id="path-43-inside-22_462_1216" fill="white">
<path d="M9.78121 9.49732L9.49902 9.96753L9.95513 10.2412L10.2373 9.77104L9.78121 9.49732Z"/>
</mask>
<path d="M9.78121 9.49732L9.49902 9.96753L9.95513 10.2412L10.2373 9.77104L9.78121 9.49732Z" fill="white"/>
<path d="M9.49902 9.96753L-7.64989 -0.323955L-17.9414 16.825L-0.792461 27.1164L9.49902 9.96753ZM9.78121 9.49732L20.0727 -7.6516L2.92378 -17.9431L-7.36771 -0.794167L9.78121 9.49732ZM10.2373 9.77104L27.3862 20.0625L37.6777 2.9136L20.5288 -7.37788L10.2373 9.77104ZM9.95513 10.2412L-0.336356 27.3902L16.8126 37.6817L27.104 20.5327L9.95513 10.2412ZM26.6479 20.259L26.9301 19.7888L-7.36771 -0.794167L-7.64989 -0.323955L26.6479 20.259ZM-0.510275 26.6462L-0.0541698 26.92L20.5288 -7.37788L20.0727 -7.6516L-0.510275 26.6462ZM-6.9116 -0.520447L-7.19379 -0.0502354L27.104 20.5327L27.3862 20.0625L-6.9116 -0.520447ZM20.2466 -6.90767L19.7905 -7.18139L-0.792461 27.1164L-0.336356 27.3902L20.2466 -6.90767Z" fill="white" mask="url(#path-43-inside-22_462_1216)"/>
<mask id="path-45-inside-23_462_1216" fill="white">
<path d="M7.95699 8.40259L7.6748 8.8728L8.13091 9.14652L8.4131 8.67631L7.95699 8.40259Z"/>
</mask>
<path d="M7.95699 8.40259L7.6748 8.8728L8.13091 9.14652L8.4131 8.67631L7.95699 8.40259Z" fill="white"/>
<path d="M7.6748 8.8728L-9.47411 -1.41868L-19.7656 15.7302L-2.61668 26.0217L7.6748 8.8728ZM7.95699 8.40259L18.2485 -8.74633L1.09956 -19.0378L-9.19193 -1.88889L7.95699 8.40259ZM8.4131 8.67631L25.562 18.9678L35.8535 1.81888L18.7046 -8.47261L8.4131 8.67631ZM8.13091 9.14652L-2.16057 26.2954L14.9883 36.5869L25.2798 19.438L8.13091 9.14652ZM24.8237 19.1643L25.1059 18.6941L-9.19193 -1.88889L-9.47411 -1.41868L24.8237 19.1643ZM-2.33449 25.5515L-1.87839 25.8252L18.7046 -8.47261L18.2485 -8.74633L-2.33449 25.5515ZM-8.73582 -1.61517L-9.01801 -1.14496L25.2798 19.438L25.562 18.9678L-8.73582 -1.61517ZM18.4224 -8.00239L17.9663 -8.27611L-2.61668 26.0217L-2.16057 26.2954L18.4224 -8.00239Z" fill="white" mask="url(#path-45-inside-23_462_1216)"/>
<mask id="path-47-inside-24_462_1216" fill="white">
<path d="M8.86995 8.94988L8.58789 9.42017L9.04407 9.69377L9.32613 9.22348L8.86995 8.94988Z"/>
</mask>
<path d="M8.86995 8.94988L8.58789 9.42017L9.04407 9.69377L9.32613 9.22348L8.86995 8.94988Z" fill="white"/>
<path d="M8.58789 9.42017L-8.56372 -0.866829L-18.8507 16.2848L-1.6991 26.5718L8.58789 9.42017ZM8.86995 8.94988L19.1569 -8.20173L2.00534 -18.4887L-8.28166 -1.33711L8.86995 8.94988ZM9.32613 9.22348L26.4777 19.5105L36.7647 2.35886L19.6131 -7.92813L9.32613 9.22348ZM9.04407 9.69377L-1.24293 26.8454L15.9087 37.1324L26.1957 19.9808L9.04407 9.69377ZM25.7395 19.7072L26.0216 19.2369L-8.28166 -1.33711L-8.56372 -0.866829L25.7395 19.7072ZM-1.41704 26.1015L-0.960865 26.3751L19.6131 -7.92813L19.1569 -8.20173L-1.41704 26.1015ZM-7.82548 -1.06351L-8.10754 -0.593229L26.1957 19.9808L26.4777 19.5105L-7.82548 -1.06351ZM19.3311 -7.45784L18.8749 -7.73144L-1.6991 26.5718L-1.24293 26.8454L19.3311 -7.45784Z" fill="white" mask="url(#path-47-inside-24_462_1216)"/>
<mask id="path-49-inside-25_462_1216" fill="white">
<path d="M4.38754 6.30615H0.548828V6.85454H4.38754V6.30615Z"/>
</mask>
<path d="M4.38754 6.30615H0.548828V6.85454H4.38754V6.30615Z" fill="white"/>
<path d="M0.548828 6.30615V-13.6938H-19.4512V6.30615H0.548828ZM4.38754 6.30615H24.3875V-13.6938H4.38754V6.30615ZM4.38754 6.85454V26.8545H24.3875V6.85454H4.38754ZM0.548828 6.85454H-19.4512V26.8545H0.548828V6.85454ZM0.548828 26.3062H4.38754V-13.6938H0.548828V26.3062ZM-15.6125 6.30615V6.85454H24.3875V6.30615H-15.6125ZM4.38754 -13.1455H0.548828V26.8545H4.38754V-13.1455ZM20.5488 6.85454V6.30615H-19.4512V6.85454H20.5488Z" fill="white" mask="url(#path-49-inside-25_462_1216)"/>
</svg>
