<svg width="70" height="70" viewBox="0 0 70 70" fill="none" xmlns="http://www.w3.org/2000/svg">
<g clip-path="url(#clip0_423_4666)">
<path d="M35 0C28.0777 0 21.3108 2.05271 15.5551 5.89856C9.79934 9.74441 5.3133 15.2107 2.66423 21.6061C0.015165 28.0015 -0.677952 35.0388 0.672531 41.8282C2.02301 48.6175 5.35644 54.8539 10.2513 59.7487C15.1461 64.6436 21.3825 67.977 28.1719 69.3275C34.9612 70.678 41.9985 69.9849 48.3939 67.3358C54.7893 64.6867 60.2556 60.2007 64.1014 54.445C67.9473 48.6892 70 41.9223 70 35C69.9899 25.7205 66.2991 16.824 59.7376 10.2625C53.176 3.70088 44.2795 0.0101351 35 0ZM35 64.1667C29.2314 64.1667 23.5923 62.4561 18.7959 59.2512C13.9994 56.0463 10.2611 51.4911 8.05353 46.1616C5.84597 40.8321 5.26838 34.9676 6.39378 29.3099C7.51918 23.6521 10.297 18.4551 14.3761 14.3761C18.4551 10.297 23.6521 7.51917 29.3099 6.39376C34.9677 5.26836 40.8321 5.84596 46.1616 8.05351C51.4911 10.2611 56.0463 13.9994 59.2512 18.7959C62.4561 23.5923 64.1667 29.2314 64.1667 35C64.158 42.7328 61.0823 50.1464 55.6144 55.6143C50.1464 61.0823 42.7328 64.158 35 64.1667Z" fill="white"/>
<path d="M46.5915 31.1718L33.4163 21.9753C32.7166 21.4873 31.8965 21.2004 31.0452 21.1458C30.1939 21.0912 29.3438 21.271 28.5875 21.6656C27.8312 22.0602 27.1975 22.6545 26.7552 23.384C26.313 24.1135 26.0791 24.9503 26.0791 25.8034V44.1966C26.0785 45.05 26.3119 45.8871 26.754 46.617C27.1961 47.3469 27.83 47.9416 28.5865 48.3363C29.3431 48.731 30.1934 48.9107 31.045 48.8557C31.8966 48.8008 32.7168 48.5133 33.4163 48.0246L46.5915 38.828V38.8256C47.2077 38.3956 47.711 37.8231 48.0585 37.1568C48.4061 36.4905 48.5875 35.7501 48.5875 34.9987C48.5875 34.2472 48.4061 33.5068 48.0585 32.8405C47.711 32.1742 47.2077 31.6019 46.5915 31.1718Z" fill="white"/>
</g>
<defs>
<clipPath id="clip0_423_4666">
<rect width="70" height="70" fill="white"/>
</clipPath>
</defs>
</svg>
