<svg width="17" height="19" viewBox="0 0 17 19" fill="none" xmlns="http://www.w3.org/2000/svg">
<path d="M16.6484 12.2681L15.896 10.9134L14.2784 11.8128L15.0299 13.1648C15.0743 13.2435 15.1057 13.3249 15.1261 13.4091C15.1601 13.562 15.1556 13.721 15.1131 13.8718C15.0907 13.9482 15.0583 14.0213 15.0169 14.0893C14.9388 14.223 14.8284 14.335 14.6958 14.415C14.5523 14.5002 14.388 14.5441 14.2211 14.5418H9.96337V12.691L6.26183 15.4672L9.96337 18.2433V16.3926H14.2211C14.4783 16.3926 14.7319 16.3583 14.9716 16.2917C15.4345 16.1639 15.8556 15.9162 16.1921 15.5736C16.3569 15.408 16.4994 15.222 16.6141 15.0248C16.9793 14.4077 17.0908 13.6728 16.9251 12.9751C16.8639 12.7284 16.7709 12.4908 16.6484 12.2681ZM2.43258 8.10018L0.294935 12.3755C0.184243 12.5968 0.103042 12.8317 0.0534088 13.0741C-0.0370151 13.5282 -0.0123239 13.9977 0.12523 14.4398C0.262785 14.8818 0.508825 15.2825 0.840913 15.6051C1.00563 15.7661 1.18886 15.9067 1.39152 16.0243C1.81399 16.2656 2.29212 16.3926 2.77867 16.3926H4.41105V14.5418H2.77867C2.61665 14.5422 2.45727 14.5008 2.31598 14.4215C2.18103 14.3439 2.06848 14.2326 1.98932 14.0985C1.90807 13.9679 1.86068 13.819 1.85143 13.6655C1.84697 13.5895 1.85257 13.5132 1.86809 13.4387C1.88475 13.3582 1.91251 13.2786 1.95045 13.2018L4.03812 9.02649L5.51782 9.88062L4.96443 5.28793L0.709508 7.10539L2.43258 8.10018ZM14.2183 9.88155L14.7717 5.28793L13.2559 6.16242L10.625 1.42722C10.4414 1.09042 10.1888 0.796115 9.88378 0.563481C9.57876 0.330847 9.22813 0.165112 8.85476 0.077079C8.62058 0.0228169 8.38072 -0.00297201 8.14036 0.000271942C7.65106 0.00944541 7.17286 0.14767 6.75413 0.400964C6.30716 0.672259 5.94694 1.06554 5.71585 1.53456L5.03847 2.88933L6.69398 3.71755L7.37136 2.36186C7.41301 2.27857 7.46483 2.20362 7.52498 2.13791C7.63526 2.01755 7.7774 1.93091 7.93492 1.88806C8.09486 1.8429 8.2637 1.83939 8.42538 1.87788C8.5489 1.90687 8.66481 1.96191 8.76536 2.03931C8.8659 2.11671 8.94875 2.21469 9.00837 2.32669L11.6531 7.08873L9.96337 8.06409L14.2183 9.88155Z" fill="white"/>
</svg>
