<svg width="21" height="23" viewBox="0 0 21 23" fill="none" xmlns="http://www.w3.org/2000/svg">
<path d="M13.6312 2.87744C9.88593 2.87744 6.84791 5.65038 6.80051 9.086L6.79635 9.07786C6.79635 9.07786 6.78854 9.39315 6.83802 9.9164C6.85312 9.99163 7.13854 11.4114 7.72864 12.4656L7.72968 12.4665L13.6312 23L19.2922 12.939C19.2922 12.939 20.1073 11.3266 20.2969 10.4425C20.3026 10.4104 20.3078 10.3783 20.3135 10.3462C20.3177 10.3232 20.3224 10.2978 20.325 10.2758C20.4213 9.68161 20.4474 9.16746 20.4547 8.95519C20.3333 5.58042 17.3292 2.87744 13.6312 2.87744Z" fill="#B5B5B5"/>
<path d="M8.35841 19.1667L3.35164 9.87179L3.3506 9.87083C2.87716 8.99108 2.67924 7.85019 2.67924 7.85019C2.66726 7.76106 2.65841 7.67242 2.6506 7.58281C2.62716 7.32215 2.62924 7.18702 2.62924 7.18702C2.62924 4.27656 5.19383 1.91667 8.35841 1.91667C9.04487 1.91667 9.7006 2.03358 10.31 2.23723C11.2157 1.8606 12.2095 1.63683 13.2563 1.59227C11.9178 0.596562 10.2147 0 8.35841 0C4.07716 0 0.604765 3.16921 0.551119 7.09646L0.545911 7.08735C0.545911 7.08735 0.537057 7.44769 0.593827 8.04569C0.611015 8.13194 0.937577 9.7544 1.61206 10.9595L1.6131 10.9605L8.35841 23L10.324 19.5059L9.22352 17.5409L8.35841 19.1667Z" fill="#B5B5B5"/>
</svg>
