<svg width="20" height="18" viewBox="0 0 20 18" fill="none" xmlns="http://www.w3.org/2000/svg">
<path d="M7.1209 9.46152C7.1209 8.30767 7.58244 7.18679 8.40661 6.36261C9.09892 5.67031 9.98903 5.24174 10.9121 5.10987V2.83514L6.29672 0.593384V15.3626L10.9121 17.6044V13.7802C9.98903 13.6483 9.09892 13.2527 8.40661 12.5274C7.54947 11.7362 7.1209 10.6154 7.1209 9.46152Z" fill="#6F3995"/>
<path d="M17.3407 0.494507C17.1758 0.395606 16.978 0.395606 16.8132 0.46154L12.033 2.83517V5.10989C12.989 5.24176 13.9121 5.67033 14.6044 6.36264C15.4286 7.18681 15.8901 8.27473 15.8901 9.46154C15.8901 10.4506 15.5605 11.3736 14.9671 12.1319L17.7033 14.8681L17.6044 0.956046C17.6044 0.758244 17.5055 0.593409 17.3407 0.494507Z" fill="#6F3995"/>
<path d="M5.17584 0.626404L0.494519 3.2308C0.329684 3.3297 0.197815 3.5275 0.197815 3.7253V17.2418C0.197815 17.4396 0.296716 17.6374 0.461552 17.7363C0.626387 17.8352 0.857156 17.8352 1.02199 17.7363L5.14287 15.4286V0.626404H5.17584Z" fill="#6F3995"/>
<path d="M12.033 13.7802V17.6044L16.9121 15.6264L14.1758 12.8901C13.5165 13.4176 12.7912 13.7143 12.033 13.7802Z" fill="#6F3995"/>
<path d="M11.5055 6.19781C10.6484 6.19781 9.82418 6.52749 9.1978 7.15386C8.57143 7.78023 8.24176 8.60441 8.24176 9.46155C8.24176 10.3187 8.57143 11.1429 9.1978 11.7692C10.4835 13.055 12.5604 13.055 13.8132 11.7692C14.4396 11.1429 14.7692 10.3187 14.7692 9.46155C14.7692 8.60441 14.4396 7.78023 13.8132 7.15386C13.1868 6.52749 12.3626 6.19781 11.5055 6.19781Z" fill="#6F3995"/>
<path d="M17.7033 14.934C17.7033 15.1648 17.5714 15.3626 17.3736 15.4615L16.9451 15.6264L18.7912 17.4725L19.5824 16.6813L17.7363 14.8351L17.7033 14.934Z" fill="#6F3995"/>
</svg>
