<svg width="26" height="18" viewBox="0 0 26 18" fill="none" xmlns="http://www.w3.org/2000/svg">
<path d="M6.26257 0.458496C4.69554 0.458496 3.68584 1.31374 3.63548 2.67256H5.0235C5.06328 2.05049 5.52497 1.65863 6.22194 1.65863C6.92399 1.65863 7.37298 2.02594 7.37298 2.60316C7.37298 3.1918 6.91087 3.59001 6.22871 3.59001H5.35358V4.70889H6.24395C7.05094 4.70889 7.54225 5.09779 7.54225 5.72451C7.54225 6.33643 7.02005 6.75876 6.26934 6.75876C5.49873 6.75876 4.98457 6.3762 4.94056 5.76852H3.50345C3.56862 7.12142 4.65068 8.00798 6.2541 8.00798C7.89137 8.00798 9.07585 7.09645 9.07585 5.83792C9.07585 4.8917 8.45843 4.23493 7.47285 4.1266V4.03688C8.2735 3.87311 8.79655 3.22523 8.79655 2.39495C8.79655 1.26465 7.73522 0.458496 6.26257 0.458496ZM13.1417 0.458496C11.2704 0.458496 10.1456 1.90153 10.1456 4.28571C10.1456 5.27044 10.3505 6.09606 10.7482 6.70798C11.2404 7.54967 12.077 8.00713 13.118 8.00798C14.7248 8.00798 15.8636 6.94792 15.8636 5.45537C15.8636 4.08174 14.8628 3.07204 13.5006 3.07204C12.6644 3.07204 11.9966 3.45501 11.6691 4.13167H11.5794C11.5497 2.64378 12.1468 1.69248 13.1316 1.69248C13.6948 1.69248 14.1413 1.9904 14.2809 2.46266H15.7688C15.5653 1.26423 14.5039 0.458496 13.1417 0.458496ZM19.7179 0.458496C17.9516 0.458496 16.8657 1.84144 16.8657 4.21969C16.8657 6.60303 17.9423 8.00798 19.7179 8.00798C21.4936 8.00798 22.5667 6.59922 22.5667 4.22646C22.5667 1.84229 21.4792 0.458496 19.7179 0.458496ZM19.7179 1.6874C20.5376 1.6874 21.045 2.54772 21.045 4.21969C21.045 5.90182 20.5431 6.7833 19.7179 6.78245C18.8974 6.78245 18.3891 5.89674 18.3891 4.21969C18.3891 2.55322 18.9016 1.6874 19.7179 1.6874ZM13.1062 4.22985C13.8577 4.22985 14.4045 4.76771 14.4045 5.49938C14.4045 6.22048 13.8387 6.77399 13.1028 6.77399C12.366 6.77399 11.8028 6.21582 11.8028 5.48415C11.8028 4.76729 12.3546 4.22985 13.1062 4.22985ZM2.59954 8.9999C2.59954 8.9999 0.866211 9.45059 0.866211 11.5999C0.866211 13.9866 3.48102 15.9332 10.3995 15.9332V17.0961C10.3995 17.5849 10.9759 17.8468 11.3441 17.5244L13.9712 15.2257C14.3292 14.913 14.3292 14.3544 13.9712 14.0408L11.3441 11.7421C10.9759 11.4196 10.3995 11.6807 10.3995 12.1703V13.3332C4.48184 13.3332 2.16621 11.9266 2.16621 10.7332C2.16621 10.1649 2.59954 9.86657 2.59954 9.86657V8.9999ZM23.3995 8.9999V9.86657C23.3995 9.86657 23.8329 10.1649 23.8329 10.7332C23.8329 11.9266 21.5173 13.3332 15.5995 13.3332V15.9332C22.5181 15.9332 25.1329 13.9866 25.1329 11.5999C25.1329 9.45059 23.3995 8.9999 23.3995 8.9999Z" fill="#308138"/>
</svg>
