<svg width="25" height="25" viewBox="0 0 17 17" fill="none" xmlns="http://www.w3.org/2000/svg">
<path d="M8.5 0L10.344 4.67088L15.1456 3.20034L12.6434 7.55429L16.7869 10.3914L11.8228 11.1498L12.188 16.1582L8.5 12.75L4.81199 16.1582L5.17722 11.1498L0.213113 10.3914L4.35656 7.55429L1.85443 3.20034L6.65599 4.67088L8.5 0Z" fill="#FF881B"/>
<path d="M8.5 0L10.344 4.67088L15.1456 3.20034L12.6434 7.55429L16.7869 10.3914L11.8228 11.1498L12.188 16.1582L8.5 12.75L4.81199 16.1582L5.17722 11.1498L0.213113 10.3914L4.35656 7.55429L1.85443 3.20034L6.65599 4.67088L8.5 0Z" fill="#FF881B"/>
</svg>
