<svg width="25" height="25" viewBox="0 0 25 25" fill="none" xmlns="http://www.w3.org/2000/svg">
<path d="M16.4062 7.8125H13.2812V4.6875H11.7188V7.8125H8.59375V9.375H11.7188V12.5H13.2812V9.375H16.4062V7.8125Z" fill="#B5B5B5"/>
<path d="M21.875 18.75H13.2812V15.625H17.9688C18.383 15.6244 18.78 15.4596 19.0729 15.1667C19.3658 14.8738 19.5306 14.4767 19.5312 14.0625V3.125C19.5308 2.71073 19.3661 2.31354 19.0731 2.0206C18.7802 1.72767 18.383 1.56291 17.9688 1.5625H7.03125C6.61698 1.56291 6.21979 1.72767 5.92685 2.0206C5.63392 2.31354 5.46916 2.71073 5.46875 3.125V14.0625C5.46916 14.4768 5.63392 14.874 5.92685 15.1669C6.21979 15.4598 6.61698 15.6246 7.03125 15.625H11.7188V18.75H3.125C2.7106 18.75 2.31317 18.9146 2.02015 19.2076C1.72712 19.5007 1.5625 19.8981 1.5625 20.3125V23.4375H3.125V20.3125H11.7188V23.4375H13.2812V20.3125H21.875V23.4375H23.4375V20.3125C23.4375 19.8981 23.2729 19.5007 22.9799 19.2076C22.6868 18.9146 22.2894 18.75 21.875 18.75ZM7.03125 3.125H17.9688L17.9703 14.0625H7.03125V3.125Z" fill="#B5B5B5"/>
</svg>
