<svg width="22" height="22" viewBox="0 0 22 22" fill="none" xmlns="http://www.w3.org/2000/svg">
<path d="M11 17.8966C14.7405 17.8966 17.7727 14.8431 17.7727 11.0766C17.7727 7.31 14.7405 4.25659 11 4.25659C7.25954 4.25659 4.22729 7.31 4.22729 11.0766C4.22729 14.8431 7.25954 17.8966 11 17.8966Z" fill="#C892D9"/>
<path d="M11 0L9.5296 2.56437H12.4704L11 0Z" fill="#C892D9"/>
<path d="M22 11.0758L19.4537 12.5565V9.59595L22 11.0758Z" fill="#C892D9"/>
<path d="M0 11.0758L2.54632 12.5565V9.59595L0 11.0758Z" fill="#C892D9"/>
<path d="M3.2218 3.24438L3.98235 6.10438L6.06203 4.01095L3.2218 3.24438Z" fill="#C892D9"/>
<path d="M18.7782 3.24438L15.938 4.01095L18.0177 6.10438L18.7782 3.24438Z" fill="#C892D9"/>
<path d="M11 22.0002L9.5296 19.4358H12.4704L11 22.0002Z" fill="#C892D9"/>
<path d="M3.2218 18.756L3.98235 15.896L6.06203 17.9894L3.2218 18.756Z" fill="#C892D9"/>
<path d="M18.7782 18.756L15.938 17.9894L18.0177 15.896L18.7782 18.756Z" fill="#C892D9"/>
</svg>
