<svg width="140" height="100" viewBox="0 0 140 100" fill="none" xmlns="http://www.w3.org/2000/svg">
<g clip-path="url(#clip0_1_2)">
<path fill-rule="evenodd" clip-rule="evenodd" d="M0 16L14.1818 24.1879V7.81211L0 16ZM2.52121 16L12.9212 22.0044V9.99555L2.52121 16Z" fill="#E7E7E7" fill-opacity="0.55"/>
<path fill-rule="evenodd" clip-rule="evenodd" d="M18.9091 16L33.0909 24.1879V7.81211L18.9091 16ZM21.4303 16L31.8303 22.0044V9.99555L21.4303 16Z" fill="#E7E7E7" fill-opacity="0.55"/>
<path fill-rule="evenodd" clip-rule="evenodd" d="M37.8182 16L52 7.81211V24.1879L37.8182 16ZM50.7394 22.0044L40.3394 16L50.7394 9.99555V22.0044Z" fill="#E7E7E7" fill-opacity="0.55"/>
<path d="M70.4571 4.11427L70 3.65713L69.5428 4.11427L58.1143 15.5428L57.6571 16L58.1143 16.4571L69.5428 27.8857L70 28.3428L70.4571 27.8857L81.8857 16.4571L82.3428 16L81.8857 15.5428L70.4571 4.11427ZM61.3143 16L70 7.31427L78.6857 16L70 24.6857L61.3143 16ZM54.9143 16L70 0.914284L85.0857 16L70 31.0857L54.9143 16Z" fill="#E7E7E7" fill-opacity="0.55" stroke="#F5F5F5" stroke-opacity="0.66" stroke-width="1.293"/>
<path fill-rule="evenodd" clip-rule="evenodd" d="M88 16L102.182 24.1879V7.81211L88 16ZM90.5212 16L100.921 22.0044V9.99555L90.5212 16Z" fill="#E7E7E7" fill-opacity="0.55"/>
<path fill-rule="evenodd" clip-rule="evenodd" d="M106.909 16L121.091 24.1879V7.81211L106.909 16ZM109.43 16L119.83 22.0044V9.99555L109.43 16Z" fill="#E7E7E7" fill-opacity="0.55"/>
<path fill-rule="evenodd" clip-rule="evenodd" d="M125.818 16L140 7.81211V24.1879L125.818 16ZM138.739 22.0044L128.339 16L138.739 9.99555V22.0044Z" fill="#E7E7E7" fill-opacity="0.55"/>
<path fill-rule="evenodd" clip-rule="evenodd" d="M0 50L14.1818 58.1879V41.8121L0 50ZM2.52121 50L12.9212 56.0044V43.9955L2.52121 50Z" fill="#E7E7E7" fill-opacity="0.55"/>
<path fill-rule="evenodd" clip-rule="evenodd" d="M18.9091 50L33.0909 58.1879V41.8121L18.9091 50ZM21.4303 50L31.8303 56.0044V43.9955L21.4303 50Z" fill="#E7E7E7" fill-opacity="0.55"/>
<path fill-rule="evenodd" clip-rule="evenodd" d="M37.8182 50L52 41.8121V58.1879L37.8182 50ZM50.7394 56.0044L40.3394 50L50.7394 43.9955V56.0044Z" fill="#E7E7E7" fill-opacity="0.55"/>
<path d="M70.4571 38.1143L70 37.6571L69.5428 38.1143L58.1143 49.5428L57.6571 50L58.1143 50.4571L69.5428 61.8857L70 62.3428L70.4571 61.8857L81.8857 50.4571L82.3428 50L81.8857 49.5428L70.4571 38.1143ZM61.3143 50L70 41.3143L78.6857 50L70 58.6857L61.3143 50ZM54.9143 50L70 34.9143L85.0857 50L70 65.0857L54.9143 50Z" fill="#E7E7E7" fill-opacity="0.55" stroke="#F5F5F5" stroke-opacity="0.66" stroke-width="1.293"/>
<path fill-rule="evenodd" clip-rule="evenodd" d="M88 50L102.182 58.1879V41.8121L88 50ZM90.5212 50L100.921 56.0044V43.9955L90.5212 50Z" fill="#E7E7E7" fill-opacity="0.55"/>
<path fill-rule="evenodd" clip-rule="evenodd" d="M106.909 50L121.091 58.1879V41.8121L106.909 50ZM109.43 50L119.83 56.0044V43.9955L109.43 50Z" fill="#E7E7E7" fill-opacity="0.55"/>
<path fill-rule="evenodd" clip-rule="evenodd" d="M125.818 50L140 41.8121V58.1879L125.818 50ZM138.739 56.0044L128.339 50L138.739 43.9955V56.0044Z" fill="#E7E7E7" fill-opacity="0.55"/>
<path fill-rule="evenodd" clip-rule="evenodd" d="M0 84L14.1818 92.1879V75.8121L0 84ZM2.52121 84L12.9212 90.0044V77.9955L2.52121 84Z" fill="#E7E7E7" fill-opacity="0.55"/>
<path fill-rule="evenodd" clip-rule="evenodd" d="M18.9091 84L33.0909 92.1879V75.8121L18.9091 84ZM21.4303 84L31.8303 90.0044V77.9955L21.4303 84Z" fill="#E7E7E7" fill-opacity="0.55"/>
<path fill-rule="evenodd" clip-rule="evenodd" d="M37.8182 84L52 75.8121V92.1879L37.8182 84ZM50.7394 90.0044L40.3394 84L50.7394 77.9955V90.0044Z" fill="#E7E7E7" fill-opacity="0.55"/>
<path d="M70.4571 72.1143L70 71.6571L69.5428 72.1143L58.1143 83.5428L57.6571 84L58.1143 84.4571L69.5428 95.8857L70 96.3428L70.4571 95.8857L81.8857 84.4571L82.3428 84L81.8857 83.5428L70.4571 72.1143ZM61.3143 84L70 75.3143L78.6857 84L70 92.6857L61.3143 84ZM54.9143 84L70 68.9143L85.0857 84L70 99.0857L54.9143 84Z" fill="#E7E7E7" fill-opacity="0.55" stroke="#F5F5F5" stroke-opacity="0.66" stroke-width="1.293"/>
<path fill-rule="evenodd" clip-rule="evenodd" d="M88 84L102.182 92.1879V75.8121L88 84ZM90.5212 84L100.921 90.0044V77.9955L90.5212 84Z" fill="#E7E7E7" fill-opacity="0.55"/>
<path fill-rule="evenodd" clip-rule="evenodd" d="M106.909 84L121.091 92.1879V75.8121L106.909 84ZM109.43 84L119.83 90.0044V77.9955L109.43 84Z" fill="#E7E7E7" fill-opacity="0.55"/>
<path fill-rule="evenodd" clip-rule="evenodd" d="M125.818 84L140 75.8121V92.1879L125.818 84ZM138.739 90.0044L128.339 84L138.739 77.9955V90.0044Z" fill="#E7E7E7" fill-opacity="0.55"/>
</g>
<defs>
<clipPath id="clip0_1_2">
<rect width="140" height="100" fill="white"/>
</clipPath>
</defs>
</svg>
