<svg width="104" height="104" viewBox="0 0 104 104" fill="none" xmlns="http://www.w3.org/2000/svg">
<path fill-rule="evenodd" clip-rule="evenodd" d="M2.2511 1.46318L1.85714 0L1.46318 1.46318L0 1.85714L1.46318 2.2511L1.85714 3.71429L2.2511 2.2511L3.71429 1.85714L2.2511 1.46318ZM2.2511 34.8918L1.85714 33.4286L1.46318 34.8918L0 35.2857L1.46318 35.6797L1.85714 37.1429L2.2511 35.6797L3.71429 35.2857L2.2511 34.8918ZM1.85714 66.8571L2.2511 68.3203L3.71429 68.7143L2.2511 69.1082L1.85714 70.5714L1.46318 69.1082L0 68.7143L1.46318 68.3203L1.85714 66.8571ZM2.2511 101.749L1.85714 100.286L1.46318 101.749L0 102.143L1.46318 102.537L1.85714 104L2.2511 102.537L3.71429 102.143L2.2511 101.749ZM35.2857 0L35.6797 1.46318L37.1429 1.85714L35.6797 2.2511L35.2857 3.71429L34.8918 2.2511L33.4286 1.85714L34.8918 1.46318L35.2857 0ZM35.6797 34.8918L35.2857 33.4286L34.8918 34.8918L33.4286 35.2857L34.8918 35.6797L35.2857 37.1429L35.6797 35.6797L37.1429 35.2857L35.6797 34.8918ZM35.2857 66.8571L35.6797 68.3203L37.1429 68.7143L35.6797 69.1082L35.2857 70.5714L34.8918 69.1082L33.4286 68.7143L34.8918 68.3203L35.2857 66.8571ZM35.6797 101.749L35.2857 100.286L34.8918 101.749L33.4286 102.143L34.8918 102.537L35.2857 104L35.6797 102.537L37.1429 102.143L35.6797 101.749ZM68.7143 0L69.1082 1.46318L70.5714 1.85714L69.1082 2.2511L68.7143 3.71429L68.3203 2.2511L66.8571 1.85714L68.3203 1.46318L68.7143 0ZM69.1082 34.8918L68.7143 33.4286L68.3203 34.8918L66.8571 35.2857L68.3203 35.6797L68.7143 37.1429L69.1082 35.6797L70.5714 35.2857L69.1082 34.8918ZM68.7143 66.8571L69.1082 68.3203L70.5714 68.7143L69.1082 69.1082L68.7143 70.5714L68.3203 69.1082L66.8571 68.7143L68.3203 68.3203L68.7143 66.8571ZM69.1082 101.749L68.7143 100.286L68.3203 101.749L66.8571 102.143L68.3203 102.537L68.7143 104L69.1082 102.537L70.5714 102.143L69.1082 101.749ZM102.143 0L102.537 1.46318L104 1.85714L102.537 2.2511L102.143 3.71429L101.749 2.2511L100.286 1.85714L101.749 1.46318L102.143 0ZM102.537 34.8918L102.143 33.4286L101.749 34.8918L100.286 35.2857L101.749 35.6797L102.143 37.1429L102.537 35.6797L104 35.2857L102.537 34.8918ZM102.143 66.8571L102.537 68.3203L104 68.7143L102.537 69.1082L102.143 70.5714L101.749 69.1082L100.286 68.7143L101.749 68.3203L102.143 66.8571ZM102.537 101.749L102.143 100.286L101.749 101.749L100.286 102.143L101.749 102.537L102.143 104L102.537 102.537L104 102.143L102.537 101.749Z" fill="#EA7DFF"/>
</svg>
